<svg width="31" height="30" viewBox="0 0 31 30" fill="none" xmlns="http://www.w3.org/2000/svg">
<g clip-path="url(#clip0_18_2)">
<path d="M15.4287 0C6.90878 0 0 6.8768 0 15.3601C0 22.1466 4.42079 27.9043 10.5511 29.9353C11.3222 30.0775 11.6052 29.6021 11.6052 29.1964C11.6052 28.8301 11.5909 27.6201 11.5843 26.3367C7.29202 27.2658 6.3863 24.5244 6.3863 24.5244C5.68446 22.749 4.67322 22.2769 4.67322 22.2769C3.27337 21.3235 4.77874 21.3431 4.77874 21.3431C6.32805 21.4515 7.14383 22.926 7.14383 22.926C8.51992 25.2742 10.7532 24.5953 11.6336 24.2029C11.7721 23.2101 12.1719 22.5325 12.6132 22.1489C9.18624 21.7605 5.5838 20.4435 5.5838 14.5579C5.5838 12.8809 6.1865 11.5107 7.17347 10.435C7.01328 10.0481 6.48517 8.48587 7.32293 6.37012C7.32293 6.37012 8.61854 5.9573 11.5669 7.94459C12.7976 7.60427 14.1175 7.43359 15.4287 7.42774C16.7399 7.43359 18.0608 7.60427 19.2938 7.94459C22.2386 5.9573 23.5324 6.37012 23.5324 6.37012C24.3722 8.48587 23.8439 10.0481 23.6837 10.435C24.6729 11.5107 25.2716 12.8809 25.2716 14.5579C25.2716 20.4574 21.6622 21.7565 18.2266 22.1367C18.78 22.6134 19.2731 23.5481 19.2731 24.9812C19.2731 27.0364 19.2552 28.6905 19.2552 29.1964C19.2552 29.6052 19.5329 30.0841 20.315 29.9333C26.442 27.8999 30.8571 22.1443 30.8571 15.3601C30.8571 6.8768 23.9494 0 15.4287 0ZM5.77855 21.8808C5.74457 21.9571 5.62398 21.98 5.51411 21.9276C5.40221 21.8775 5.33936 21.7735 5.37564 21.6969C5.40885 21.6183 5.5297 21.5965 5.64135 21.6491C5.75351 21.6992 5.81738 21.8043 5.77855 21.8808ZM6.53747 22.555C6.46389 22.6229 6.32005 22.5914 6.22245 22.484C6.12153 22.3769 6.10262 22.2337 6.17723 22.1648C6.25311 22.0969 6.39261 22.1287 6.49378 22.2358C6.5947 22.3441 6.61437 22.4863 6.53747 22.555ZM7.05812 23.4176C6.96359 23.4829 6.80901 23.4216 6.71346 23.285C6.61893 23.1485 6.61893 22.9846 6.7155 22.919C6.81131 22.8534 6.96359 22.9124 7.06042 23.048C7.15469 23.1869 7.15469 23.3507 7.05812 23.4176ZM7.93865 24.4165C7.85408 24.5094 7.67396 24.4845 7.54212 24.3578C7.40722 24.2339 7.36966 24.0582 7.45449 23.9653C7.54008 23.8722 7.72122 23.8984 7.85408 24.0241C7.98796 24.1477 8.02884 24.3247 7.93865 24.4165ZM9.07664 24.7538C9.03934 24.8741 8.86586 24.9288 8.6911 24.8777C8.5166 24.825 8.4024 24.6841 8.43766 24.5625C8.47394 24.4414 8.64818 24.3845 8.82422 24.4391C8.99846 24.4915 9.11292 24.6314 9.07664 24.7538ZM10.3717 24.8968C10.3761 25.0235 10.2279 25.1286 10.0444 25.1308C9.85998 25.1349 9.71077 25.0324 9.70873 24.9078C9.70873 24.7798 9.85359 24.6758 10.0381 24.6727C10.2215 24.6692 10.3717 24.7709 10.3717 24.8968ZM11.644 24.8483C11.666 24.9719 11.5385 25.0988 11.3563 25.1327C11.1772 25.1652 11.0114 25.0889 10.9887 24.9663C10.9664 24.8396 11.0962 24.7127 11.2751 24.6799C11.4575 24.6484 11.6208 24.7226 11.644 24.8483Z" fill="#78E2A1"/>
</g>
<defs>
<clipPath id="clip0_18_2">
<rect width="30.8571" height="30" fill="white"/>
</clipPath>
</defs>
</svg>
