<svg width="32" height="30" viewBox="0 0 32 30" fill="none" xmlns="http://www.w3.org/2000/svg">
<g clip-path="url(#clip0_1_90)">
<path d="M29.051 0H2.22771C0.998626 0 0 0.970984 0 2.16295V27.8371C0 29.029 0.998626 30 2.22771 30H29.051C30.2801 30 31.2857 29.029 31.2857 27.8371V2.16295C31.2857 0.970984 30.2801 0 29.051 0ZM9.45554 25.7143H4.81856V11.3973H9.46251V25.7143H9.45554ZM7.13705 9.44195C5.64959 9.44195 4.44844 8.28348 4.44844 6.86386C4.44844 5.4442 5.64959 4.28571 7.13705 4.28571C8.61751 4.28571 9.82563 5.4442 9.82563 6.86386C9.82563 8.29016 8.62455 9.44195 7.13705 9.44195ZM26.8372 25.7143H22.2003V18.75C22.2003 17.0893 22.1654 14.9531 19.791 14.9531C17.3747 14.9531 17.0046 16.7611 17.0046 18.6295V25.7143H12.3677V11.3973H16.8161V13.3527H16.8789C17.5004 12.2277 19.0159 11.0424 21.2715 11.0424C25.9644 11.0424 26.8372 14.0089 26.8372 17.8661V25.7143Z" fill="#78E2A1"/>
</g>
<defs>
<clipPath id="clip0_1_90">
<rect width="31.2857" height="30" fill="white"/>
</clipPath>
</defs>
</svg>
