<svg width="100" height="100" viewBox="0 0 100 100" fill="none" xmlns="http://www.w3.org/2000/svg">
<rect width="100" height="100" rx="10" fill="#1E293B"/>
<path d="M41.6172 89.2C41.5339 89.0385 41.4609 88.7755 41.3984 88.4109C40.7943 89.0411 40.0547 89.3562 39.1797 89.3562C38.3307 89.3562 37.638 89.114 37.1016 88.6296C36.5651 88.1453 36.2969 87.5463 36.2969 86.8328C36.2969 85.9317 36.6302 85.2416 37.2969 84.7625C37.9688 84.2781 38.9271 84.0359 40.1719 84.0359H41.3359V83.4812C41.3359 83.0437 41.2135 82.6947 40.9688 82.4343C40.724 82.1687 40.3516 82.0359 39.8516 82.0359C39.4193 82.0359 39.0651 82.1453 38.7891 82.364C38.513 82.5776 38.375 82.851 38.375 83.1843H36.4766C36.4766 82.7208 36.6302 82.2885 36.9375 81.8875C37.2448 81.4812 37.6615 81.1635 38.1875 80.9343C38.7188 80.7052 39.3099 80.5906 39.9609 80.5906C40.9505 80.5906 41.7396 80.8406 42.3281 81.3406C42.9167 81.8354 43.2188 82.5333 43.2344 83.4343V87.2468C43.2344 88.0072 43.3411 88.614 43.5547 89.0671V89.2H41.6172ZM39.5312 87.8328C39.9062 87.8328 40.2578 87.7416 40.5859 87.5593C40.9193 87.377 41.1693 87.1322 41.3359 86.825V85.2312H40.3125C39.6094 85.2312 39.0807 85.3536 38.7266 85.5984C38.3724 85.8432 38.1953 86.1895 38.1953 86.6375C38.1953 87.002 38.3151 87.2937 38.5547 87.5125C38.7995 87.726 39.125 87.8328 39.5312 87.8328ZM52.6484 86.5828L53.9922 80.7468H55.8438L53.5391 89.2H51.9766L50.1641 83.3953L48.3828 89.2H46.8203L44.5078 80.7468H46.3594L47.7266 86.5203L49.4609 80.7468H50.8906L52.6484 86.5828ZM61.8516 86.9031C61.8516 86.5645 61.7109 86.3067 61.4297 86.1296C61.1536 85.9526 60.6927 85.7963 60.0469 85.6609C59.401 85.5255 58.862 85.3536 58.4297 85.1453C57.4818 84.6869 57.0078 84.0229 57.0078 83.1531C57.0078 82.4239 57.3151 81.8145 57.9297 81.325C58.5443 80.8354 59.3255 80.5906 60.2734 80.5906C61.2839 80.5906 62.099 80.8406 62.7188 81.3406C63.3438 81.8406 63.6562 82.489 63.6562 83.2859H61.7578C61.7578 82.9213 61.6224 82.6192 61.3516 82.3796C61.0807 82.1348 60.7214 82.0125 60.2734 82.0125C59.8568 82.0125 59.5156 82.1088 59.25 82.3015C58.9896 82.4942 58.8594 82.752 58.8594 83.075C58.8594 83.3666 58.9818 83.5932 59.2266 83.7546C59.4714 83.9161 59.9661 84.0802 60.7109 84.2468C61.4557 84.4083 62.0391 84.6036 62.4609 84.8328C62.888 85.0567 63.2031 85.3276 63.4062 85.6453C63.6146 85.963 63.7188 86.3484 63.7188 86.8015C63.7188 87.5619 63.4036 88.1791 62.7734 88.6531C62.1432 89.1218 61.3177 89.3562 60.2969 89.3562C59.6042 89.3562 58.987 89.2312 58.4453 88.9812C57.9036 88.7312 57.4818 88.3875 57.1797 87.95C56.8776 87.5125 56.7266 87.0411 56.7266 86.5359H58.5703C58.5964 86.9838 58.7656 87.3302 59.0781 87.575C59.3906 87.8145 59.8047 87.9343 60.3203 87.9343C60.8203 87.9343 61.2005 87.8406 61.4609 87.6531C61.7214 87.4604 61.8516 87.2104 61.8516 86.9031Z" fill="#E2E8F0"/>
<g clip-path="url(#clip0)">
<path d="M36.4359 31.2558C36.4359 32.0295 36.521 32.6571 36.6699 33.1169C36.8591 33.6345 37.0868 34.1378 37.3512 34.6225C37.4576 34.7898 37.5001 34.9573 37.5001 35.1036C37.5001 35.3128 37.3725 35.5217 37.0958 35.7309L35.7549 36.6092C35.5631 36.7347 35.3715 36.7974 35.2012 36.7974C34.9885 36.7974 34.7756 36.6928 34.5626 36.5046C34.2759 36.2018 34.0193 35.8727 33.7965 35.5217C33.5836 35.1665 33.3707 34.7691 33.1366 34.288C31.4763 36.212 29.3901 37.1739 26.8786 37.1739C25.0907 37.1739 23.6644 36.6721 22.6213 35.6683C21.5785 34.6642 21.0461 33.3261 21.0461 31.653C21.0461 29.8755 21.6847 28.4326 22.9832 27.3452C24.2816 26.2577 26.0057 25.714 28.1984 25.714C28.9221 25.714 29.6671 25.7767 30.4546 25.8813C31.242 25.9859 32.0511 26.1531 32.9023 26.3414V24.8148C32.9023 23.2256 32.5618 22.1171 31.9019 21.4688C31.2209 20.8205 30.0714 20.5067 28.4324 20.5067C27.6874 20.5067 26.921 20.5906 26.1335 20.7788C25.3461 20.967 24.5797 21.197 23.8347 21.4898C23.4942 21.6361 23.2388 21.7197 23.0896 21.7616C22.9407 21.8036 22.8343 21.8243 22.7491 21.8243C22.4511 21.8243 22.3022 21.6151 22.3022 21.176V20.1514C22.3022 19.8167 22.3449 19.5658 22.4511 19.4195C22.5575 19.273 22.7491 19.1267 23.0472 18.9804C23.792 18.6039 24.6862 18.2901 25.729 18.0392C26.7721 17.7674 27.8792 17.642 29.0496 17.642C31.5828 17.642 33.4344 18.2065 34.6267 19.3359C35.7973 20.465 36.3932 22.1798 36.3932 24.4803V31.2558H36.4359ZM27.7938 34.4343C28.4962 34.4343 29.2201 34.309 29.9863 34.0581C30.7526 33.8069 31.4336 33.3468 32.0084 32.7195C32.3489 32.3223 32.6045 31.8832 32.7321 31.3811C32.8599 30.8794 32.945 30.273 32.945 29.5617V28.6835C32.2995 28.5292 31.6457 28.4106 30.9867 28.3283C30.323 28.2454 29.6548 28.2033 28.9858 28.2024C27.5596 28.2024 26.5167 28.4743 25.8144 29.039C25.1118 29.6037 24.7713 30.3983 24.7713 31.4441C24.7713 32.4269 25.0267 33.1586 25.5588 33.6606C26.0698 34.1836 26.8148 34.4343 27.7936 34.4343H27.7938ZM44.8863 36.6928C44.5032 36.6928 44.2478 36.6301 44.0775 36.4839C43.907 36.3583 43.7581 36.0655 43.6306 35.6683L38.628 19.5031C38.5002 19.085 38.4365 18.8131 38.4365 18.6668C38.4365 18.3321 38.6067 18.1438 38.9472 18.1438H41.0334C41.4377 18.1438 41.7144 18.2065 41.8635 18.353C42.0338 18.4783 42.1614 18.7712 42.2892 19.1686L45.8652 33.0123L49.1858 19.1686C49.2922 18.7502 49.4198 18.4783 49.5901 18.353C49.7606 18.2275 50.0584 18.1438 50.4416 18.1438H52.1446C52.5488 18.1438 52.8256 18.2065 52.9958 18.353C53.1663 18.4783 53.3152 18.7712 53.4003 19.1686L56.7634 33.1796L60.4458 19.1686C60.5737 18.7502 60.7226 18.4783 60.8717 18.353C61.042 18.2275 61.3187 18.1438 61.7019 18.1438H63.6813C64.0218 18.1438 64.2137 18.3111 64.2137 18.6668C64.2137 18.7712 64.1923 18.8758 64.171 19.0011C64.1497 19.1269 64.107 19.2939 64.0218 19.5241L58.892 35.6892C58.7644 36.1074 58.6153 36.3793 58.445 36.5046C58.2748 36.6304 57.9981 36.7138 57.6362 36.7138H55.8057C55.4014 36.7138 55.1244 36.6511 54.9544 36.5046C54.7839 36.3583 54.635 36.0864 54.5499 35.6683L51.2504 22.1798L47.9724 35.6473C47.866 36.0655 47.7384 36.3373 47.5682 36.4836C47.3977 36.6301 47.0998 36.6928 46.7167 36.6928H44.8863ZM72.2385 37.2577C71.1316 37.2577 70.0248 37.1319 68.9606 36.881C67.8962 36.6301 67.066 36.3583 66.5126 36.0447C66.1721 35.8565 65.938 35.6473 65.8527 35.4591C65.7699 35.2745 65.7265 35.0753 65.7251 34.8737V33.8069C65.7251 33.3678 65.8953 33.1589 66.2147 33.1589C66.345 33.1593 66.4743 33.1804 66.5977 33.2215C66.7255 33.2635 66.9171 33.3468 67.13 33.4307C67.8818 33.7555 68.6667 34.0008 69.4713 34.1624C70.305 34.3287 71.1535 34.4129 72.0042 34.4136C73.3451 34.4136 74.3885 34.1834 75.1122 33.7233C75.8359 33.2632 76.219 32.5942 76.219 31.7366C76.219 31.1512 76.0274 30.6702 75.644 30.273C75.2611 29.8755 74.5374 29.5201 73.4945 29.1855L70.408 28.2444C68.8541 27.7633 67.7046 27.0523 67.0022 26.1114C66.2999 25.1912 65.938 24.1665 65.938 23.079C65.938 22.2008 66.1294 21.4271 66.5126 20.7578C66.8957 20.0885 67.4065 19.5031 68.0453 19.043C68.6839 18.562 69.4076 18.2067 70.2591 17.9556C71.1103 17.7047 72.0042 17.6001 72.9409 17.6001C73.4092 17.6001 73.8988 17.6211 74.3671 17.684C74.8568 17.7464 75.3038 17.83 75.7507 17.9139C76.1764 18.0183 76.5809 18.1229 76.9638 18.2484C77.347 18.3737 77.6451 18.4993 77.8578 18.6249C78.1561 18.7921 78.3688 18.9594 78.4966 19.1476C78.6241 19.3149 78.6882 19.5448 78.6882 19.8376V20.8205C78.6882 21.2596 78.5179 21.4898 78.1985 21.4898C78.0283 21.4898 77.7515 21.4059 77.3897 21.2389C76.1764 20.6952 74.8141 20.4233 73.3027 20.4233C72.0896 20.4233 71.1316 20.6115 70.4717 21.0087C69.8118 21.4059 69.4713 22.0128 69.4713 22.8701C69.4713 23.4555 69.6843 23.9575 70.1099 24.3547C70.5355 24.7519 71.3232 25.1493 72.4515 25.5048L75.474 26.446C77.0065 26.927 78.1134 27.5961 78.7733 28.4536C79.4332 29.3109 79.7526 30.2939 79.7526 31.3811C79.7526 32.2804 79.5608 33.0959 79.1989 33.8069C78.8157 34.5179 78.305 35.1455 77.6451 35.6473C76.9852 36.1703 76.1977 36.5465 75.2822 36.8184C74.3244 37.1112 73.324 37.2575 72.2385 37.2575V37.2577Z" fill="#0EA5E9"/>
<path d="M76.2615 47.421C69.2584 52.5025 59.0838 55.2002 50.3353 55.2002C38.0749 55.2002 27.0277 50.746 18.6835 43.3431C18.0236 42.7574 18.6197 41.9628 19.4072 42.4229C28.4324 47.5673 39.5649 50.6831 51.0804 50.6831C58.8496 50.6831 67.3854 49.0939 75.2397 45.8315C76.4106 45.3085 77.411 46.5845 76.2617 47.4208L76.2615 47.421ZM79.1775 44.1587C78.2836 43.0293 73.2602 43.615 70.9827 43.8868C70.3015 43.9704 70.195 43.3848 70.8122 42.9457C74.8141 40.1851 81.3913 40.98 82.1577 41.9002C82.924 42.8411 81.9447 49.3031 78.1985 52.3979C77.6237 52.879 77.0703 52.6281 77.3259 52.0007C78.1771 49.9304 80.0717 45.2668 79.1775 44.1587V44.1587Z" fill="#0EA5E9"/>
</g>
<defs>
<clipPath id="clip0">
<rect x="18.4" y="17.6001" width="64" height="37.6" rx="10" fill="white"/>
</clipPath>
</defs>
</svg>
