<svg width="100" height="100" viewBox="0 0 100 100" fill="none" xmlns="http://www.w3.org/2000/svg">
<rect width="100" height="100" rx="10" fill="#1E293B"/>
<path d="M49.7188 87.7234C49.3073 88.2598 48.737 88.6661 48.0078 88.9421C47.2786 89.2182 46.4505 89.3562 45.5234 89.3562C44.5703 89.3562 43.7266 89.1401 42.9922 88.7078C42.2578 88.2755 41.6901 87.6583 41.2891 86.8562C40.8932 86.0489 40.6875 85.1088 40.6719 84.0359V83.1453C40.6719 81.4265 41.0833 80.0854 41.9062 79.1218C42.7292 78.1531 43.8776 77.6687 45.3516 77.6687C46.6172 77.6687 47.6224 77.9812 48.3672 78.6062C49.112 79.2312 49.5599 80.1322 49.7109 81.3093H47.7734C47.5547 79.9395 46.7604 79.2546 45.3906 79.2546C44.5052 79.2546 43.8307 79.575 43.3672 80.2156C42.9089 80.851 42.6719 81.7859 42.6562 83.0203V83.8953C42.6562 85.1244 42.9141 86.0802 43.4297 86.7625C43.9505 87.4395 44.6719 87.7781 45.5938 87.7781C46.6042 87.7781 47.3229 87.5489 47.75 87.0906V84.864H45.4062V83.364H49.7188V87.7234ZM53.7266 89.2H51.8281V80.7468H53.7266V89.2ZM51.7109 78.5515C51.7109 78.2598 51.8021 78.0177 51.9844 77.825C52.1719 77.6322 52.4375 77.5359 52.7812 77.5359C53.125 77.5359 53.3906 77.6322 53.5781 77.825C53.7656 78.0177 53.8594 78.2598 53.8594 78.5515C53.8594 78.838 53.7656 79.0776 53.5781 79.2703C53.3906 79.4578 53.125 79.5515 52.7812 79.5515C52.4375 79.5515 52.1719 79.4578 51.9844 79.2703C51.8021 79.0776 51.7109 78.838 51.7109 78.5515ZM58.1797 78.6921V80.7468H59.6719V82.1531H58.1797V86.8718C58.1797 87.1947 58.2422 87.4291 58.3672 87.575C58.4974 87.7156 58.7266 87.7859 59.0547 87.7859C59.2734 87.7859 59.4948 87.7598 59.7188 87.7078V89.1765C59.2865 89.2963 58.8698 89.3562 58.4688 89.3562C57.0104 89.3562 56.2812 88.5515 56.2812 86.9421V82.1531H54.8906V80.7468H56.2812V78.6921H58.1797Z" fill="#E2E8F0"/>
<g clip-path="url(#clip0)">
<path d="M68.845 28.6183L51.3803 11.1545C50.3753 10.1487 48.7439 10.1487 47.7375 11.1545L44.1109 14.7811L48.7114 19.3817C49.7806 19.0204 51.0064 19.2628 51.8587 20.115C52.715 20.9727 52.9556 22.2091 52.5855 23.2816L57.019 27.7154C58.0917 27.3459 59.3294 27.585 60.1862 28.4431C61.3834 29.64 61.3834 31.5799 60.1862 32.7776C58.9884 33.9754 57.0486 33.9754 55.8503 32.7776C54.9498 31.876 54.7273 30.5533 55.1831 29.4438L51.0486 25.309L51.0481 36.19C51.3478 36.3382 51.6216 36.534 51.8587 36.7697C53.0559 37.9666 53.0559 39.9066 51.8587 41.1052C50.6609 42.3024 48.7201 42.3024 47.5244 41.1052C46.3269 39.9066 46.3269 37.9667 47.5244 36.7698C47.8112 36.4828 48.1522 36.2554 48.5275 36.1009V25.1185C48.1516 24.965 47.8105 24.7376 47.5244 24.4496C46.617 23.5436 46.3989 22.2125 46.8637 21.0986L42.329 16.563L30.354 28.5375C29.3476 29.5442 29.3476 31.1757 30.354 32.1816L47.8186 49.6457C48.824 50.6517 50.455 50.6517 51.4619 49.6457L68.8447 32.2627C69.8506 31.2564 69.8506 29.6241 68.8447 28.6183" fill="#0EA5E9"/>
</g>
<defs>
<clipPath id="clip0">
<rect x="29.6" y="10.3999" width="40" height="40" rx="10" fill="white"/>
</clipPath>
</defs>
</svg>
