<svg width="21" height="20" viewBox="0 0 21 20" fill="none" xmlns="http://www.w3.org/2000/svg">
<g clip-path="url(#clip0)">
<path d="M7.11307 15.5234C7.11307 15.6016 7.01899 15.6641 6.90037 15.6641C6.76539 15.6758 6.67132 15.6133 6.67132 15.5234C6.67132 15.4453 6.76539 15.3828 6.88401 15.3828C7.00672 15.3711 7.11307 15.4336 7.11307 15.5234ZM5.84098 15.3477C5.81235 15.4258 5.89416 15.5156 6.01687 15.5391C6.12322 15.5781 6.24592 15.5391 6.27047 15.4609C6.29501 15.3828 6.21729 15.293 6.09458 15.2578C5.98823 15.2305 5.86962 15.2695 5.84098 15.3477ZM7.6489 15.2812C7.53028 15.3086 7.44848 15.3828 7.46075 15.4727C7.47302 15.5508 7.57937 15.6016 7.70208 15.5742C7.8207 15.5469 7.9025 15.4727 7.89023 15.3945C7.87796 15.3203 7.76752 15.2695 7.6489 15.2812ZM10.3403 0.3125C4.66706 0.3125 0.32724 4.42578 0.32724 9.84375C0.32724 14.1758 3.18228 17.8828 7.26032 19.1875C7.78388 19.2773 7.96795 18.9688 7.96795 18.7148C7.96795 18.4727 7.95568 17.1367 7.95568 16.3164C7.95568 16.3164 5.09246 16.9023 4.49118 15.1523C4.49118 15.1523 4.02488 14.0156 3.35407 13.7227C3.35407 13.7227 2.41739 13.1094 3.41952 13.1211C3.41952 13.1211 4.43801 13.1992 4.99838 14.1289C5.89416 15.6367 7.3953 15.2031 7.98022 14.9453C8.0743 14.3203 8.34017 13.8867 8.63467 13.6289C6.34818 13.3867 4.04125 13.0703 4.04125 9.3125C4.04125 8.23828 4.35211 7.69922 5.00656 7.01172C4.90021 6.75781 4.55253 5.71094 5.11291 4.35938C5.96778 4.10547 7.93522 5.41406 7.93522 5.41406C8.75329 5.19531 9.6327 5.08203 10.5039 5.08203C11.3752 5.08203 12.2546 5.19531 13.0727 5.41406C13.0727 5.41406 15.0401 4.10156 15.895 4.35938C16.4553 5.71484 16.1077 6.75781 16.0013 7.01172C16.6558 7.70312 17.0566 8.24219 17.0566 9.3125C17.0566 13.082 14.6474 13.3828 12.3609 13.6289C12.7373 13.9375 13.0563 14.5234 13.0563 15.4414C13.0563 16.7578 13.044 18.3867 13.044 18.707C13.044 18.9609 13.2322 19.2695 13.7517 19.1797C17.842 17.8828 20.6152 14.1758 20.6152 9.84375C20.6152 4.42578 16.0136 0.3125 10.3403 0.3125ZM4.30303 13.7852C4.24985 13.8242 4.26212 13.9141 4.33166 13.9883C4.3971 14.0508 4.49118 14.0781 4.54435 14.0273C4.59753 13.9883 4.58526 13.8984 4.51572 13.8242C4.45028 13.7617 4.3562 13.7344 4.30303 13.7852ZM3.86127 13.4688C3.83264 13.5195 3.87354 13.582 3.95535 13.6211C4.02079 13.6602 4.1026 13.6484 4.13123 13.5938C4.15986 13.543 4.11896 13.4805 4.03715 13.4414C3.95535 13.418 3.8899 13.4297 3.86127 13.4688ZM5.18653 14.8594C5.12109 14.9102 5.14563 15.0273 5.23971 15.1016C5.33378 15.1914 5.4524 15.2031 5.50558 15.1406C5.55875 15.0898 5.53421 14.9727 5.4524 14.8984C5.36242 14.8086 5.23971 14.7969 5.18653 14.8594ZM4.72024 14.2852C4.65479 14.3242 4.65479 14.4258 4.72024 14.5156C4.78568 14.6055 4.89612 14.6445 4.94929 14.6055C5.01474 14.5547 5.01474 14.4531 4.94929 14.3633C4.89203 14.2734 4.78568 14.2344 4.72024 14.2852Z" fill="#E4E4E7"/>
</g>
<defs>
<clipPath id="clip0">
<rect width="20.9424" height="20" fill="white"/>
</clipPath>
</defs>
</svg>
