<svg width="100" height="100" viewBox="0 0 100 100" fill="none" xmlns="http://www.w3.org/2000/svg">
<rect width="100" height="100" rx="10" fill="#1E293B"/>
<path d="M17.8281 77.825H19.7969V85.8015C19.7969 86.8901 19.4557 87.7546 18.7734 88.3953C18.0964 89.0359 17.2005 89.3562 16.0859 89.3562C14.8984 89.3562 13.9818 89.0567 13.3359 88.4578C12.6901 87.8588 12.3672 87.0255 12.3672 85.9578H14.3359C14.3359 86.5619 14.4844 87.0177 14.7812 87.325C15.0833 87.627 15.5182 87.7781 16.0859 87.7781C16.6172 87.7781 17.0391 87.6036 17.3516 87.2546C17.6693 86.9005 17.8281 86.4135 17.8281 85.7937V77.825ZM26.9297 89.2C26.8464 89.0385 26.7734 88.7755 26.7109 88.4109C26.1068 89.0411 25.3672 89.3562 24.4922 89.3562C23.6432 89.3562 22.9505 89.114 22.4141 88.6296C21.8776 88.1453 21.6094 87.5463 21.6094 86.8328C21.6094 85.9317 21.9427 85.2416 22.6094 84.7625C23.2812 84.2781 24.2396 84.0359 25.4844 84.0359H26.6484V83.4812C26.6484 83.0437 26.526 82.6947 26.2812 82.4343C26.0365 82.1687 25.6641 82.0359 25.1641 82.0359C24.7318 82.0359 24.3776 82.1453 24.1016 82.364C23.8255 82.5776 23.6875 82.851 23.6875 83.1843H21.7891C21.7891 82.7208 21.9427 82.2885 22.25 81.8875C22.5573 81.4812 22.974 81.1635 23.5 80.9343C24.0312 80.7052 24.6224 80.5906 25.2734 80.5906C26.263 80.5906 27.0521 80.8406 27.6406 81.3406C28.2292 81.8354 28.5312 82.5333 28.5469 83.4343V87.2468C28.5469 88.0072 28.6536 88.614 28.8672 89.0671V89.2H26.9297ZM24.8438 87.8328C25.2188 87.8328 25.5703 87.7416 25.8984 87.5593C26.2318 87.377 26.4818 87.1322 26.6484 86.825V85.2312H25.625C24.9219 85.2312 24.3932 85.3536 24.0391 85.5984C23.6849 85.8432 23.5078 86.1895 23.5078 86.6375C23.5078 87.002 23.6276 87.2937 23.8672 87.5125C24.112 87.726 24.4375 87.8328 24.8438 87.8328ZM33.3906 86.7937L35.1797 80.7468H37.1406L34.2109 89.2H32.5625L29.6094 80.7468H31.5781L33.3906 86.7937ZM43.2578 89.2C43.1745 89.0385 43.1016 88.7755 43.0391 88.4109C42.4349 89.0411 41.6953 89.3562 40.8203 89.3562C39.9714 89.3562 39.2786 89.114 38.7422 88.6296C38.2057 88.1453 37.9375 87.5463 37.9375 86.8328C37.9375 85.9317 38.2708 85.2416 38.9375 84.7625C39.6094 84.2781 40.5677 84.0359 41.8125 84.0359H42.9766V83.4812C42.9766 83.0437 42.8542 82.6947 42.6094 82.4343C42.3646 82.1687 41.9922 82.0359 41.4922 82.0359C41.0599 82.0359 40.7057 82.1453 40.4297 82.364C40.1536 82.5776 40.0156 82.851 40.0156 83.1843H38.1172C38.1172 82.7208 38.2708 82.2885 38.5781 81.8875C38.8854 81.4812 39.3021 81.1635 39.8281 80.9343C40.3594 80.7052 40.9505 80.5906 41.6016 80.5906C42.5911 80.5906 43.3802 80.8406 43.9688 81.3406C44.5573 81.8354 44.8594 82.5333 44.875 83.4343V87.2468C44.875 88.0072 44.9818 88.614 45.1953 89.0671V89.2H43.2578ZM41.1719 87.8328C41.5469 87.8328 41.8984 87.7416 42.2266 87.5593C42.5599 87.377 42.8099 87.1322 42.9766 86.825V85.2312H41.9531C41.25 85.2312 40.7214 85.3536 40.3672 85.5984C40.013 85.8432 39.8359 86.1895 39.8359 86.6375C39.8359 87.002 39.9557 87.2937 40.1953 87.5125C40.4401 87.726 40.7656 87.8328 41.1719 87.8328ZM52.9922 86.2703C52.9922 85.7703 52.8151 85.3848 52.4609 85.114C52.112 84.8432 51.4792 84.5697 50.5625 84.2937C49.6458 84.0177 48.9167 83.7104 48.375 83.3718C47.3385 82.7208 46.8203 81.8718 46.8203 80.825C46.8203 79.9083 47.1927 79.1531 47.9375 78.5593C48.6875 77.9656 49.6589 77.6687 50.8516 77.6687C51.6432 77.6687 52.349 77.8145 52.9688 78.1062C53.5885 78.3979 54.0755 78.8145 54.4297 79.3562C54.7839 79.8927 54.9609 80.489 54.9609 81.1453H52.9922C52.9922 80.5515 52.8047 80.088 52.4297 79.7546C52.0599 79.4161 51.5286 79.2468 50.8359 79.2468C50.1901 79.2468 49.6875 79.3848 49.3281 79.6609C48.974 79.9369 48.7969 80.3223 48.7969 80.8171C48.7969 81.2338 48.9896 81.5828 49.375 81.864C49.7604 82.1401 50.3958 82.4109 51.2812 82.6765C52.1667 82.9369 52.8776 83.2364 53.4141 83.575C53.9505 83.9083 54.3438 84.2937 54.5938 84.7312C54.8438 85.1635 54.9688 85.6713 54.9688 86.2546C54.9688 87.2026 54.6042 87.9578 53.875 88.5203C53.151 89.0776 52.1667 89.3562 50.9219 89.3562C50.099 89.3562 49.3411 89.2052 48.6484 88.9031C47.9609 88.5958 47.4245 88.1739 47.0391 87.6375C46.6589 87.101 46.4688 86.476 46.4688 85.7625H48.4453C48.4453 86.4083 48.6589 86.9083 49.0859 87.2625C49.513 87.6166 50.125 87.7937 50.9219 87.7937C51.6094 87.7937 52.125 87.6557 52.4688 87.3796C52.8177 87.0984 52.9922 86.7286 52.9922 86.2703ZM59.9922 87.8406C60.4661 87.8406 60.8594 87.7026 61.1719 87.4265C61.4844 87.1505 61.651 86.8093 61.6719 86.4031H63.4609C63.4401 86.9291 63.276 87.4213 62.9688 87.8796C62.6615 88.3328 62.2448 88.6921 61.7188 88.9578C61.1927 89.2234 60.625 89.3562 60.0156 89.3562C58.8333 89.3562 57.8958 88.9734 57.2031 88.2078C56.5104 87.4421 56.1641 86.3848 56.1641 85.0359V84.8406C56.1641 83.5541 56.5078 82.5255 57.1953 81.7546C57.8828 80.9786 58.8203 80.5906 60.0078 80.5906C61.013 80.5906 61.8307 80.8848 62.4609 81.4734C63.0964 82.0567 63.4297 82.825 63.4609 83.7781H61.6719C61.651 83.2937 61.4844 82.8953 61.1719 82.5828C60.8646 82.2703 60.4714 82.114 59.9922 82.114C59.3776 82.114 58.9036 82.338 58.5703 82.7859C58.237 83.2286 58.0677 83.9031 58.0625 84.8093V85.114C58.0625 86.0307 58.2266 86.7156 58.5547 87.1687C58.888 87.6166 59.3672 87.8406 59.9922 87.8406ZM69.3203 82.4812C69.0703 82.4395 68.8125 82.4187 68.5469 82.4187C67.6771 82.4187 67.0911 82.752 66.7891 83.4187V89.2H64.8906V80.7468H66.7031L66.75 81.6921C67.2083 80.9578 67.8438 80.5906 68.6562 80.5906C68.9271 80.5906 69.151 80.627 69.3281 80.7L69.3203 82.4812ZM72.5391 89.2H70.6406V80.7468H72.5391V89.2ZM70.5234 78.5515C70.5234 78.2598 70.6146 78.0177 70.7969 77.825C70.9844 77.6322 71.25 77.5359 71.5938 77.5359C71.9375 77.5359 72.2031 77.6322 72.3906 77.825C72.5781 78.0177 72.6719 78.2598 72.6719 78.5515C72.6719 78.838 72.5781 79.0776 72.3906 79.2703C72.2031 79.4578 71.9375 79.5515 71.5938 79.5515C71.25 79.5515 70.9844 79.4578 70.7969 79.2703C70.6146 79.0776 70.5234 78.838 70.5234 78.5515ZM82.0156 85.0593C82.0156 86.3666 81.7188 87.4109 81.125 88.1921C80.5312 88.9682 79.7344 89.3562 78.7344 89.3562C77.8073 89.3562 77.0651 89.0515 76.5078 88.4421V92.45H74.6094V80.7468H76.3594L76.4375 81.6062C76.9948 80.9291 77.7526 80.5906 78.7109 80.5906C79.7422 80.5906 80.5495 80.976 81.1328 81.7468C81.7214 82.5125 82.0156 83.5776 82.0156 84.9421V85.0593ZM80.125 84.8953C80.125 84.0515 79.9557 83.3822 79.6172 82.8875C79.2839 82.3927 78.8047 82.1453 78.1797 82.1453C77.4036 82.1453 76.8464 82.4656 76.5078 83.1062V86.8562C76.8516 87.5125 77.4141 87.8406 78.1953 87.8406C78.7995 87.8406 79.2708 87.5984 79.6094 87.114C79.9531 86.6244 80.125 85.8848 80.125 84.8953ZM86.0078 78.6921V80.7468H87.5V82.1531H86.0078V86.8718C86.0078 87.1947 86.0703 87.4291 86.1953 87.575C86.3255 87.7156 86.5547 87.7859 86.8828 87.7859C87.1016 87.7859 87.3229 87.7598 87.5469 87.7078V89.1765C87.1146 89.2963 86.6979 89.3562 86.2969 89.3562C84.8385 89.3562 84.1094 88.5515 84.1094 86.9421V82.1531H82.7188V80.7468H84.1094V78.6921H86.0078Z" fill="#E2E8F0"/>
<g clip-path="url(#clip0)">
<path d="M28.8 13.6001H68.8V53.6001H28.8V13.6001Z" fill="#0EA5E9"/>
<path d="M39.3175 47.027L42.3784 45.1745C42.9691 46.2215 43.5063 47.1075 44.7948 47.1075C46.03 47.1075 46.8089 46.6243 46.8089 44.745V31.964H50.5678V44.7981C50.5678 48.6914 48.2856 50.4636 44.9559 50.4636C41.9489 50.4636 40.2034 48.9062 39.3173 47.0267L39.3175 47.027ZM52.6095 46.6242L55.6702 44.8522C56.4759 46.1679 57.5231 47.1345 59.3756 47.1345C60.9333 47.1345 61.9264 46.3557 61.9264 45.2817C61.9264 43.9929 60.9061 43.5364 59.1877 42.7848L58.2481 42.3817C55.5361 41.2275 53.7372 39.7775 53.7372 36.7165C53.7372 33.8971 55.8852 31.749 59.2416 31.749C61.6313 31.749 63.3497 32.5815 64.5847 34.7564L61.6578 36.6361C61.0133 35.4815 60.3155 35.0251 59.2414 35.0251C58.1405 35.0251 57.4423 35.7232 57.4423 36.6361C57.4423 37.7637 58.1405 38.2204 59.7514 38.9186L60.6911 39.3212C63.8864 40.6907 65.6853 42.0868 65.6853 45.2281C65.6853 48.6115 63.0272 50.464 59.4561 50.464C55.9656 50.464 53.7102 48.7993 52.6094 46.6243" fill="#1E293B"/>
</g>
<defs>
<clipPath id="clip0">
<rect width="40" height="40" fill="white" transform="translate(28.8 13.6001)"/>
</clipPath>
</defs>
</svg>
