<svg width="21" height="20" viewBox="0 0 21 20" fill="none" xmlns="http://www.w3.org/2000/svg">
<path d="M18.3246 1.25H2.61371C1.89381 1.25 1.3089 1.81641 1.3089 2.51172V17.4883C1.3089 18.1836 1.89381 18.75 2.61371 18.75H18.3246C19.0445 18.75 19.6335 18.1836 19.6335 17.4883V2.51172C19.6335 1.81641 19.0445 1.25 18.3246 1.25ZM6.84718 16.25H4.13122V7.89844H6.85127V16.25H6.84718ZM5.4892 6.75781C4.61796 6.75781 3.91443 6.08203 3.91443 5.25391C3.91443 4.42578 4.61796 3.75 5.4892 3.75C6.35635 3.75 7.06397 4.42578 7.06397 5.25391C7.06397 6.08594 6.36044 6.75781 5.4892 6.75781ZM17.028 16.25H14.312V12.1875C14.312 11.2188 14.2916 9.97266 12.9008 9.97266C11.4856 9.97266 11.2688 11.0273 11.2688 12.1172V16.25H8.55285V7.89844H11.1584V9.03906H11.1952C11.5592 8.38281 12.4468 7.69141 13.768 7.69141C16.5167 7.69141 17.028 9.42188 17.028 11.6719V16.25Z" fill="#E4E4E7"/>
</svg>
