<svg width="100" height="100" viewBox="0 0 100 100" fill="none" xmlns="http://www.w3.org/2000/svg">
<rect width="100" height="100" rx="10" fill="#1E293B"/>
<path d="M17.1484 89.2H15.1719L10.1016 81.1296V89.2H8.125V77.825H10.1016L15.1875 85.9265V77.825H17.1484V89.2ZM24.3516 89.2C24.2682 89.0385 24.1953 88.7755 24.1328 88.4109C23.5286 89.0411 22.7891 89.3562 21.9141 89.3562C21.0651 89.3562 20.3724 89.114 19.8359 88.6296C19.2995 88.1453 19.0312 87.5463 19.0312 86.8328C19.0312 85.9317 19.3646 85.2416 20.0312 84.7625C20.7031 84.2781 21.6615 84.0359 22.9062 84.0359H24.0703V83.4812C24.0703 83.0437 23.9479 82.6947 23.7031 82.4343C23.4583 82.1687 23.0859 82.0359 22.5859 82.0359C22.1536 82.0359 21.7995 82.1453 21.5234 82.364C21.2474 82.5776 21.1094 82.851 21.1094 83.1843H19.2109C19.2109 82.7208 19.3646 82.2885 19.6719 81.8875C19.9792 81.4812 20.3958 81.1635 20.9219 80.9343C21.4531 80.7052 22.0443 80.5906 22.6953 80.5906C23.6849 80.5906 24.474 80.8406 25.0625 81.3406C25.651 81.8354 25.9531 82.5333 25.9688 83.4343V87.2468C25.9688 88.0072 26.0755 88.614 26.2891 89.0671V89.2H24.3516ZM22.2656 87.8328C22.6406 87.8328 22.9922 87.7416 23.3203 87.5593C23.6536 87.377 23.9036 87.1322 24.0703 86.825V85.2312H23.0469C22.3438 85.2312 21.8151 85.3536 21.4609 85.5984C21.1068 85.8432 20.9297 86.1895 20.9297 86.6375C20.9297 87.002 21.0495 87.2937 21.2891 87.5125C21.5339 87.726 21.8594 87.8328 22.2656 87.8328ZM29.7422 80.7468L29.7969 81.6296C30.3906 80.9369 31.2031 80.5906 32.2344 80.5906C33.3646 80.5906 34.138 81.0229 34.5547 81.8875C35.1693 81.0229 36.0339 80.5906 37.1484 80.5906C38.0807 80.5906 38.7734 80.8484 39.2266 81.364C39.6849 81.8796 39.9193 82.6401 39.9297 83.6453V89.2H38.0312V83.7C38.0312 83.1635 37.9141 82.7703 37.6797 82.5203C37.4453 82.2703 37.0573 82.1453 36.5156 82.1453C36.0833 82.1453 35.7292 82.2625 35.4531 82.4968C35.1823 82.726 34.9922 83.0281 34.8828 83.4031L34.8906 89.2H32.9922V83.6375C32.9661 82.6427 32.4583 82.1453 31.4688 82.1453C30.7083 82.1453 30.1693 82.4552 29.8516 83.075V89.2H27.9531V80.7468H29.7422ZM45.6016 89.3562C44.3984 89.3562 43.4219 88.9786 42.6719 88.2234C41.9271 87.463 41.5547 86.4526 41.5547 85.1921V84.9578C41.5547 84.114 41.7161 83.3614 42.0391 82.7C42.3672 82.0333 42.8255 81.5151 43.4141 81.1453C44.0026 80.7755 44.6589 80.5906 45.3828 80.5906C46.5339 80.5906 47.4219 80.9578 48.0469 81.6921C48.6771 82.4265 48.9922 83.4656 48.9922 84.8093V85.575H43.4688C43.526 86.2729 43.7578 86.825 44.1641 87.2312C44.5755 87.6375 45.0911 87.8406 45.7109 87.8406C46.5807 87.8406 47.2891 87.489 47.8359 86.7859L48.8594 87.7625C48.5208 88.2677 48.0677 88.6609 47.5 88.9421C46.9375 89.2182 46.3047 89.3562 45.6016 89.3562ZM45.375 82.114C44.8542 82.114 44.4323 82.2963 44.1094 82.6609C43.7917 83.0255 43.5885 83.5333 43.5 84.1843H47.1172V84.0437C47.0755 83.4083 46.9062 82.9291 46.6094 82.6062C46.3125 82.2781 45.901 82.114 45.375 82.114ZM53.9453 87.8406C54.4193 87.8406 54.8125 87.7026 55.125 87.4265C55.4375 87.1505 55.6042 86.8093 55.625 86.4031H57.4141C57.3932 86.9291 57.2292 87.4213 56.9219 87.8796C56.6146 88.3328 56.1979 88.6921 55.6719 88.9578C55.1458 89.2234 54.5781 89.3562 53.9688 89.3562C52.7865 89.3562 51.849 88.9734 51.1562 88.2078C50.4635 87.4421 50.1172 86.3848 50.1172 85.0359V84.8406C50.1172 83.5541 50.4609 82.5255 51.1484 81.7546C51.8359 80.9786 52.7734 80.5906 53.9609 80.5906C54.9661 80.5906 55.7839 80.8848 56.4141 81.4734C57.0495 82.0567 57.3828 82.825 57.4141 83.7781H55.625C55.6042 83.2937 55.4375 82.8953 55.125 82.5828C54.8177 82.2703 54.4245 82.114 53.9453 82.114C53.3307 82.114 52.8568 82.338 52.5234 82.7859C52.1901 83.2286 52.0208 83.9031 52.0156 84.8093V85.114C52.0156 86.0307 52.1797 86.7156 52.5078 87.1687C52.8411 87.6166 53.3203 87.8406 53.9453 87.8406ZM60.7188 81.6687C61.3385 80.95 62.1224 80.5906 63.0703 80.5906C64.8724 80.5906 65.7865 81.6192 65.8125 83.6765V89.2H63.9141V83.7468C63.9141 83.1635 63.7865 82.752 63.5312 82.5125C63.2812 82.2677 62.9115 82.1453 62.4219 82.1453C61.6615 82.1453 61.0938 82.4838 60.7188 83.1609V89.2H58.8203V77.2H60.7188V81.6687ZM71.4609 89.3562C70.2578 89.3562 69.2812 88.9786 68.5312 88.2234C67.7865 87.463 67.4141 86.4526 67.4141 85.1921V84.9578C67.4141 84.114 67.5755 83.3614 67.8984 82.7C68.2266 82.0333 68.6849 81.5151 69.2734 81.1453C69.862 80.7755 70.5182 80.5906 71.2422 80.5906C72.3932 80.5906 73.2812 80.9578 73.9062 81.6921C74.5365 82.4265 74.8516 83.4656 74.8516 84.8093V85.575H69.3281C69.3854 86.2729 69.6172 86.825 70.0234 87.2312C70.4349 87.6375 70.9505 87.8406 71.5703 87.8406C72.4401 87.8406 73.1484 87.489 73.6953 86.7859L74.7188 87.7625C74.3802 88.2677 73.9271 88.6609 73.3594 88.9421C72.7969 89.2182 72.1641 89.3562 71.4609 89.3562ZM71.2344 82.114C70.7135 82.114 70.2917 82.2963 69.9688 82.6609C69.651 83.0255 69.4479 83.5333 69.3594 84.1843H72.9766V84.0437C72.9349 83.4083 72.7656 82.9291 72.4688 82.6062C72.1719 82.2781 71.7604 82.114 71.2344 82.114ZM81.3828 89.2C81.2995 89.0385 81.2266 88.7755 81.1641 88.4109C80.5599 89.0411 79.8203 89.3562 78.9453 89.3562C78.0964 89.3562 77.4036 89.114 76.8672 88.6296C76.3307 88.1453 76.0625 87.5463 76.0625 86.8328C76.0625 85.9317 76.3958 85.2416 77.0625 84.7625C77.7344 84.2781 78.6927 84.0359 79.9375 84.0359H81.1016V83.4812C81.1016 83.0437 80.9792 82.6947 80.7344 82.4343C80.4896 82.1687 80.1172 82.0359 79.6172 82.0359C79.1849 82.0359 78.8307 82.1453 78.5547 82.364C78.2786 82.5776 78.1406 82.851 78.1406 83.1843H76.2422C76.2422 82.7208 76.3958 82.2885 76.7031 81.8875C77.0104 81.4812 77.4271 81.1635 77.9531 80.9343C78.4844 80.7052 79.0755 80.5906 79.7266 80.5906C80.7161 80.5906 81.5052 80.8406 82.0938 81.3406C82.6823 81.8354 82.9844 82.5333 83 83.4343V87.2468C83 88.0072 83.1068 88.614 83.3203 89.0671V89.2H81.3828ZM79.2969 87.8328C79.6719 87.8328 80.0234 87.7416 80.3516 87.5593C80.6849 87.377 80.9349 87.1322 81.1016 86.825V85.2312H80.0781C79.375 85.2312 78.8464 85.3536 78.4922 85.5984C78.138 85.8432 77.9609 86.1895 77.9609 86.6375C77.9609 87.002 78.0807 87.2937 78.3203 87.5125C78.5651 87.726 78.8906 87.8328 79.2969 87.8328ZM92.3906 85.0593C92.3906 86.3666 92.0938 87.4109 91.5 88.1921C90.9062 88.9682 90.1094 89.3562 89.1094 89.3562C88.1823 89.3562 87.4401 89.0515 86.8828 88.4421V92.45H84.9844V80.7468H86.7344L86.8125 81.6062C87.3698 80.9291 88.1276 80.5906 89.0859 80.5906C90.1172 80.5906 90.9245 80.976 91.5078 81.7468C92.0964 82.5125 92.3906 83.5776 92.3906 84.9421V85.0593ZM90.5 84.8953C90.5 84.0515 90.3307 83.3822 89.9922 82.8875C89.6589 82.3927 89.1797 82.1453 88.5547 82.1453C87.7786 82.1453 87.2214 82.4656 86.8828 83.1062V86.8562C87.2266 87.5125 87.7891 87.8406 88.5703 87.8406C89.1745 87.8406 89.6458 87.5984 89.9844 87.114C90.3281 86.6244 90.5 85.8848 90.5 84.8953Z" fill="#E2E8F0"/>
<g clip-path="url(#clip0)">
<path d="M75.4753 16.8C73.4784 16.8 71.7478 17.9276 70.8381 19.5738L70.7272 19.7993L66.5559 28.1432L61.2753 38.7197L64.7365 45.6429L64.9362 46.0263C65.4687 46.9734 66.2675 47.7627 67.2437 48.2363C68.22 47.7401 69.0187 46.9734 69.5512 46.0263L69.7509 45.6429L80.1125 24.8959L80.3565 24.3998C80.645 23.7232 80.8003 23.0016 80.8003 22.2123C80.8003 19.213 78.4262 16.8 75.4753 16.8V16.8ZM43.5031 26.8578L40.064 19.9572L39.8643 19.5738C39.3318 18.6267 38.5331 17.8374 37.5568 17.3638C36.5806 17.86 35.7818 18.6267 35.2493 19.5738L35.0718 19.9572L24.7103 40.7042L24.4662 41.2003C24.1778 41.8769 24.0225 42.5985 24.0225 43.3878C24.0225 46.3645 26.3965 48.8 29.3475 48.8C31.3443 48.8 33.075 47.6725 33.9847 46.0263L34.0956 45.8008L38.2668 37.4569L43.5253 26.8804L43.5031 26.8578Z" fill="#0369A1"/>
<path d="M75.475 16.8C73.4781 16.8 71.7253 17.9276 70.8378 19.5738L70.7269 19.7993L66.5556 28.1432L61.275 38.7197L64.7362 45.6429L64.9359 46.0263C65.4684 46.9734 66.2672 47.7627 67.2434 48.2363C68.2197 47.7401 69.0184 46.9734 69.5509 46.0263L69.7506 45.6429L80.1122 24.8959L80.3562 24.3998C80.6447 23.7232 80.8 23.0016 80.8 22.2123C80.8 19.213 78.4037 16.8 75.475 16.8V16.8Z" fill="url(#paint0_linear)"/>
<path d="M29.325 48.8C31.3219 48.8 33.0747 47.6724 33.9622 46.0262L34.0731 45.8007L38.2444 37.4568L43.525 26.8803L40.0638 19.9571L39.8641 19.5738C39.3316 18.6266 38.5328 17.8373 37.5566 17.3638C36.5803 17.8599 35.7816 18.6266 35.2491 19.5738L35.0716 19.9571L24.71 40.7041L24.4437 41.2228C24.1553 41.8994 24 42.621 24 43.4103C24 46.387 26.3741 48.8 29.325 48.8V48.8Z" fill="url(#paint1_linear)"/>
<path d="M43.5028 26.8578L40.0637 19.9572L39.864 19.5738C39.3315 18.6267 38.5328 17.8374 37.5565 17.3638C37.8672 17.206 38.2222 17.0707 38.555 16.9805C38.9765 16.8677 39.4425 16.8 39.8862 16.8H47.1637C49.1606 16.8226 50.8912 17.9276 51.8009 19.5738L51.9562 19.9572L61.2972 38.7423L64.7362 45.6429L64.9359 46.0263C65.4684 46.9734 66.2672 47.7627 67.2434 48.2363C66.9328 48.3941 66.5778 48.5294 66.245 48.6196C65.8234 48.7324 65.3575 48.8 64.8916 48.8H57.6584C55.6615 48.7775 53.9309 47.6725 53.0212 46.0263L52.8215 45.6429L43.5028 26.8578Z" fill="#0EA5E9"/>
</g>
<defs>
<linearGradient id="paint0_linear" x1="63.8761" y1="46.6471" x2="86.3294" y2="27.7675" gradientUnits="userSpaceOnUse">
<stop stop-color="#0369A1" stop-opacity="0"/>
<stop offset="1" stop-color="#0EA5E9" stop-opacity="0.211"/>
</linearGradient>
<linearGradient id="paint1_linear" x1="40.9134" y1="18.9483" x2="18.4601" y2="37.8278" gradientUnits="userSpaceOnUse">
<stop stop-color="#0EA5E9" stop-opacity="0.211"/>
<stop offset="1" stop-color="#0EA5E9" stop-opacity="0"/>
</linearGradient>
<clipPath id="clip0">
<rect x="24" y="16.8" width="56.8" height="32" rx="10" fill="white"/>
</clipPath>
</defs>
</svg>
