<svg width="100" height="100" viewBox="0 0 100 100" fill="none" xmlns="http://www.w3.org/2000/svg">
<rect width="100" height="100" rx="10" fill="#1E293B"/>
<path d="M33.0625 84.8171H30.8594V89.2H28.8828V77.825H32.8828C34.1953 77.825 35.2083 78.1192 35.9219 78.7078C36.6354 79.2963 36.9922 80.1479 36.9922 81.2625C36.9922 82.0229 36.8073 82.6609 36.4375 83.1765C36.0729 83.6869 35.5625 84.0802 34.9062 84.3562L37.4609 89.0984V89.2H35.3438L33.0625 84.8171ZM30.8594 83.2312H32.8906C33.5573 83.2312 34.0781 83.0645 34.4531 82.7312C34.8281 82.3927 35.0156 81.9317 35.0156 81.3484C35.0156 80.739 34.8411 80.2677 34.4922 79.9343C34.1484 79.601 33.6328 79.4291 32.9453 79.4187H30.8594V83.2312ZM42.4062 89.3562C41.2031 89.3562 40.2266 88.9786 39.4766 88.2234C38.7318 87.463 38.3594 86.4526 38.3594 85.1921V84.9578C38.3594 84.114 38.5208 83.3614 38.8438 82.7C39.1719 82.0333 39.6302 81.5151 40.2188 81.1453C40.8073 80.7755 41.4635 80.5906 42.1875 80.5906C43.3385 80.5906 44.2266 80.9578 44.8516 81.6921C45.4818 82.4265 45.7969 83.4656 45.7969 84.8093V85.575H40.2734C40.3307 86.2729 40.5625 86.825 40.9688 87.2312C41.3802 87.6375 41.8958 87.8406 42.5156 87.8406C43.3854 87.8406 44.0938 87.489 44.6406 86.7859L45.6641 87.7625C45.3255 88.2677 44.8724 88.6609 44.3047 88.9421C43.7422 89.2182 43.1094 89.3562 42.4062 89.3562ZM42.1797 82.114C41.6589 82.114 41.237 82.2963 40.9141 82.6609C40.5964 83.0255 40.3932 83.5333 40.3047 84.1843H43.9219V84.0437C43.8802 83.4083 43.7109 82.9291 43.4141 82.6062C43.1172 82.2781 42.7057 82.114 42.1797 82.114ZM46.9219 84.9109C46.9219 83.6088 47.224 82.5645 47.8281 81.7781C48.4323 80.9864 49.2422 80.5906 50.2578 80.5906C51.1536 80.5906 51.8776 80.9031 52.4297 81.5281V77.2H54.3281V89.2H52.6094L52.5156 88.325C51.9479 89.0125 51.1901 89.3562 50.2422 89.3562C49.2526 89.3562 48.4505 88.9578 47.8359 88.1609C47.2266 87.364 46.9219 86.2807 46.9219 84.9109ZM48.8203 85.075C48.8203 85.9343 48.9844 86.6062 49.3125 87.0906C49.6458 87.5697 50.1172 87.8093 50.7266 87.8093C51.5026 87.8093 52.0703 87.463 52.4297 86.7703V83.1609C52.0807 82.4838 51.5182 82.1453 50.7422 82.1453C50.1276 82.1453 49.6536 82.3901 49.3203 82.8796C48.987 83.364 48.8203 84.0958 48.8203 85.075ZM61.4297 88.3718C60.8724 89.0281 60.0807 89.3562 59.0547 89.3562C58.138 89.3562 57.4427 89.088 56.9688 88.5515C56.5 88.0151 56.2656 87.239 56.2656 86.2234V80.7468H58.1641V86.2C58.1641 87.2729 58.6094 87.8093 59.5 87.8093C60.4219 87.8093 61.0443 87.4786 61.3672 86.8171V80.7468H63.2656V89.2H61.4766L61.4297 88.3718ZM68.2344 83.5281L69.8438 80.7468H71.9531L69.3672 84.9109L72.0391 89.2H69.9453L68.2578 86.3093L66.5781 89.2H64.4688L67.1406 84.9109L64.5625 80.7468H66.6562L68.2344 83.5281Z" fill="#E2E8F0"/>
<g clip-path="url(#clip0)">
<path d="M58.7331 41.0531C60.3272 40.8857 61.5367 39.4917 61.4817 37.8187C61.4268 36.1458 60.0524 34.8075 58.4032 34.8075H58.2933C56.5889 34.8633 55.2696 36.3131 55.3247 38.0417C55.3797 38.8782 55.7094 39.6031 56.2043 40.105C54.3351 43.8413 51.4765 46.5737 47.1885 48.86C44.2749 50.4214 41.2514 50.9791 38.2279 50.5888C35.754 50.2541 33.8299 49.139 32.6203 47.2986C30.8613 44.5662 30.6964 41.6106 32.1808 38.6552C33.2253 36.5361 34.8743 34.9747 35.9189 34.194C35.699 33.4691 35.3691 32.2423 35.2042 31.3502C27.233 37.2054 28.0577 45.1239 30.4765 48.86C32.2906 51.6483 35.9739 53.377 40.042 53.377C41.1414 53.377 42.2408 53.2654 43.3404 52.9867C50.3771 51.5925 55.7096 47.3544 58.7331 41.0531V41.0531ZM68.4085 34.1384C64.2304 29.1753 58.0734 26.4429 51.0367 26.4429H50.1572C49.6624 25.4392 48.6179 24.7699 47.4634 24.7699H47.3534C45.6494 24.8257 44.3301 26.2755 44.3849 28.0043C44.4399 29.6772 45.8142 31.0156 47.4634 31.0156H47.5733C48.7827 30.9598 49.8273 30.1791 50.267 29.1195H51.2566C55.4347 29.1195 59.3927 30.3463 62.9662 32.7442C65.7148 34.5844 67.6939 36.9824 68.7933 39.882C69.7278 42.2241 69.6728 44.5104 68.6832 46.4622C67.1441 49.4176 64.5603 51.0349 61.1519 51.0349C58.9529 51.0349 56.864 50.3656 55.7644 49.8637C55.1598 50.4214 54.0602 51.3135 53.2905 51.8714C55.6546 52.9865 58.0734 53.6 60.3823 53.6C65.6598 53.6 69.5629 50.6444 71.0473 47.689C72.6414 44.4546 72.5314 38.8782 68.4085 34.1384V34.1384ZM40.4817 42.0009C40.5368 43.6739 41.9111 45.0121 43.5602 45.0121H43.6703C45.3745 44.9565 46.6938 43.5065 46.6388 41.7778C46.5839 40.1048 45.2094 38.7666 43.5602 38.7666H43.4504C43.3404 38.7666 43.1753 38.7666 43.0656 38.8223C40.8116 35.0303 39.8771 30.904 40.207 26.4428C40.4267 23.0969 41.5263 20.1971 43.4504 17.7992C45.0446 15.7359 48.1231 14.7322 50.2122 14.6766C56.0393 14.565 58.513 21.9258 58.6781 24.8814C59.3927 25.0486 60.6021 25.439 61.4268 25.7179C60.767 16.6842 55.2696 12 49.9923 12C45.0446 12 40.4817 15.6247 38.6675 20.978C36.1388 28.1158 37.788 34.9747 40.8665 40.3838C40.5918 40.7741 40.4267 41.3876 40.4817 42.001V42.0009Z" fill="#0EA5E9"/>
</g>
<defs>
<clipPath id="clip0">
<rect width="43.2" height="41.6" fill="white" transform="translate(28.8 12)"/>
</clipPath>
</defs>
</svg>
