<svg width="342" height="285" viewBox="0 0 342 285" fill="none" xmlns="http://www.w3.org/2000/svg">
<g clip-path="url(#clip0)">
<path d="M140.919 67.065H139.367V24.5858C139.367 21.3572 138.73 18.1601 137.492 15.1772C136.255 12.1943 134.442 9.484 132.155 7.20099C129.869 4.91799 127.155 3.10701 124.168 1.87146C121.181 0.635914 117.979 -1.01009e-05 114.746 1.20336e-10H24.6207C21.3874 -1.01009e-05 18.1859 0.635914 15.1988 1.87146C12.2116 3.10701 9.49747 4.91799 7.21122 7.201C4.92498 9.484 3.11143 12.1943 1.87413 15.1772C0.636822 18.1601 -5.05767e-06 21.3572 0 24.5858V257.63C-3.03459e-06 260.858 0.636827 264.055 1.87413 267.038C3.11144 270.021 4.92499 272.732 7.21123 275.015C9.49747 277.298 12.2116 279.109 15.1988 280.344C18.1859 281.58 21.3874 282.216 24.6207 282.216H114.746C117.979 282.216 121.181 281.58 124.168 280.344C127.155 279.109 129.869 277.298 132.155 275.015C134.442 272.732 136.255 270.021 137.492 267.038C138.73 264.055 139.367 260.858 139.367 257.63V97.3023H140.919V67.065Z" fill="#E6E6E6"/>
<path d="M115.739 6.39636H103.975C104.516 7.72087 104.723 9.15791 104.576 10.5809C104.43 12.0039 103.936 13.3691 103.137 14.5564C102.338 15.7436 101.259 16.7164 99.9945 17.3891C98.7303 18.0618 97.3198 18.4137 95.8873 18.4138H44.2557C42.8232 18.4137 41.4128 18.0618 40.1485 17.3891C38.8843 16.7164 37.8052 15.7436 37.0062 14.5564C36.2072 13.3691 35.7128 12.0039 35.5666 10.5809C35.4204 9.15791 35.627 7.72087 36.168 6.39636H25.1801C22.7655 6.39636 20.3746 6.87126 18.1439 7.79395C15.9131 8.71665 13.8862 10.0691 12.1789 11.774C10.4716 13.4789 9.11724 15.5029 8.19323 17.7305C7.26923 19.9581 6.79364 22.3456 6.79364 24.7567V257.459C6.79364 259.87 7.26922 262.257 8.19323 264.485C9.11723 266.713 10.4716 268.737 12.1789 270.441C13.8862 272.146 15.9131 273.499 18.1439 274.422C20.3746 275.344 22.7655 275.819 25.1801 275.819H115.739C118.154 275.819 120.545 275.344 122.776 274.422C125.006 273.499 127.033 272.146 128.741 270.441C130.448 268.737 131.802 266.713 132.726 264.485C133.65 262.257 134.126 259.87 134.126 257.459V24.7567C134.126 22.3456 133.65 19.9581 132.726 17.7305C131.802 15.5029 130.448 13.4789 128.741 11.774C127.033 10.0691 125.006 8.71665 122.776 7.79395C120.545 6.87126 118.154 6.39636 115.739 6.39636Z" fill="white"/>
<path d="M43.7793 53.7021H38.3722C38.1821 53.7021 37.9998 53.7776 37.8653 53.9118C37.7309 54.0461 37.6554 54.2281 37.6554 54.418V56.7879C37.6554 56.9778 37.7309 57.1599 37.8653 57.2941C37.9998 57.4284 38.1821 57.5038 38.3722 57.5038H39.2682V61.0548H42.8832V57.5038H43.7793C43.9694 57.5038 44.1517 57.4284 44.2861 57.2941C44.4206 57.1599 44.4961 56.9778 44.4961 56.7879V54.418C44.4961 54.2281 44.4206 54.0461 44.2861 53.9118C44.1517 53.7776 43.9694 53.7021 43.7793 53.7021Z" fill="#E6E6E6"/>
<path d="M49.195 75.3919C45.8835 70.5533 44.1907 64.7922 44.3589 58.934C44.3619 58.7988 44.318 58.6667 44.2345 58.5602C44.1511 58.4537 44.0334 58.3794 43.9012 58.3497V57.3257H38.1907V58.3355H38.112C37.9566 58.3357 37.8077 58.3975 37.6979 58.5074C37.5882 58.6173 37.5266 58.7662 37.5268 58.9214C37.5269 58.9356 37.5274 58.9498 37.5285 58.964C37.9783 65.2264 36.4592 70.8424 32.971 75.8119C32.7703 76.0975 32.6677 76.4404 32.6788 76.7892L33.3032 96.0769C33.3182 96.5071 33.499 96.9149 33.8079 97.2152C34.1168 97.5154 34.5299 97.685 34.9609 97.6884H47.8773C48.3133 97.6849 48.7306 97.5115 49.0405 97.2051C49.3503 96.8988 49.5281 96.4838 49.536 96.0485L49.7766 77.3217C49.7838 76.6343 49.5809 75.9612 49.195 75.3919Z" fill="#E6E6E6"/>
<path d="M47.1502 81.7987H35.9076C35.7411 81.7987 35.5767 81.8346 35.4255 81.9041C35.2743 81.9735 35.1399 82.0747 35.0315 82.2008C34.9231 82.3269 34.8434 82.475 34.7977 82.6348C34.752 82.7946 34.7414 82.9624 34.7667 83.1266L36.4657 94.154H46.2211L48.2847 83.1638C48.316 82.9973 48.3101 82.826 48.2676 82.6621C48.225 82.4981 48.1468 82.3455 48.0385 82.2152C47.9302 82.0849 47.7944 81.98 47.6409 81.908C47.4874 81.836 47.3199 81.7987 47.1502 81.7987Z" fill="white"/>
<path d="M103.97 111.481H98.5628C98.3727 111.481 98.1903 111.556 98.0559 111.691C97.9214 111.825 97.8459 112.007 97.8459 112.197V114.567C97.8459 114.757 97.9214 114.939 98.0559 115.073C98.1903 115.207 98.3727 115.283 98.5628 115.283H99.4588V118.834H103.074V115.283H103.97C104.16 115.283 104.342 115.207 104.477 115.073C104.611 114.939 104.687 114.757 104.687 114.567V112.197C104.687 112.007 104.611 111.825 104.477 111.691C104.342 111.556 104.16 111.481 103.97 111.481Z" fill="#E6E6E6"/>
<path d="M109.386 133.171C106.074 128.332 104.381 122.571 104.549 116.713C104.552 116.577 104.509 116.445 104.425 116.339C104.342 116.232 104.224 116.158 104.092 116.128V115.104H98.3813V116.114H98.3026C98.2257 116.114 98.1495 116.13 98.0784 116.159C98.0074 116.189 97.9429 116.232 97.8885 116.286C97.8342 116.341 97.7911 116.405 97.7617 116.476C97.7324 116.547 97.7173 116.623 97.7174 116.7C97.7174 116.714 97.718 116.728 97.719 116.743C98.1689 123.005 96.6498 128.621 93.1616 133.591C92.9609 133.876 92.8583 134.219 92.8693 134.568L93.4937 153.856C93.5088 154.286 93.6896 154.694 93.9985 154.994C94.3073 155.294 94.7204 155.464 95.1515 155.467H108.068C108.504 155.464 108.921 155.29 109.231 154.984C109.541 154.678 109.719 154.262 109.727 153.827L109.967 135.1C109.974 134.413 109.771 133.74 109.386 133.171Z" fill="#E6E6E6"/>
<path d="M107.341 139.577H96.0981C95.9317 139.577 95.7673 139.613 95.6161 139.683C95.4648 139.752 95.3305 139.853 95.2221 139.98C95.1137 140.106 95.034 140.254 94.9883 140.413C94.9426 140.573 94.932 140.741 94.9573 140.905L96.6562 151.933H106.412L108.475 140.942C108.507 140.776 108.501 140.605 108.458 140.441C108.416 140.277 108.337 140.124 108.229 139.994C108.121 139.864 107.985 139.759 107.831 139.687C107.678 139.615 107.51 139.577 107.341 139.577H107.341Z" fill="white"/>
<path d="M36.1777 193.163H33.6129C33.5227 193.163 33.4362 193.199 33.3724 193.263C33.3087 193.326 33.2728 193.413 33.2728 193.503V194.627C33.2728 194.717 33.3087 194.803 33.3724 194.867C33.4362 194.931 33.5227 194.966 33.6129 194.966H34.0379V196.651H35.7526V194.966H36.1777C36.2679 194.966 36.3543 194.931 36.4181 194.867C36.4819 194.803 36.5177 194.717 36.5177 194.627V193.503C36.5177 193.413 36.4819 193.326 36.4181 193.263C36.3543 193.199 36.2679 193.163 36.1777 193.163Z" fill="#E6E6E6"/>
<path d="M38.7466 203.451C37.1758 201.156 36.3728 198.424 36.4526 195.645C36.4541 195.581 36.4332 195.518 36.3936 195.467C36.3541 195.417 36.2982 195.382 36.2356 195.368V194.882H33.5268V195.361H33.4895C33.453 195.361 33.4168 195.368 33.3831 195.382C33.3494 195.396 33.3188 195.417 33.293 195.442C33.2673 195.468 33.2468 195.499 33.2329 195.533C33.219 195.566 33.2118 195.602 33.2119 195.639C33.2119 195.646 33.2121 195.652 33.2126 195.659C33.4627 198.494 32.6966 201.327 31.0508 203.651C30.9556 203.786 30.907 203.949 30.9122 204.114L31.2084 213.263C31.2155 213.467 31.3013 213.661 31.4478 213.803C31.5943 213.946 31.7903 214.026 31.9947 214.028H38.1216C38.3284 214.026 38.5263 213.944 38.6733 213.799C38.8203 213.653 38.9046 213.456 38.9084 213.25L39.0225 204.367C39.0259 204.041 38.9297 203.721 38.7466 203.451Z" fill="#E6E6E6"/>
<path d="M37.8648 206.815H32.0188V209.734H37.8648V206.815Z" fill="white"/>
<path d="M48.1169 193.163H45.5521C45.4619 193.163 45.3754 193.199 45.3116 193.263C45.2478 193.326 45.212 193.413 45.212 193.503V194.627C45.212 194.717 45.2478 194.803 45.3116 194.867C45.3754 194.931 45.4619 194.966 45.5521 194.966H45.9771V196.651H47.6918V194.966H48.1169C48.207 194.966 48.2935 194.931 48.3573 194.867C48.4211 194.803 48.4569 194.717 48.4569 194.627V193.503C48.4569 193.413 48.4211 193.326 48.3573 193.263C48.2935 193.199 48.207 193.163 48.1169 193.163Z" fill="#E6E6E6"/>
<path d="M50.6858 203.451C49.115 201.156 48.312 198.424 48.3918 195.645C48.3932 195.581 48.3724 195.518 48.3328 195.467C48.2933 195.417 48.2374 195.382 48.1747 195.368V194.882H45.466V195.361H45.4286C45.3921 195.361 45.356 195.368 45.3223 195.382C45.2886 195.396 45.258 195.417 45.2322 195.442C45.2064 195.468 45.186 195.499 45.1721 195.533C45.1582 195.566 45.151 195.602 45.1511 195.639C45.1511 195.646 45.1513 195.652 45.1518 195.659C45.4019 198.494 44.6358 201.327 42.99 203.651C42.8948 203.786 42.8462 203.949 42.8514 204.114L43.1476 213.263C43.1547 213.467 43.2405 213.661 43.387 213.803C43.5335 213.946 43.7294 214.026 43.9339 214.028H50.0607C50.2675 214.026 50.4655 213.944 50.6125 213.799C50.7595 213.653 50.8438 213.456 50.8476 213.25L50.9617 204.367C50.9651 204.041 50.8688 203.721 50.6858 203.451Z" fill="#E6E6E6"/>
<path d="M49.804 206.815H43.958V209.734H49.804V206.815Z" fill="white"/>
<path d="M60.0561 193.163H57.4913C57.4011 193.163 57.3146 193.199 57.2508 193.263C57.187 193.326 57.1512 193.413 57.1512 193.503V194.627C57.1512 194.717 57.187 194.803 57.2508 194.867C57.3146 194.931 57.4011 194.966 57.4913 194.966H57.9163V196.651H59.631V194.966H60.0561C60.1462 194.966 60.2327 194.931 60.2965 194.867C60.3603 194.803 60.3961 194.717 60.3961 194.627V193.503C60.3961 193.413 60.3603 193.326 60.2965 193.263C60.2327 193.199 60.1462 193.163 60.0561 193.163Z" fill="#E6E6E6"/>
<path d="M62.625 203.451C61.0542 201.156 60.2512 198.424 60.331 195.645C60.3324 195.581 60.3116 195.518 60.272 195.467C60.2324 195.417 60.1766 195.382 60.1139 195.368V194.882H57.4052V195.361H57.3678C57.3313 195.361 57.2952 195.368 57.2615 195.382C57.2278 195.396 57.1972 195.417 57.1714 195.442C57.1456 195.468 57.1252 195.499 57.1113 195.533C57.0973 195.566 57.0902 195.602 57.0903 195.639C57.0903 195.646 57.0905 195.652 57.091 195.659C57.341 198.494 56.575 201.327 54.9292 203.651C54.834 203.786 54.7854 203.949 54.7906 204.114L55.0868 213.263C55.0939 213.467 55.1796 213.661 55.3262 213.803C55.4727 213.946 55.6686 214.026 55.8731 214.028H61.9999C62.2067 214.026 62.4047 213.944 62.5517 213.799C62.6987 213.653 62.783 213.456 62.7868 213.25L62.9009 204.367C62.9043 204.041 62.808 203.721 62.625 203.451Z" fill="#E6E6E6"/>
<path d="M61.7432 206.815H55.8972V209.734H61.7432V206.815Z" fill="white"/>
<path d="M94.5766 170.811H89.1696C89.0754 170.811 88.9822 170.829 88.8952 170.865C88.8083 170.901 88.7292 170.954 88.6627 171.02C88.5961 171.087 88.5433 171.166 88.5073 171.253C88.4712 171.34 88.4527 171.433 88.4527 171.527V173.897C88.4527 174.086 88.5282 174.269 88.6627 174.403C88.7971 174.537 88.9794 174.612 89.1696 174.612H90.0656V178.163H93.6806V174.612H94.5766C94.7667 174.612 94.949 174.537 95.0835 174.403C95.2179 174.269 95.2934 174.086 95.2934 173.897V171.527C95.2934 171.433 95.2749 171.34 95.2389 171.253C95.2028 171.166 95.15 171.087 95.0835 171.02C95.0169 170.954 94.9379 170.901 94.8509 170.865C94.7639 170.829 94.6707 170.811 94.5766 170.811Z" fill="#E6E6E6"/>
<path d="M99.9923 192.5C96.6808 187.662 94.988 181.901 95.1562 176.042C95.1592 175.907 95.1153 175.775 95.0319 175.669C94.9484 175.562 94.8307 175.488 94.6986 175.458V174.434H88.9881V175.444H88.9094C88.8324 175.444 88.7563 175.459 88.6852 175.489C88.6141 175.518 88.5496 175.562 88.4953 175.616C88.4409 175.67 88.3978 175.735 88.3685 175.806C88.3391 175.877 88.3241 175.953 88.3242 176.03C88.3242 176.044 88.3247 176.058 88.3258 176.072C88.7757 182.335 87.2565 187.951 83.7683 192.92C83.5676 193.206 83.4651 193.549 83.4761 193.898L84.1005 213.185C84.1155 213.616 84.2963 214.023 84.6052 214.324C84.9141 214.624 85.3272 214.794 85.7583 214.797H98.6746C99.1106 214.793 99.528 214.62 99.8378 214.314C100.148 214.007 100.325 213.592 100.333 213.157L100.574 194.43C100.581 193.743 100.378 193.07 99.9923 192.5Z" fill="#E6E6E6"/>
<path d="M97.9476 198.907H86.7049C86.5385 198.907 86.374 198.943 86.2228 199.013C86.0716 199.082 85.9372 199.183 85.8289 199.309C85.7205 199.435 85.6407 199.584 85.595 199.743C85.5493 199.903 85.5388 200.071 85.5641 200.235L87.263 211.263H97.0185L99.0821 200.272C99.1134 200.106 99.1075 199.935 99.0649 199.771C99.0224 199.607 98.9441 199.454 98.8358 199.324C98.7275 199.193 98.5918 199.089 98.4382 199.017C98.2847 198.945 98.1172 198.907 97.9476 198.907Z" fill="white"/>
<path d="M97.5284 100.171H65.2974C67.5508 88.0054 67.0323 73.3147 65.2974 57.5159H97.5284C95.8396 73.3148 95.335 88.0055 97.5284 100.171Z" fill="#E6E6E6"/>
<path d="M81.6071 85.4359C85.8964 85.4359 89.3736 81.9636 89.3736 77.6803C89.3736 73.3971 85.8964 69.9248 81.6071 69.9248C77.3177 69.9248 73.8405 73.3971 73.8405 77.6803C73.8405 81.9636 77.3177 85.4359 81.6071 85.4359Z" fill="white"/>
<path d="M68.0156 156.787H35.7846C38.038 144.621 37.5195 129.93 35.7846 114.131H68.0156C66.3268 129.93 65.8222 144.621 68.0156 156.787Z" fill="#E6E6E6"/>
<path d="M52.0943 142.051C56.3836 142.051 59.8608 138.579 59.8608 134.296C59.8608 130.012 56.3836 126.54 52.0943 126.54C47.8049 126.54 44.3277 130.012 44.3277 134.296C44.3277 138.579 47.8049 142.051 52.0943 142.051Z" fill="white"/>
<path d="M115.78 102.886H83.5487C85.8021 90.7199 85.2837 76.0292 83.5487 60.2303H115.78C114.091 76.0293 113.586 90.7199 115.78 102.886Z" fill="#E6E6E6"/>
<path d="M99.8584 88.1502C104.148 88.1502 107.625 84.678 107.625 80.3947C107.625 76.1114 104.148 72.6392 99.8584 72.6392C95.5691 72.6392 92.0919 76.1114 92.0919 80.3947C92.0919 84.678 95.5691 88.1502 99.8584 88.1502Z" fill="white"/>
<path d="M115.78 100.947H83.5487C85.8021 88.781 85.2837 74.0902 83.5487 58.2914H115.78C114.091 74.0903 113.586 88.781 115.78 100.947Z" fill="#E6E6E6"/>
<path d="M99.8584 86.2114C104.148 86.2114 107.625 82.7391 107.625 78.4558C107.625 74.1726 104.148 70.7003 99.8584 70.7003C95.5691 70.7003 92.0919 74.1726 92.0919 78.4558C92.0919 82.7391 95.5691 86.2114 99.8584 86.2114Z" fill="white"/>
<path d="M115.78 102.886H83.5487C85.8021 90.7199 85.2837 76.0292 83.5487 60.2303H115.78C114.091 76.0293 113.586 90.7199 115.78 102.886Z" fill="#E6E6E6"/>
<path d="M99.8584 88.1502C104.148 88.1502 107.625 84.678 107.625 80.3947C107.625 76.1114 104.148 72.6392 99.8584 72.6392C95.5691 72.6392 92.0919 76.1114 92.0919 80.3947C92.0919 84.678 95.5691 88.1502 99.8584 88.1502Z" fill="white"/>
<path d="M123.158 97.8447H17.5332V109.478H123.158V97.8447Z" fill="#E6E6E6"/>
<path d="M123.158 155.623H17.5332V167.257H123.158V155.623Z" fill="#E6E6E6"/>
<path d="M123.158 213.402H17.5332V225.036H123.158V213.402Z" fill="#E6E6E6"/>
<path d="M306.897 260.598L280.582 242.012C289.457 233.379 297.529 221.086 305.249 207.187L331.563 225.773C321.048 237.698 312.141 249.401 306.897 260.598Z" fill="#0EA5E9"/>
<path d="M306.904 240.81C311.193 240.81 314.67 237.338 314.67 233.055C314.67 228.772 311.193 225.299 306.904 225.299C302.615 225.299 299.137 228.772 299.137 233.055C299.137 237.338 302.615 240.81 306.904 240.81Z" fill="white"/>
<path d="M179.959 175.788H177.071C176.969 175.788 176.872 175.828 176.8 175.9C176.728 175.972 176.688 176.069 176.688 176.17V177.436C176.688 177.487 176.698 177.536 176.717 177.583C176.736 177.629 176.764 177.671 176.8 177.707C176.835 177.742 176.878 177.77 176.924 177.79C176.971 177.809 177.02 177.819 177.071 177.819H177.549V179.716H179.48V177.819H179.959C180.061 177.819 180.158 177.778 180.23 177.707C180.302 177.635 180.342 177.538 180.342 177.436V176.17C180.342 176.069 180.302 175.972 180.23 175.9C180.158 175.828 180.061 175.788 179.959 175.788Z" fill="#E6E6E6"/>
<path d="M182.852 187.375C181.083 184.79 180.179 181.712 180.269 178.583C180.27 178.51 180.247 178.44 180.202 178.383C180.158 178.326 180.095 178.286 180.024 178.271V177.724H176.974V178.263H176.932C176.891 178.263 176.85 178.271 176.812 178.287C176.774 178.303 176.739 178.326 176.71 178.355C176.681 178.384 176.658 178.418 176.643 178.456C176.627 178.494 176.619 178.535 176.619 178.576C176.619 178.584 176.619 178.591 176.62 178.599C176.901 181.792 176.039 184.982 174.185 187.599C174.078 187.752 174.023 187.935 174.029 188.121L174.363 198.425C174.371 198.655 174.467 198.873 174.632 199.033C174.797 199.193 175.018 199.284 175.248 199.286H182.148C182.381 199.284 182.604 199.191 182.77 199.028C182.935 198.864 183.03 198.642 183.035 198.41L183.163 188.406C183.167 188.038 183.058 187.679 182.852 187.375Z" fill="#0EA5E9"/>
<path opacity="0.2" d="M179.357 176.2C179.357 176.419 179.27 176.629 179.115 176.784C178.96 176.938 178.75 177.025 178.531 177.025C178.312 177.025 178.102 176.938 177.947 176.784C177.792 176.629 177.705 176.419 177.705 176.2" fill="black"/>
<path d="M181.508 189.36H175.683V193.238H181.508V189.36Z" fill="white"/>
<path d="M271.367 216.04H265.96C265.77 216.04 265.588 216.116 265.453 216.25C265.319 216.384 265.243 216.566 265.243 216.756V219.126C265.243 219.316 265.319 219.498 265.453 219.632C265.588 219.767 265.77 219.842 265.96 219.842H266.856V223.393H270.471V219.842H271.367C271.557 219.842 271.74 219.767 271.874 219.632C272.008 219.498 272.084 219.316 272.084 219.126V216.756C272.084 216.566 272.008 216.384 271.874 216.25C271.74 216.116 271.557 216.04 271.367 216.04Z" fill="#E6E6E6"/>
<path d="M276.783 237.73C273.471 232.892 271.779 227.13 271.947 221.272C271.95 221.137 271.906 221.005 271.822 220.898C271.739 220.792 271.621 220.718 271.489 220.688V219.664H265.779V220.674H265.7C265.623 220.674 265.547 220.689 265.476 220.719C265.405 220.748 265.34 220.791 265.286 220.846C265.231 220.9 265.188 220.965 265.159 221.036C265.13 221.107 265.115 221.183 265.115 221.26C265.115 221.274 265.115 221.288 265.116 221.302C265.566 227.565 264.047 233.181 260.559 238.15C260.358 238.436 260.256 238.779 260.267 239.127L260.891 258.415C260.906 258.845 261.087 259.253 261.396 259.553C261.705 259.854 262.118 260.023 262.549 260.027H275.465C275.901 260.023 276.319 259.85 276.628 259.543C276.938 259.237 277.116 258.822 277.124 258.387L277.365 239.66C277.372 238.973 277.169 238.299 276.783 237.73Z" fill="#0EA5E9"/>
<path opacity="0.2" d="M270.24 216.813C270.24 217.222 270.077 217.615 269.787 217.905C269.497 218.194 269.104 218.357 268.693 218.357C268.283 218.357 267.89 218.194 267.6 217.905C267.31 217.615 267.147 217.222 267.147 216.813" fill="black"/>
<path d="M274.738 244.137H263.495C263.329 244.137 263.165 244.173 263.013 244.242C262.862 244.312 262.728 244.413 262.619 244.539C262.511 244.665 262.431 244.813 262.386 244.973C262.34 245.133 262.329 245.301 262.355 245.465L264.054 256.492H273.809L275.873 245.502C275.904 245.336 275.898 245.164 275.855 245C275.813 244.836 275.735 244.684 275.626 244.554C275.518 244.423 275.382 244.318 275.229 244.246C275.075 244.174 274.908 244.137 274.738 244.137Z" fill="white"/>
<path d="M255.94 260.568H223.709C225.962 248.402 225.444 233.711 223.709 217.912H255.94C254.251 233.711 253.747 248.402 255.94 260.568Z" fill="#0EA5E9"/>
<path d="M240.019 245.832C244.308 245.832 247.785 242.36 247.785 238.077C247.785 233.793 244.308 230.321 240.019 230.321C235.729 230.321 232.252 233.793 232.252 238.077C232.252 242.36 235.729 245.832 240.019 245.832Z" fill="white"/>
<path d="M124.107 126.325L131.343 125.668L135.947 114.502L127.725 109.904L124.107 126.325Z" fill="#FFB8B8"/>
<path d="M190.511 156.98C190.752 156.381 190.846 155.733 190.787 155.09C190.728 154.447 190.516 153.828 190.17 153.282C189.824 152.737 189.353 152.282 188.796 151.954C188.239 151.626 187.612 151.435 186.967 151.397L175.733 150.728L174.079 156.221L185.644 159.392C186.61 159.657 187.641 159.558 188.538 159.113C189.436 158.668 190.138 157.909 190.511 156.98Z" fill="#FFB8B8"/>
<path d="M178.448 159.485L178.324 149.178L153.37 145.202L134.146 123.185C133.146 122.039 131.764 121.294 130.256 121.089C128.748 120.883 127.217 121.23 125.945 122.065C125.175 122.571 124.526 123.239 124.043 124.023C123.561 124.807 123.256 125.687 123.152 126.601C123.047 127.515 123.145 128.441 123.438 129.314C123.731 130.186 124.213 130.984 124.849 131.65L140.709 151.14L178.448 159.485Z" fill="#575A89"/>
<path d="M118.516 275.431H125.094L141.409 201.769L158.312 224.524L168.179 273.789H174.428L173.112 220.912L151.076 164.422H129.369C123.437 175.143 118.784 186.193 124.107 197.593L118.516 275.431Z" fill="#494585"/>
<path d="M164.146 279.905C164.074 280.137 164.051 280.382 164.081 280.624C164.11 280.866 164.191 281.098 164.318 281.307C164.445 281.515 164.614 281.693 164.815 281.831C165.017 281.968 165.245 282.062 165.485 282.104L181.581 284.956C182.217 285.073 182.874 284.952 183.427 284.619C183.98 284.285 184.392 283.76 184.585 283.144C184.773 282.555 184.747 281.919 184.511 281.347C184.276 280.776 183.846 280.305 183.298 280.019C179.759 278.204 176.713 275.56 174.421 272.312C172.652 273.957 170.675 273.803 168.575 272.59L166.348 272.868L164.146 279.905Z" fill="#83829C"/>
<path d="M115.47 279.905C115.398 280.137 115.375 280.382 115.405 280.624C115.434 280.866 115.515 281.098 115.642 281.307C115.769 281.515 115.938 281.693 116.139 281.831C116.341 281.968 116.569 282.062 116.809 282.104L132.905 284.956C133.541 285.073 134.198 284.952 134.751 284.619C135.304 284.285 135.716 283.76 135.909 283.144C136.097 282.555 136.071 281.919 135.835 281.347C135.6 280.776 135.17 280.305 134.622 280.019C131.083 278.204 128.037 275.56 125.745 272.312C123.976 273.957 121.999 273.803 119.899 272.59L117.672 272.868L115.47 279.905Z" fill="#83829C"/>
<path d="M136.112 118.607C141.198 118.607 145.321 114.49 145.321 109.411C145.321 104.332 141.198 100.215 136.112 100.215C131.026 100.215 126.903 104.332 126.903 109.411C126.903 114.49 131.026 118.607 136.112 118.607Z" fill="#FFB8B8"/>
<path d="M127.889 166.886L151.898 166.229L144.848 144.069C149.229 137.054 144.819 130.047 138.578 123.041L133.645 119.756L125.752 119.1C122.334 122.751 120.464 127.582 120.533 132.58C120.69 143.281 122.587 154.932 127.889 166.886Z" fill="#575A89"/>
<path d="M183.051 181.802C183.509 181.346 183.851 180.787 184.049 180.173C184.248 179.559 184.298 178.906 184.195 178.269C184.091 177.632 183.838 177.028 183.455 176.508C183.072 175.988 182.571 175.566 181.993 175.277L171.928 170.249L168.243 174.649L177.626 182.108C178.41 182.731 179.397 183.044 180.397 182.988C181.398 182.932 182.343 182.509 183.051 181.802Z" fill="#FFB8B8"/>
<path d="M170.974 179.366L174.921 169.842L153.545 156.383L144.545 128.59C144.076 127.144 143.099 125.916 141.794 125.134C140.489 124.353 138.944 124.07 137.446 124.338C136.539 124.501 135.679 124.861 134.926 125.392C134.173 125.923 133.547 126.612 133.091 127.412C132.634 128.211 132.359 129.101 132.285 130.018C132.211 130.935 132.34 131.858 132.662 132.72L139.565 156.869L170.974 179.366Z" fill="#575A89"/>
<path d="M120.983 105.798C120.983 109.377 123.31 114.918 126.245 117.293C128.22 118.891 130.83 118.824 131.836 116.636C132.868 114.392 136.427 109.117 142.689 105.798C151.038 101.375 139.729 93.8062 131.836 94.9602C125.905 95.8274 120.983 99.8126 120.983 105.798Z" fill="#575A89"/>
<path d="M126.574 100.872C130.207 100.872 133.152 97.9311 133.152 94.3034C133.152 90.6757 130.207 87.7349 126.574 87.7349C122.941 87.7349 119.996 90.6757 119.996 94.3034C119.996 97.9311 122.941 100.872 126.574 100.872Z" fill="#575A89"/>
<path d="M134.138 92.0043C134.138 90.3483 133.51 88.7538 132.382 87.5403C131.254 86.3267 129.708 85.5839 128.054 85.4607C128.217 85.4485 128.381 85.4358 128.547 85.4358C130.292 85.4358 131.965 86.1278 133.198 87.3597C134.432 88.5915 135.125 90.2622 135.125 92.0043C135.125 93.7464 134.432 95.4171 133.198 96.649C131.965 97.8808 130.292 98.5729 128.547 98.5729C128.381 98.5729 128.217 98.5601 128.054 98.548C129.708 98.4247 131.253 97.6819 132.382 96.4684C133.51 95.2549 134.138 93.6603 134.138 92.0043Z" fill="#575A89"/>
<path d="M136.276 112.695C137.093 112.695 137.756 111.813 137.756 110.725C137.756 109.636 137.093 108.754 136.276 108.754C135.459 108.754 134.796 109.636 134.796 110.725C134.796 111.813 135.459 112.695 136.276 112.695Z" fill="#FFB8B8"/>
<path d="M322.647 263.385H220.251L198.567 161.026H180.062V156.433H202.295L223.979 258.792H322.647V263.385Z" fill="#3F3D56"/>
<path d="M235.256 282.085C240.7 282.085 245.112 277.678 245.112 272.243C245.112 266.807 240.7 262.4 235.256 262.4C229.813 262.4 225.4 266.807 225.4 272.243C225.4 277.678 229.813 282.085 235.256 282.085Z" fill="#3F3D56"/>
<path d="M308.849 282.085C314.292 282.085 318.705 277.678 318.705 272.243C318.705 266.807 314.292 262.4 308.849 262.4C303.405 262.4 298.993 266.807 298.993 272.243C298.993 277.678 303.405 282.085 308.849 282.085Z" fill="#3F3D56"/>
<path d="M320.78 261.222H221.154L203.576 174.477H337.276C337.959 174.477 338.633 174.624 339.252 174.909C339.872 175.194 340.422 175.61 340.866 176.128C341.309 176.646 341.635 177.253 341.821 177.909C342.007 178.564 342.048 179.252 341.943 179.925L325.446 257.237C325.276 258.35 324.711 259.364 323.855 260.095C322.998 260.827 321.907 261.226 320.78 261.222ZM222.236 259.909H320.78C321.594 259.913 322.381 259.624 322.999 259.096C323.617 258.569 324.025 257.837 324.147 257.034L340.644 179.721C340.72 179.236 340.691 178.739 340.556 178.266C340.422 177.793 340.187 177.354 339.867 176.981C339.547 176.607 339.15 176.307 338.703 176.101C338.255 175.895 337.769 175.789 337.276 175.789H205.171L222.236 259.909Z" fill="#3F3D56"/>
<path d="M240.522 260.944L229.01 175.24L230.307 175.026L241.818 260.73L240.522 260.944Z" fill="#3F3D56"/>
<path d="M304.531 260.286L303.233 260.076L314.409 175.028L315.706 175.238L304.531 260.286Z" fill="#3F3D56"/>
<path d="M274.034 175.133H272.72V260.837H274.034V175.133Z" fill="#3F3D56"/>
<path d="M210.289 198.098L210.286 199.41L337.494 199.718L337.497 198.406L210.289 198.098Z" fill="#3F3D56"/>
<path d="M328.52 238.636L216.765 239.399L216.774 240.711L328.529 239.948L328.52 238.636Z" fill="#3F3D56"/>
<path d="M182.033 162.01C186.025 162.01 189.261 160.247 189.261 158.073C189.261 155.899 186.025 154.136 182.033 154.136C178.041 154.136 174.805 155.899 174.805 158.073C174.805 160.247 178.041 162.01 182.033 162.01Z" fill="#3F3D56"/>
</g>
<defs>
<clipPath id="clip0">
<rect width="342" height="285" fill="white"/>
</clipPath>
</defs>
</svg>
