<svg width="328" height="245" viewBox="0 0 328 245" fill="none" xmlns="http://www.w3.org/2000/svg">
<g clip-path="url(#clip0)">
<path d="M321.695 167.348H76.8303C75.1588 167.346 73.5563 166.681 72.3743 165.497C71.1924 164.314 70.5276 162.71 70.5257 161.037V9.90363C70.527 8.67787 71.0141 7.50271 71.88 6.63595C72.7459 5.7692 73.9199 5.28163 75.1445 5.28021H323.301C324.547 5.28163 325.741 5.77762 326.622 6.65937C327.503 7.54111 327.999 8.7366 328 9.98356V161.037C327.998 162.71 327.333 164.314 326.151 165.497C324.969 166.681 323.367 167.346 321.695 167.348Z" fill="#F2F2F2"/>
<path d="M312.763 158.411H84.555C81.2097 158.411 78.4882 155.86 78.4882 152.724V21.1152C78.4882 18.7898 80.5049 16.8978 82.9839 16.8978H314.26C316.78 16.8978 318.83 18.821 318.83 21.1847V152.724C318.83 155.86 316.108 158.411 312.763 158.411Z" fill="white"/>
<path d="M327.912 9.54264H70.4372V6.32978C70.4396 4.65108 71.1072 3.04189 72.2934 1.85524C73.4797 0.668583 75.0877 0.00138036 76.7648 0H321.585C323.262 0.0013816 324.87 0.668589 326.056 1.85524C327.242 3.0419 327.91 4.65108 327.912 6.32978V9.54264Z" fill="#E6E6E6"/>
<path d="M81.9366 6.41912C82.8406 6.41912 83.5733 5.68564 83.5733 4.78085C83.5733 3.87606 82.8406 3.14258 81.9366 3.14258C81.0327 3.14258 80.3 3.87606 80.3 4.78085C80.3 5.68564 81.0327 6.41912 81.9366 6.41912Z" fill="white"/>
<path d="M88.1492 6.41912C89.0531 6.41912 89.7859 5.68564 89.7859 4.78085C89.7859 3.87606 89.0531 3.14258 88.1492 3.14258C87.2452 3.14258 86.5125 3.87606 86.5125 4.78085C86.5125 5.68564 87.2452 6.41912 88.1492 6.41912Z" fill="white"/>
<path d="M94.3617 6.41912C95.2656 6.41912 95.9984 5.68564 95.9984 4.78085C95.9984 3.87606 95.2656 3.14258 94.3617 3.14258C93.4577 3.14258 92.725 3.87606 92.725 4.78085C92.725 5.68564 93.4577 6.41912 94.3617 6.41912Z" fill="white"/>
<path d="M180.573 121.416H302.784C304.405 121.416 305.96 120.772 307.107 119.624C308.253 118.476 308.897 116.92 308.897 115.297V60.0119C308.897 58.389 308.253 56.8324 307.107 55.6848C305.96 54.5372 304.405 53.8925 302.784 53.8925H180.573C178.952 53.8925 177.397 54.5372 176.25 55.6848C175.104 56.8324 174.46 58.389 174.46 60.0119V115.297C174.46 116.92 175.104 118.476 176.25 119.624C177.397 120.772 178.952 121.416 180.573 121.416Z" fill="#F2F2F2"/>
<path d="M289.441 90.7141H192.005C191.195 90.7141 190.417 90.3917 189.844 89.8179C189.271 89.2441 188.949 88.4659 188.949 87.6544C188.949 86.8429 189.271 86.0646 189.844 85.4908C190.417 84.917 191.195 84.5946 192.005 84.5946H289.441C290.252 84.5946 291.029 84.917 291.603 85.4908C292.176 86.0646 292.498 86.8429 292.498 87.6544C292.498 88.4659 292.176 89.2441 291.603 89.8179C291.029 90.3917 290.252 90.7141 289.441 90.7141Z" fill="white"/>
<path d="M289.441 103.718H192.005C191.195 103.718 190.417 103.396 189.844 102.822C189.271 102.248 188.949 101.47 188.949 100.658C188.949 99.8468 189.271 99.0685 189.844 98.4947C190.417 97.9209 191.195 97.5985 192.005 97.5985H289.441C290.252 97.5985 291.029 97.9209 291.603 98.4947C292.176 99.0685 292.498 99.8468 292.498 100.658C292.498 101.47 292.176 102.248 291.603 102.822C291.029 103.396 290.252 103.718 289.441 103.718Z" fill="white"/>
<path d="M272.247 77.7102H192.005C191.195 77.7102 190.417 77.3878 189.844 76.814C189.271 76.2402 188.949 75.4619 188.949 74.6505C188.949 73.839 189.271 73.0607 189.844 72.4869C190.417 71.9131 191.195 71.5907 192.005 71.5907H272.247C273.057 71.5907 273.835 71.9131 274.408 72.4869C274.981 73.0607 275.303 73.839 275.303 74.6505C275.303 75.4619 274.981 76.2402 274.408 76.814C273.835 77.3878 273.057 77.7102 272.247 77.7102Z" fill="white"/>
<path d="M120.558 146.171C120.696 145.506 120.979 144.879 121.386 144.335C121.793 143.791 122.314 143.343 122.912 143.022C123.511 142.701 124.172 142.516 124.85 142.478C125.528 142.441 126.206 142.553 126.836 142.807L137.67 130.346L139.971 138.615L129.33 149.181C128.834 150.212 127.978 151.025 126.924 151.466C125.869 151.908 124.69 151.947 123.608 151.576C122.527 151.205 121.619 150.45 121.057 149.454C120.495 148.457 120.317 147.289 120.558 146.171H120.558Z" fill="#FFB8B8"/>
<path d="M180.019 87.6959C186.283 87.6959 191.362 82.6127 191.362 76.3422C191.362 70.0717 186.283 64.9885 180.019 64.9885C173.754 64.9885 168.676 70.0717 168.676 76.3422C168.676 82.6127 173.754 87.6959 180.019 87.6959Z" fill="#FFB8B8"/>
<path d="M166.694 232.621L161.032 232.621L158.339 210.761L166.695 210.761L166.694 232.621Z" fill="#FFB8B8"/>
<path d="M168.138 238.114L149.882 238.114V237.883C149.882 236.949 150.065 236.024 150.422 235.161C150.78 234.298 151.303 233.514 151.963 232.853C152.623 232.193 153.406 231.669 154.268 231.311C155.13 230.954 156.054 230.77 156.987 230.77H156.988L168.138 230.771L168.138 238.114Z" fill="#83829C"/>
<path d="M183.781 238.63L178.119 238.63L177.336 217.293L183.782 216.771L183.781 238.63Z" fill="#FFB8B8"/>
<path d="M185.225 244.124L166.969 244.123V243.892C166.969 242.958 167.153 242.033 167.51 241.17C167.867 240.307 168.39 239.523 169.05 238.863C169.71 238.202 170.493 237.678 171.355 237.321C172.218 236.964 173.142 236.78 174.075 236.78H174.075L185.225 236.78L185.225 244.124Z" fill="#83829C"/>
<path d="M182.171 234.641L177.762 234.122C177.262 234.062 176.8 233.822 176.463 233.448C176.125 233.074 175.935 232.59 175.926 232.086L175.1 174.608C175.098 174.446 175.038 174.289 174.932 174.166C174.826 174.043 174.68 173.961 174.52 173.934C174.36 173.908 174.195 173.939 174.055 174.022C173.915 174.104 173.809 174.234 173.755 174.387L167.638 191.675L168.075 224.081C168.082 224.616 167.884 225.133 167.52 225.525C167.156 225.917 166.656 226.153 166.122 226.185L160.366 226.43C159.84 226.46 159.321 226.29 158.915 225.953C158.509 225.617 158.244 225.139 158.175 224.616L155.169 187.958L155.167 187.935L159.728 149.651L193.988 152.132L184.477 232.819C184.417 233.325 184.174 233.791 183.794 234.129C183.414 234.467 182.923 234.655 182.415 234.656C182.333 234.656 182.252 234.651 182.171 234.641Z" fill="#494585"/>
<path d="M159.874 153.044C159.567 152.88 159.306 152.641 159.116 152.348C158.926 152.056 158.813 151.72 158.787 151.372C158.787 151.372 161.868 132.195 162.997 131.835L160.527 111.328C160.231 108.826 160.437 106.291 161.133 103.871C161.83 101.451 163.002 99.1938 164.582 97.2332C166.103 95.331 167.993 93.7572 170.139 92.6065C172.284 91.4559 174.641 90.7524 177.065 90.5385C177.411 90.5073 177.754 90.4835 178.096 90.4671C181.018 90.3105 183.936 90.8625 186.6 92.0763C189.264 93.2901 191.596 95.1298 193.397 97.439C195.266 99.7681 196.545 102.514 197.126 105.445C197.706 108.375 197.571 111.402 196.732 114.268L195.346 119.094V152.819C195.345 153.148 195.266 153.473 195.117 153.766C194.968 154.059 194.752 154.313 194.486 154.508C190.173 157.677 185.298 158.797 180.56 158.797C171.596 158.797 163.123 154.785 159.874 153.044Z" fill="#0EA5E9"/>
<path d="M133.279 146.873L127.32 142.413C127.086 142.238 126.892 142.016 126.75 141.761C126.607 141.505 126.52 141.223 126.494 140.932C126.468 140.641 126.504 140.348 126.599 140.072C126.693 139.795 126.845 139.542 127.044 139.328L162.541 101.204C163.681 99.9904 165.217 99.2265 166.871 99.0504C168.525 98.8744 170.188 99.2979 171.557 100.244L171.557 100.244C172.391 100.826 173.086 101.585 173.594 102.467C174.102 103.349 174.409 104.332 174.494 105.346C174.579 106.36 174.439 107.38 174.085 108.334C173.731 109.288 173.171 110.153 172.446 110.865L135.979 146.692C135.658 147.009 135.243 147.214 134.796 147.273C134.348 147.332 133.894 147.243 133.502 147.019C133.425 146.975 133.35 146.926 133.279 146.873Z" fill="#0EA5E9"/>
<path d="M178.883 141.825C179.143 141.197 179.538 140.635 180.039 140.176C180.54 139.718 181.136 139.375 181.784 139.172C182.432 138.969 183.116 138.911 183.789 139.001C184.462 139.091 185.107 139.328 185.678 139.695L198.649 129.482L199.365 138.036L186.938 146.423C186.258 147.344 185.266 147.982 184.147 148.219C183.029 148.455 181.863 148.272 180.87 147.705C179.877 147.139 179.126 146.227 178.76 145.143C178.394 144.059 178.437 142.879 178.883 141.825Z" fill="#FFB8B8"/>
<path d="M190.492 145.812C190.149 145.705 189.84 145.51 189.595 145.247C189.35 144.984 189.178 144.661 189.096 144.31L187.786 138.802C187.69 138.411 187.711 138 187.847 137.621C187.982 137.242 188.226 136.911 188.548 136.67L197.364 127.126L184.397 107.112C183.415 105.903 182.862 104.401 182.823 102.844C182.785 101.286 183.263 99.7591 184.183 98.5022C184.917 97.5007 185.902 96.7111 187.039 96.2134C188.175 95.7157 189.423 95.5275 190.656 95.668C191.889 95.8085 193.063 96.2727 194.058 97.0135C195.054 97.7542 195.837 98.7453 196.327 99.8862L208.382 123.374C209.581 125.708 209.88 128.401 209.222 130.941C208.564 133.481 206.996 135.69 204.816 137.147L192.497 145.385C192.119 145.723 191.631 145.91 191.125 145.91C190.91 145.91 190.697 145.877 190.492 145.812Z" fill="#0EA5E9"/>
<path d="M188.424 86.4921C188.156 86.6527 187.856 86.7495 187.545 86.7752C187.235 86.8008 186.922 86.7544 186.632 86.6398C186.342 86.5252 186.083 86.3453 185.873 86.1141C185.664 85.8829 185.511 85.6065 185.425 85.3065L185.418 85.2782C185.187 84.3335 185.369 83.3448 185.429 82.3741C185.489 81.4033 185.388 80.3378 184.724 79.6279C183.486 78.3045 181.3 79.0213 179.519 78.6945C178.475 78.4672 177.55 77.8669 176.916 77.0061C176.283 76.1453 175.984 75.0829 176.077 74.0178C176.101 73.816 176.14 73.6138 176.183 73.4118C176.292 72.8999 176.28 72.3697 176.15 71.863C176.019 71.3563 175.773 70.8868 175.431 70.4913C175.088 70.0958 174.659 69.7851 174.177 69.5836C173.694 69.3821 173.172 69.2953 172.65 69.33C170.852 69.4426 168.913 69.9985 167.418 68.673C166.87 68.1499 166.487 67.4768 166.319 66.7376C166.15 65.9984 166.203 65.2259 166.47 64.5165C167.306 62.0569 169.701 60.7588 172.074 60.0395C175.009 59.1737 178.099 58.9734 181.121 59.4531C184.143 59.9328 187.02 61.0805 189.543 62.8127C191.05 63.8638 192.459 65.187 193.108 66.9067C193.757 68.6264 193.46 70.802 192.023 71.9472C193.148 73.1264 193.943 74.5807 194.329 76.1644C194.715 77.7481 194.679 79.4057 194.224 80.9709C193.523 83.273 190.134 85.4947 188.424 86.4921Z" fill="#2F2E41"/>
<path d="M126.221 54.4704C125.83 53.3871 125.115 52.4506 124.174 51.7881C123.233 51.1256 122.11 50.7693 120.96 50.7676H5.58997C4.108 50.767 2.68648 51.3557 1.63816 52.4043C0.58984 53.4528 0.000574332 54.8752 0 56.3586V144.981C0.00209887 146.464 0.591718 147.886 1.63959 148.935C2.68745 149.984 4.10807 150.574 5.58997 150.576H120.96C122.442 150.574 123.862 149.984 124.91 148.935C125.958 147.886 126.548 146.464 126.55 144.981V56.3629C126.551 55.7177 126.439 55.0773 126.221 54.4704Z" fill="white"/>
<path d="M126.221 54.4704C125.83 53.3871 125.115 52.4506 124.174 51.7881C123.233 51.1256 122.11 50.7693 120.96 50.7676H5.58997C4.108 50.767 2.68648 51.3557 1.63816 52.4043C0.58984 53.4528 0.000574332 54.8752 0 56.3586V144.981C0.00209887 146.464 0.591718 147.886 1.63959 148.935C2.68745 149.984 4.10807 150.574 5.58997 150.576H120.96C122.442 150.574 123.862 149.984 124.91 148.935C125.958 147.886 126.548 146.464 126.55 144.981V56.3629C126.551 55.7177 126.439 55.0773 126.221 54.4704ZM125.892 144.981C125.89 146.29 125.37 147.545 124.446 148.47C123.521 149.396 122.267 149.917 120.96 149.918H5.58997C4.28233 149.917 3.02871 149.396 2.10407 148.47C1.17943 147.545 0.659271 146.29 0.65768 144.981V56.3629C0.65927 55.054 1.17943 53.7992 2.10408 52.8737C3.02872 51.9481 4.28234 51.4275 5.58999 51.4259H120.96C122.267 51.4275 123.521 51.9481 124.446 52.8737C125.37 53.7992 125.89 55.054 125.892 56.3629V144.981Z" fill="#3F3D56"/>
<path d="M117.652 62.692V124.571C117.652 124.984 117.488 125.381 117.196 125.673C116.905 125.965 116.509 126.129 116.096 126.129H11.1521C11.0773 126.13 11.0027 126.124 10.929 126.112C10.5588 126.059 10.2202 125.874 9.97534 125.591C9.73045 125.308 9.59565 124.946 9.59564 124.571V62.692C9.59557 62.4875 9.63575 62.285 9.71387 62.096C9.792 61.9071 9.90655 61.7353 10.051 61.5907C10.1954 61.446 10.3669 61.3312 10.5556 61.2529C10.7444 61.1746 10.9467 61.1342 11.151 61.1342H116.095C116.3 61.1341 116.502 61.1743 116.691 61.2525C116.88 61.3307 117.051 61.4454 117.196 61.5899C117.34 61.7345 117.455 61.9061 117.533 62.095C117.611 62.284 117.652 62.4865 117.652 62.691V62.692Z" fill="#E6E6E6"/>
<path d="M36.0491 97.9264C43.5902 97.9264 49.7036 91.8072 49.7036 84.2588C49.7036 76.7104 43.5902 70.5912 36.0491 70.5912C28.5079 70.5912 22.3946 76.7104 22.3946 84.2588C22.3946 91.8072 28.5079 97.9264 36.0491 97.9264Z" fill="#0EA5E9"/>
<path d="M78.8681 126.377H11.8831C11.7993 126.378 11.7155 126.372 11.6328 126.357L43.3136 71.4291C43.507 71.0871 43.7876 70.8025 44.1268 70.6045C44.466 70.4065 44.8516 70.3021 45.2443 70.3021C45.6369 70.3021 46.0226 70.4065 46.3618 70.6045C46.701 70.8025 46.9816 71.0871 47.1749 71.4291L68.4367 108.29L69.4553 110.054L78.8681 126.377Z" fill="#3F3D56"/>
<path opacity="0.2" d="M78.8679 126.377H55.9976L67.2245 110.054L68.0327 108.878L68.4368 108.29L69.4551 110.054L78.8679 126.377Z" fill="black"/>
<path d="M116.165 126.377H58.2283L69.4553 110.054L70.2632 108.878L84.8929 87.6061C85.852 86.2119 88.1594 86.1251 89.2871 87.3431C89.3628 87.4262 89.4332 87.514 89.4977 87.6061L116.165 126.377Z" fill="#3F3D56"/>
</g>
<defs>
<clipPath id="clip0">
<rect width="328" height="245" fill="white"/>
</clipPath>
</defs>
</svg>
