<svg width="100" height="100" viewBox="0 0 100 100" fill="none" xmlns="http://www.w3.org/2000/svg">
<rect width="100" height="100" rx="10" fill="#1E293B"/>
<path d="M49.7266 85.4968C49.612 86.7104 49.1641 87.6583 48.3828 88.3406C47.6016 89.0177 46.5625 89.3562 45.2656 89.3562C44.3594 89.3562 43.5599 89.1427 42.8672 88.7156C42.1797 88.2833 41.6484 87.6713 41.2734 86.8796C40.8984 86.088 40.7031 85.1687 40.6875 84.1218V83.0593C40.6875 81.9864 40.8776 81.0411 41.2578 80.2234C41.638 79.4057 42.1823 78.7755 42.8906 78.3328C43.6042 77.8901 44.4271 77.6687 45.3594 77.6687C46.6146 77.6687 47.625 78.0098 48.3906 78.6921C49.1562 79.3744 49.6016 80.338 49.7266 81.5828H47.7578C47.6641 80.7651 47.4245 80.1765 47.0391 79.8171C46.6589 79.4526 46.099 79.2703 45.3594 79.2703C44.5 79.2703 43.8385 79.5854 43.375 80.2156C42.9167 80.8406 42.6823 81.7598 42.6719 82.9734V83.9812C42.6719 85.2104 42.8906 86.1479 43.3281 86.7937C43.7708 87.4395 44.4167 87.7625 45.2656 87.7625C46.0417 87.7625 46.625 87.588 47.0156 87.239C47.4062 86.8901 47.6536 86.3093 47.7578 85.4968H49.7266ZM55.9609 85.9968H54.2109L53.6172 89.2H52.3047L52.8984 85.9968H51.0938V84.7625H53.1328L53.5859 82.3171H51.6875V81.075H53.8203L54.4297 77.825H55.7344L55.125 81.075H56.8828L57.4922 77.825H58.7969L58.1875 81.075H59.8125V82.3171H57.9531L57.5 84.7625H59.2266V85.9968H57.2656L56.6719 89.2H55.3672L55.9609 85.9968ZM54.4453 84.7625H56.1953L56.6484 82.3171H54.8984L54.4453 84.7625Z" fill="#E2E8F0"/>
<g clip-path="url(#clip0)">
<path d="M68.798 23.9007C68.7977 23.1743 68.6425 22.5324 68.3287 21.9817C68.0204 21.4398 67.5587 20.9858 66.9394 20.6268C61.8273 17.6763 56.7102 14.7349 51.5998 11.7813C50.222 10.9852 48.8862 11.0144 47.5187 11.8219C45.4839 13.023 35.2965 18.8652 32.2608 20.6252C31.0106 21.3498 30.4023 22.4584 30.402 23.8993C30.4 29.833 30.402 35.7666 30.4 41.7002C30.4 42.4107 30.5489 43.0402 30.8489 43.5827C31.1574 44.1408 31.6256 44.6073 32.2591 44.9744C35.295 46.7344 45.4837 52.5762 47.5181 53.7776C48.8862 54.5857 50.222 54.6145 51.6002 53.8182C56.7108 50.8646 61.8282 47.9231 66.941 44.9726C67.5746 44.6056 68.0428 44.1388 68.3512 43.5812C68.6508 43.0386 68.8 42.4092 68.8 41.6986C68.8 41.6986 68.8 29.8345 68.798 23.9007Z" fill="#0EA5E9"/>
<path d="M60.7333 28.6895V30.7158H62.7577V28.6895H63.7699V30.7158H65.7943V31.729H63.7699V33.7552H65.7943V34.7684H63.7699V36.7947H62.7577V34.7684H60.7333V36.7947H59.7211V34.7684H57.6969V33.7552H59.7211V31.729H57.6969V30.7158H59.7211V28.6895H60.7333ZM62.7577 31.7288H60.7333V33.7552H62.7577V31.7288Z" fill="#1E293B"/>
<path d="M49.7001 18.5127C54.9803 18.5127 59.5903 21.383 62.0596 25.6496L62.0355 25.6085L55.8229 29.189C54.599 27.1147 52.3552 25.7147 49.7811 25.6858L49.6999 25.6854C45.7748 25.6854 42.5926 28.8707 42.5926 32.7996C42.5913 34.038 42.9145 35.255 43.5299 36.3293C44.755 38.4701 47.0582 39.914 49.7001 39.914C52.3584 39.914 54.6745 38.4517 55.8933 36.288L55.8637 36.3399L62.0669 39.937C59.6247 44.1674 55.0778 47.0289 49.859 47.0859L49.7001 47.0868C44.4032 47.0868 39.7801 44.1987 37.317 39.9097C36.1146 37.8159 35.4266 35.3883 35.4266 32.7998C35.4266 24.9094 41.8168 18.5127 49.6999 18.5127H49.7001Z" fill="#1E293B"/>
</g>
<defs>
<clipPath id="clip0">
<rect x="30.4" y="11.2" width="38.4" height="43.2" rx="10" fill="white"/>
</clipPath>
</defs>
</svg>
