<svg width="500" height="500" viewBox="0 0 500 500" fill="none" xmlns="http://www.w3.org/2000/svg">
<path d="M421.875 93.75C426.019 93.75 429.993 95.3962 432.924 98.3265C435.854 101.257 437.5 105.231 437.5 109.375V343.75H62.5V109.375C62.5 105.231 64.1462 101.257 67.0765 98.3265C70.0067 95.3962 73.981 93.75 78.125 93.75H421.875ZM78.125 62.5C65.693 62.5 53.7701 67.4386 44.9794 76.2294C36.1886 85.0201 31.25 96.943 31.25 109.375V375H468.75V109.375C468.75 96.943 463.811 85.0201 455.021 76.2294C446.23 67.4386 434.307 62.5 421.875 62.5H78.125ZM0 390.625H500C500 403.057 495.061 414.98 486.271 423.771C477.48 432.561 465.557 437.5 453.125 437.5H46.875C34.443 437.5 22.5201 432.561 13.7294 423.771C4.9386 414.98 0 403.057 0 390.625H0Z" fill="black"/>
<path d="M250 103C186.06 103 134 155.013 134 219C134 282.94 186.06 335 250 335C313.94 335 366 282.94 366 219C366 155.013 313.94 103 250 103ZM145.694 219C145.694 203.892 148.921 189.532 154.721 176.576L204.489 312.876C169.689 295.944 145.694 260.255 145.694 219ZM250 323.306C239.756 323.306 229.887 321.81 220.532 319.05L251.824 228.121L283.865 315.963C284.098 316.477 284.332 316.945 284.613 317.413C273.808 321.202 262.161 323.306 250 323.306V323.306ZM264.36 170.121C270.627 169.794 276.287 169.139 276.287 169.139C281.9 168.484 281.245 160.205 275.632 160.532C275.632 160.532 258.747 161.842 247.848 161.842C237.605 161.842 220.392 160.532 220.392 160.532C214.779 160.205 214.124 168.811 219.737 169.139C219.737 169.139 225.069 169.794 230.682 170.121L246.913 214.65L224.087 283.081L186.106 170.121C192.374 169.794 198.034 169.139 198.034 169.139C203.647 168.484 202.992 160.205 197.379 160.532C197.379 160.532 180.494 161.842 169.595 161.842C167.631 161.842 165.339 161.795 162.86 161.702C181.523 133.403 213.563 114.694 250 114.694C277.129 114.694 301.873 125.077 320.442 142.056C319.974 142.01 319.553 141.963 319.085 141.963C308.842 141.963 301.592 150.897 301.592 160.485C301.592 169.092 306.55 176.342 311.835 184.948C315.811 191.871 320.442 200.805 320.442 213.715C320.442 222.648 317.027 232.985 312.49 247.439L302.106 282.192L264.36 170.121V170.121ZM302.434 309.134L334.287 217.035C340.227 202.161 342.239 190.281 342.239 179.663C342.239 175.827 342.005 172.273 341.537 168.952C349.676 183.826 354.306 200.852 354.306 219C354.306 257.495 333.445 291.079 302.434 309.134V309.134Z" fill="black"/>
</svg>
