<svg width="100" height="100" viewBox="0 0 100 100" fill="none" xmlns="http://www.w3.org/2000/svg">
<rect width="100" height="100" rx="10" fill="#1E293B"/>
<path d="M18.3359 77.825L21.6172 86.5437L24.8906 77.825H27.4453V89.2H25.4766V85.45L25.6719 80.4343L22.3125 89.2H20.8984L17.5469 80.4421L17.7422 85.45V89.2H15.7734V77.825H18.3359ZM29.25 84.8953C29.25 84.0671 29.4141 83.3223 29.7422 82.6609C30.0703 81.9942 30.5312 81.4838 31.125 81.1296C31.7188 80.7703 32.401 80.5906 33.1719 80.5906C34.3125 80.5906 35.237 80.9578 35.9453 81.6921C36.6589 82.4265 37.0443 83.4005 37.1016 84.614L37.1094 85.0593C37.1094 85.8927 36.9479 86.6375 36.625 87.2937C36.3073 87.95 35.849 88.4578 35.25 88.8171C34.6562 89.1765 33.9688 89.3562 33.1875 89.3562C31.9948 89.3562 31.0391 88.9604 30.3203 88.1687C29.6068 87.3718 29.25 86.3119 29.25 84.989V84.8953ZM31.1484 85.0593C31.1484 85.9291 31.3281 86.6114 31.6875 87.1062C32.0469 87.5958 32.5469 87.8406 33.1875 87.8406C33.8281 87.8406 34.3255 87.5906 34.6797 87.0906C35.0391 86.5906 35.2188 85.8588 35.2188 84.8953C35.2188 84.0411 35.0339 83.364 34.6641 82.864C34.2995 82.364 33.8021 82.114 33.1719 82.114C32.5521 82.114 32.0599 82.3614 31.6953 82.8562C31.3307 83.3458 31.1484 84.0802 31.1484 85.0593ZM40.4766 80.7468L40.5312 81.7234C41.1562 80.9682 41.9766 80.5906 42.9922 80.5906C44.7526 80.5906 45.6484 81.5984 45.6797 83.614V89.2H43.7812V83.7234C43.7812 83.1869 43.6641 82.7911 43.4297 82.5359C43.2005 82.2755 42.8229 82.1453 42.2969 82.1453C41.5312 82.1453 40.9609 82.4916 40.5859 83.1843V89.2H38.6875V80.7468H40.4766ZM47.2891 84.9109C47.2891 83.5984 47.5964 82.5515 48.2109 81.7703C48.8307 80.9838 49.651 80.5906 50.6719 80.5906C51.6354 80.5906 52.3932 80.9265 52.9453 81.5984L53.0312 80.7468H54.7422V88.9421C54.7422 90.0515 54.3958 90.9265 53.7031 91.5671C53.0156 92.2078 52.0859 92.5281 50.9141 92.5281C50.2943 92.5281 49.6875 92.3979 49.0938 92.1375C48.5052 91.8822 48.0573 91.5463 47.75 91.1296L48.6484 89.989C49.2318 90.6817 49.9505 91.0281 50.8047 91.0281C51.4349 91.0281 51.9323 90.8562 52.2969 90.5125C52.6615 90.1739 52.8438 89.6739 52.8438 89.0125V88.4421C52.2969 89.0515 51.5677 89.3562 50.6562 89.3562C49.6667 89.3562 48.8568 88.963 48.2266 88.1765C47.6016 87.3901 47.2891 86.3015 47.2891 84.9109ZM49.1797 85.075C49.1797 85.9239 49.3516 86.5932 49.6953 87.0828C50.0443 87.5671 50.526 87.8093 51.1406 87.8093C51.9062 87.8093 52.474 87.4812 52.8438 86.825V83.1062C52.4844 82.4656 51.9219 82.1453 51.1562 82.1453C50.5312 82.1453 50.0443 82.3927 49.6953 82.8875C49.3516 83.3822 49.1797 84.1114 49.1797 85.075ZM56.3438 84.8953C56.3438 84.0671 56.5078 83.3223 56.8359 82.6609C57.1641 81.9942 57.625 81.4838 58.2188 81.1296C58.8125 80.7703 59.4948 80.5906 60.2656 80.5906C61.4062 80.5906 62.3307 80.9578 63.0391 81.6921C63.7526 82.4265 64.138 83.4005 64.1953 84.614L64.2031 85.0593C64.2031 85.8927 64.0417 86.6375 63.7188 87.2937C63.401 87.95 62.9427 88.4578 62.3438 88.8171C61.75 89.1765 61.0625 89.3562 60.2812 89.3562C59.0885 89.3562 58.1328 88.9604 57.4141 88.1687C56.7005 87.3718 56.3438 86.3119 56.3438 84.989V84.8953ZM58.2422 85.0593C58.2422 85.9291 58.4219 86.6114 58.7812 87.1062C59.1406 87.5958 59.6406 87.8406 60.2812 87.8406C60.9219 87.8406 61.4193 87.5906 61.7734 87.0906C62.1328 86.5906 62.3125 85.8588 62.3125 84.8953C62.3125 84.0411 62.1276 83.364 61.7578 82.864C61.3932 82.364 60.8958 82.114 60.2656 82.114C59.6458 82.114 59.1536 82.3614 58.7891 82.8562C58.4245 83.3458 58.2422 84.0802 58.2422 85.0593ZM65.9922 89.2V77.825H69.3516C70.3568 77.825 71.2474 78.0489 72.0234 78.4968C72.8047 78.9447 73.4089 79.5802 73.8359 80.4031C74.263 81.226 74.4766 82.1687 74.4766 83.2312V83.8015C74.4766 84.8796 74.2604 85.8276 73.8281 86.6453C73.401 87.463 72.7891 88.0932 71.9922 88.5359C71.2005 88.9786 70.2917 89.2 69.2656 89.2H65.9922ZM67.9688 79.4187V87.6218H69.2578C70.2943 87.6218 71.0885 87.2989 71.6406 86.6531C72.1979 86.002 72.4818 85.0697 72.4922 83.8562V83.2234C72.4922 81.989 72.224 81.0463 71.6875 80.3953C71.151 79.7442 70.3724 79.4187 69.3516 79.4187H67.9688ZM76.4453 89.2V77.825H80.3438C81.6302 77.825 82.6094 78.0828 83.2812 78.5984C83.9531 79.114 84.2891 79.8822 84.2891 80.9031C84.2891 81.4239 84.1484 81.8927 83.8672 82.3093C83.5859 82.726 83.1745 83.0489 82.6328 83.2781C83.2474 83.4447 83.7214 83.7598 84.0547 84.2234C84.3932 84.6817 84.5625 85.2338 84.5625 85.8796C84.5625 86.9473 84.2188 87.7677 83.5312 88.3406C82.849 88.9135 81.8698 89.2 80.5938 89.2H76.4453ZM78.4219 84.0671V87.6218H80.6172C81.237 87.6218 81.7214 87.4682 82.0703 87.1609C82.4193 86.8536 82.5938 86.4265 82.5938 85.8796C82.5938 84.6973 81.9896 84.0932 80.7812 84.0671H78.4219ZM78.4219 82.614H80.3594C80.974 82.614 81.4531 82.476 81.7969 82.2C82.1458 81.9187 82.3203 81.5229 82.3203 81.0125C82.3203 80.45 82.1589 80.0437 81.8359 79.7937C81.5182 79.5437 81.0208 79.4187 80.3438 79.4187H78.4219V82.614Z" fill="#E2E8F0"/>
<g clip-path="url(#clip0)">
<path fill-rule="evenodd" clip-rule="evenodd" d="M51.0979 54.3998L49.8135 53.9706C49.8135 53.9706 49.9703 47.5649 47.6212 47.1051C46.055 45.3275 47.8718 -28.292 53.5096 46.8599C53.5096 46.8599 51.5678 47.8101 51.2232 49.4346C50.8471 51.0284 51.0977 54.3998 51.0977 54.3998H51.0979Z" fill="#0EA5E9"/>
<path fill-rule="evenodd" clip-rule="evenodd" d="M51.0979 54.3998L49.8135 53.9706C49.8135 53.9706 49.9703 47.5649 47.6212 47.1051C46.055 45.3275 47.8718 -28.292 53.5096 46.8599C53.5096 46.8599 51.5678 47.8101 51.2232 49.4346C50.8471 51.0284 51.0977 54.3998 51.0977 54.3998H51.0979Z" fill="#73CEF7"/>
<path fill-rule="evenodd" clip-rule="evenodd" d="M51.7871 48.209C51.7871 48.209 63.0323 40.9756 60.4011 25.9266C57.8637 14.9849 51.881 11.3988 51.2234 10.0195C50.503 9.03867 49.8141 7.32251 49.8141 7.32251L50.2841 37.7574C50.2841 37.7881 49.3127 47.0751 51.7875 48.2094" fill="#0EA5E9"/>
<path fill-rule="evenodd" clip-rule="evenodd" d="M51.7871 48.209C51.7871 48.209 63.0323 40.9756 60.4011 25.9266C57.8637 14.9849 51.881 11.3988 51.2234 10.0195C50.503 9.03867 49.8141 7.32251 49.8141 7.32251L50.2841 37.7574C50.2841 37.7881 49.3127 47.0751 51.7875 48.2094" fill="#057DB3"/>
<path fill-rule="evenodd" clip-rule="evenodd" d="M49.156 48.6077C49.156 48.6077 38.5999 41.5581 39.2265 29.1451C39.8215 16.7319 47.2765 10.6326 48.7175 9.52952C49.657 8.54846 49.6885 8.18045 49.7513 7.19995C50.4089 8.57926 50.2838 27.8274 50.3774 30.0952C50.6595 38.8303 49.8762 46.9525 49.156 48.6075V48.6077Z" fill="#0EA5E9"/>
</g>
<defs>
<clipPath id="clip0">
<rect x="39.2" y="7.19995" width="21.6" height="47.2" rx="10" fill="white"/>
</clipPath>
</defs>
</svg>
