<svg width="100" height="100" viewBox="0 0 100 100" fill="none" xmlns="http://www.w3.org/2000/svg">
<rect width="100" height="100" rx="10" fill="#1E293B"/>
<path d="M32.7578 89.2H30.7812L25.7109 81.1296V89.2H23.7344V77.825H25.7109L30.7969 85.9265V77.825H32.7578V89.2ZM34.5547 84.8953C34.5547 84.0671 34.7188 83.3223 35.0469 82.6609C35.375 81.9942 35.8359 81.4838 36.4297 81.1296C37.0234 80.7703 37.7057 80.5906 38.4766 80.5906C39.6172 80.5906 40.5417 80.9578 41.25 81.6921C41.9635 82.4265 42.349 83.4005 42.4062 84.614L42.4141 85.0593C42.4141 85.8927 42.2526 86.6375 41.9297 87.2937C41.612 87.95 41.1536 88.4578 40.5547 88.8171C39.9609 89.1765 39.2734 89.3562 38.4922 89.3562C37.2995 89.3562 36.3438 88.9604 35.625 88.1687C34.9115 87.3718 34.5547 86.3119 34.5547 84.989V84.8953ZM36.4531 85.0593C36.4531 85.9291 36.6328 86.6114 36.9922 87.1062C37.3516 87.5958 37.8516 87.8406 38.4922 87.8406C39.1328 87.8406 39.6302 87.5906 39.9844 87.0906C40.3438 86.5906 40.5234 85.8588 40.5234 84.8953C40.5234 84.0411 40.3385 83.364 39.9688 82.864C39.6042 82.364 39.1068 82.114 38.4766 82.114C37.8568 82.114 37.3646 82.3614 37 82.8562C36.6354 83.3458 36.4531 84.0802 36.4531 85.0593ZM43.6641 84.9109C43.6641 83.6088 43.9661 82.5645 44.5703 81.7781C45.1745 80.9864 45.9844 80.5906 47 80.5906C47.8958 80.5906 48.6198 80.9031 49.1719 81.5281V77.2H51.0703V89.2H49.3516L49.2578 88.325C48.6901 89.0125 47.9323 89.3562 46.9844 89.3562C45.9948 89.3562 45.1927 88.9578 44.5781 88.1609C43.9688 87.364 43.6641 86.2807 43.6641 84.9109ZM45.5625 85.075C45.5625 85.9343 45.7266 86.6062 46.0547 87.0906C46.388 87.5697 46.8594 87.8093 47.4688 87.8093C48.2448 87.8093 48.8125 87.463 49.1719 86.7703V83.1609C48.8229 82.4838 48.2604 82.1453 47.4844 82.1453C46.8698 82.1453 46.3958 82.3901 46.0625 82.8796C45.7292 83.364 45.5625 84.0958 45.5625 85.075ZM56.7734 89.3562C55.5703 89.3562 54.5938 88.9786 53.8438 88.2234C53.099 87.463 52.7266 86.4526 52.7266 85.1921V84.9578C52.7266 84.114 52.888 83.3614 53.2109 82.7C53.5391 82.0333 53.9974 81.5151 54.5859 81.1453C55.1745 80.7755 55.8307 80.5906 56.5547 80.5906C57.7057 80.5906 58.5938 80.9578 59.2188 81.6921C59.849 82.4265 60.1641 83.4656 60.1641 84.8093V85.575H54.6406C54.6979 86.2729 54.9297 86.825 55.3359 87.2312C55.7474 87.6375 56.263 87.8406 56.8828 87.8406C57.7526 87.8406 58.4609 87.489 59.0078 86.7859L60.0312 87.7625C59.6927 88.2677 59.2396 88.6609 58.6719 88.9421C58.1094 89.2182 57.4766 89.3562 56.7734 89.3562ZM56.5469 82.114C56.026 82.114 55.6042 82.2963 55.2812 82.6609C54.9635 83.0255 54.7604 83.5333 54.6719 84.1843H58.2891V84.0437C58.2474 83.4083 58.0781 82.9291 57.7812 82.6062C57.4844 82.2781 57.0729 82.114 56.5469 82.114ZM62.8281 87.2C63.1823 87.2 63.4557 87.3015 63.6484 87.5046C63.8411 87.7026 63.9375 87.9526 63.9375 88.2546C63.9375 88.5515 63.8411 88.7989 63.6484 88.9968C63.4557 89.1895 63.1823 89.2859 62.8281 89.2859C62.4896 89.2859 62.2214 89.1895 62.0234 88.9968C61.8255 88.8041 61.7266 88.5567 61.7266 88.2546C61.7266 87.9526 61.8229 87.7026 62.0156 87.5046C62.2083 87.3015 62.4792 87.2 62.8281 87.2ZM68.0938 80.7468V89.95C68.0938 90.8145 67.8776 91.4734 67.4453 91.9265C67.0182 92.3848 66.3906 92.614 65.5625 92.614C65.2135 92.614 64.8776 92.5697 64.5547 92.4812V90.9812C64.7526 91.0281 64.9766 91.0515 65.2266 91.0515C65.8568 91.0515 66.1797 90.7078 66.1953 90.0203V80.7468H68.0938ZM66.0312 78.5515C66.0312 78.2598 66.1224 78.0177 66.3047 77.825C66.4922 77.6322 66.7578 77.5359 67.1016 77.5359C67.4453 77.5359 67.7109 77.6322 67.8984 77.825C68.0859 78.0177 68.1797 78.2598 68.1797 78.5515C68.1797 78.838 68.0859 79.0776 67.8984 79.2703C67.7109 79.4578 67.4453 79.5515 67.1016 79.5515C66.7578 79.5515 66.4922 79.4578 66.3047 79.2703C66.1224 79.0776 66.0312 78.838 66.0312 78.5515ZM74.8672 86.9031C74.8672 86.5645 74.7266 86.3067 74.4453 86.1296C74.1693 85.9526 73.7083 85.7963 73.0625 85.6609C72.4167 85.5255 71.8776 85.3536 71.4453 85.1453C70.4974 84.6869 70.0234 84.0229 70.0234 83.1531C70.0234 82.4239 70.3307 81.8145 70.9453 81.325C71.5599 80.8354 72.3411 80.5906 73.2891 80.5906C74.2995 80.5906 75.1146 80.8406 75.7344 81.3406C76.3594 81.8406 76.6719 82.489 76.6719 83.2859H74.7734C74.7734 82.9213 74.638 82.6192 74.3672 82.3796C74.0964 82.1348 73.737 82.0125 73.2891 82.0125C72.8724 82.0125 72.5312 82.1088 72.2656 82.3015C72.0052 82.4942 71.875 82.752 71.875 83.075C71.875 83.3666 71.9974 83.5932 72.2422 83.7546C72.487 83.9161 72.9818 84.0802 73.7266 84.2468C74.4714 84.4083 75.0547 84.6036 75.4766 84.8328C75.9036 85.0567 76.2188 85.3276 76.4219 85.6453C76.6302 85.963 76.7344 86.3484 76.7344 86.8015C76.7344 87.5619 76.4193 88.1791 75.7891 88.6531C75.1589 89.1218 74.3333 89.3562 73.3125 89.3562C72.6198 89.3562 72.0026 89.2312 71.4609 88.9812C70.9193 88.7312 70.4974 88.3875 70.1953 87.95C69.8932 87.5125 69.7422 87.0411 69.7422 86.5359H71.5859C71.612 86.9838 71.7812 87.3302 72.0938 87.575C72.4062 87.8145 72.8203 87.9343 73.3359 87.9343C73.8359 87.9343 74.2161 87.8406 74.4766 87.6531C74.737 87.4604 74.8672 87.2104 74.8672 86.9031Z" fill="#E2E8F0"/>
<g clip-path="url(#clip0)">
<path d="M50.4 54.4004C49.8037 54.4004 49.2472 54.2416 48.7305 53.9638L43.4434 50.8285C42.6484 50.3919 43.0459 50.2332 43.2844 50.1538C44.3577 49.7966 44.5564 49.7173 45.6694 49.0821C45.7888 49.0028 45.9478 49.0425 46.0669 49.1218L50.1217 51.5428C50.2807 51.6222 50.4795 51.6222 50.5987 51.5428L66.4597 42.375C66.6187 42.2957 66.6982 42.1369 66.6982 41.9385V23.6423C66.6982 23.4439 66.6187 23.2851 66.4597 23.2058L50.5987 14.0775C50.4397 13.9982 50.241 13.9982 50.1217 14.0775L34.2607 23.2059C34.1017 23.2853 34.0222 23.4837 34.0222 23.6425V41.9385C34.0222 42.0972 34.1017 42.2957 34.2607 42.375L38.5938 44.8753C40.9392 46.0658 42.4098 44.6768 42.4098 43.2878V25.2298C42.4098 24.9916 42.6087 24.7535 42.8869 24.7535H44.9143C45.1528 24.7535 45.3913 24.952 45.3913 25.2298V43.2877C45.3913 46.423 43.6819 48.2486 40.7005 48.2486C39.7863 48.2486 39.0708 48.2486 37.0435 47.2564L32.8695 44.8753C31.836 44.2798 31.2 43.1686 31.2 41.978V23.6822C31.2 22.4916 31.836 21.3804 32.8695 20.7849L48.7305 11.6171C49.7242 11.0615 51.0757 11.0615 52.0695 11.6171L67.9305 20.7849C68.964 21.3802 69.6 22.4914 69.6 23.6822V41.9782C69.6 43.1688 68.964 44.28 67.9305 44.8753L52.0695 54.0433C51.5527 54.2815 50.9565 54.4005 50.4 54.4005V54.4004ZM55.2894 41.8193C48.3328 41.8193 46.9018 38.6444 46.9018 35.9456C46.9018 35.7075 47.1006 35.4694 47.3788 35.4694H49.4458C49.6843 35.4694 49.8832 35.6281 49.8832 35.8662C50.2012 37.9696 51.1155 39.0016 55.3291 39.0016C58.6683 39.0016 60.0994 38.2475 60.0994 36.4617C60.0994 35.4297 59.7019 34.6756 54.4944 34.1596C50.1615 33.723 47.4583 32.7706 47.4583 29.3179C47.4583 26.103 50.1613 24.1981 54.6931 24.1981C59.7813 24.1981 62.2857 25.9443 62.6037 29.7543C62.6037 29.8733 62.5639 29.9924 62.4844 30.1115C62.4049 30.1908 62.2857 30.2702 62.1664 30.2702H60.0994C59.9005 30.2702 59.7019 30.1115 59.662 29.913C59.185 27.7303 57.9528 27.0159 54.6931 27.0159C51.0361 27.0159 50.5987 28.2859 50.5987 29.2384C50.5987 30.3894 51.1155 30.7464 56.0446 31.3814C60.9342 32.0164 63.2397 32.9293 63.2397 36.3425C63.1999 39.835 60.3379 41.8193 55.2894 41.8193V41.8193Z" fill="#0EA5E9"/>
</g>
<defs>
<clipPath id="clip0">
<rect x="31.2" y="11.2" width="38.4" height="43.2" rx="10" fill="white"/>
</clipPath>
</defs>
</svg>
