<svg width="100" height="100" viewBox="0 0 100 100" fill="none" xmlns="http://www.w3.org/2000/svg">
<rect width="100" height="100" rx="10" fill="#1E293B"/>
<path d="M34.8672 84.8171H32.6641V89.2H30.6875V77.825H34.6875C36 77.825 37.013 78.1192 37.7266 78.7078C38.4401 79.2963 38.7969 80.1479 38.7969 81.2625C38.7969 82.0229 38.612 82.6609 38.2422 83.1765C37.8776 83.6869 37.3672 84.0802 36.7109 84.3562L39.2656 89.0984V89.2H37.1484L34.8672 84.8171ZM32.6641 83.2312H34.6953C35.362 83.2312 35.8828 83.0645 36.2578 82.7312C36.6328 82.3927 36.8203 81.9317 36.8203 81.3484C36.8203 80.739 36.6458 80.2677 36.2969 79.9343C35.9531 79.601 35.4375 79.4291 34.75 79.4187H32.6641V83.2312ZM44.2109 89.3562C43.0078 89.3562 42.0312 88.9786 41.2812 88.2234C40.5365 87.463 40.1641 86.4526 40.1641 85.1921V84.9578C40.1641 84.114 40.3255 83.3614 40.6484 82.7C40.9766 82.0333 41.4349 81.5151 42.0234 81.1453C42.612 80.7755 43.2682 80.5906 43.9922 80.5906C45.1432 80.5906 46.0312 80.9578 46.6562 81.6921C47.2865 82.4265 47.6016 83.4656 47.6016 84.8093V85.575H42.0781C42.1354 86.2729 42.3672 86.825 42.7734 87.2312C43.1849 87.6375 43.7005 87.8406 44.3203 87.8406C45.1901 87.8406 45.8984 87.489 46.4453 86.7859L47.4688 87.7625C47.1302 88.2677 46.6771 88.6609 46.1094 88.9421C45.5469 89.2182 44.9141 89.3562 44.2109 89.3562ZM43.9844 82.114C43.4635 82.114 43.0417 82.2963 42.7188 82.6609C42.401 83.0255 42.1979 83.5333 42.1094 84.1843H45.7266V84.0437C45.6849 83.4083 45.5156 82.9291 45.2188 82.6062C44.9219 82.2781 44.5104 82.114 43.9844 82.114ZM54.1328 89.2C54.0495 89.0385 53.9766 88.7755 53.9141 88.4109C53.3099 89.0411 52.5703 89.3562 51.6953 89.3562C50.8464 89.3562 50.1536 89.114 49.6172 88.6296C49.0807 88.1453 48.8125 87.5463 48.8125 86.8328C48.8125 85.9317 49.1458 85.2416 49.8125 84.7625C50.4844 84.2781 51.4427 84.0359 52.6875 84.0359H53.8516V83.4812C53.8516 83.0437 53.7292 82.6947 53.4844 82.4343C53.2396 82.1687 52.8672 82.0359 52.3672 82.0359C51.9349 82.0359 51.5807 82.1453 51.3047 82.364C51.0286 82.5776 50.8906 82.851 50.8906 83.1843H48.9922C48.9922 82.7208 49.1458 82.2885 49.4531 81.8875C49.7604 81.4812 50.1771 81.1635 50.7031 80.9343C51.2344 80.7052 51.8255 80.5906 52.4766 80.5906C53.4661 80.5906 54.2552 80.8406 54.8438 81.3406C55.4323 81.8354 55.7344 82.5333 55.75 83.4343V87.2468C55.75 88.0072 55.8568 88.614 56.0703 89.0671V89.2H54.1328ZM52.0469 87.8328C52.4219 87.8328 52.7734 87.7416 53.1016 87.5593C53.4349 87.377 53.6849 87.1322 53.8516 86.825V85.2312H52.8281C52.125 85.2312 51.5964 85.3536 51.2422 85.5984C50.888 85.8432 50.7109 86.1895 50.7109 86.6375C50.7109 87.002 50.8307 87.2937 51.0703 87.5125C51.3151 87.726 51.6406 87.8328 52.0469 87.8328ZM61.2109 87.8406C61.6849 87.8406 62.0781 87.7026 62.3906 87.4265C62.7031 87.1505 62.8698 86.8093 62.8906 86.4031H64.6797C64.6589 86.9291 64.4948 87.4213 64.1875 87.8796C63.8802 88.3328 63.4635 88.6921 62.9375 88.9578C62.4115 89.2234 61.8438 89.3562 61.2344 89.3562C60.0521 89.3562 59.1146 88.9734 58.4219 88.2078C57.7292 87.4421 57.3828 86.3848 57.3828 85.0359V84.8406C57.3828 83.5541 57.7266 82.5255 58.4141 81.7546C59.1016 80.9786 60.0391 80.5906 61.2266 80.5906C62.2318 80.5906 63.0495 80.8848 63.6797 81.4734C64.3151 82.0567 64.6484 82.825 64.6797 83.7781H62.8906C62.8698 83.2937 62.7031 82.8953 62.3906 82.5828C62.0833 82.2703 61.6901 82.114 61.2109 82.114C60.5964 82.114 60.1224 82.338 59.7891 82.7859C59.4557 83.2286 59.2865 83.9031 59.2812 84.8093V85.114C59.2812 86.0307 59.4453 86.7156 59.7734 87.1687C60.1068 87.6166 60.5859 87.8406 61.2109 87.8406ZM68.4922 78.6921V80.7468H69.9844V82.1531H68.4922V86.8718C68.4922 87.1947 68.5547 87.4291 68.6797 87.575C68.8099 87.7156 69.0391 87.7859 69.3672 87.7859C69.5859 87.7859 69.8073 87.7598 70.0312 87.7078V89.1765C69.599 89.2963 69.1823 89.3562 68.7812 89.3562C67.3229 89.3562 66.5938 88.5515 66.5938 86.9421V82.1531H65.2031V80.7468H66.5938V78.6921H68.4922Z" fill="#E2E8F0"/>
<g clip-path="url(#clip0)">
<path d="M64.1768 26.5651C63.7085 26.401 63.2363 26.2489 62.7605 26.1091C62.8404 25.7754 62.914 25.4458 62.9793 25.1219C64.0515 19.804 63.3506 15.5198 60.9565 14.1093C58.6611 12.757 54.9072 14.167 51.116 17.5384C50.7423 17.8712 50.377 18.2137 50.0203 18.5654C49.7815 18.3315 49.5385 18.1022 49.2914 17.8775C45.318 14.2728 41.3353 12.7535 38.9438 14.1681C36.6505 15.5246 35.9714 19.552 36.9366 24.5919C37.0327 25.091 37.1411 25.5876 37.2618 26.0811C36.6981 26.2448 36.1541 26.419 35.6335 26.6045C30.975 28.2641 28 30.8648 28 33.5625C28 36.3486 31.1938 39.1433 36.0458 40.8378C36.4286 40.9716 36.8261 41.0981 37.2354 41.218C37.1056 41.7496 36.9904 42.2847 36.8899 42.8228C35.9697 47.7752 36.6883 51.7075 38.9754 53.0554C41.3377 54.4473 45.3025 53.0167 49.163 49.5685C49.476 49.2881 49.7822 48.9999 50.0811 48.7039C50.4674 49.0847 50.864 49.4545 51.2705 49.8128C55.0102 53.1007 58.7034 54.4284 60.9883 53.0768C63.3483 51.6808 64.1154 47.4565 63.1196 42.317C63.0411 41.9144 62.9531 41.5137 62.8557 41.1155C63.1342 41.0312 63.4075 40.9444 63.6739 40.8541C68.718 39.1466 72 36.3859 72 33.5625C72 30.855 68.9289 28.2367 64.1768 26.5651V26.5651ZM63.0828 39.0312C62.8422 39.1125 62.5953 39.191 62.3437 39.2674C61.7868 37.4661 61.0354 35.5508 60.1157 33.5718C60.9933 31.64 61.7159 29.7491 62.2571 27.9595C62.7072 28.0927 63.144 28.233 63.5651 28.381C67.6368 29.8134 70.1204 31.9308 70.1204 33.5625C70.1204 35.3004 67.4381 37.5566 63.0828 39.0312V39.0312ZM61.2757 42.69C61.716 44.9625 61.7788 47.0173 61.4871 48.6237C61.2252 50.0671 60.6982 51.0293 60.0464 51.4148C58.6599 52.2349 55.6946 51.1689 52.4965 48.3569C52.1184 48.0238 51.7495 47.68 51.3901 47.326C52.63 45.9406 53.8691 44.33 55.0784 42.5411C57.2055 42.3483 59.2151 42.0329 61.0375 41.6024C61.1253 41.963 61.2047 42.3256 61.2757 42.69V42.69ZM43.0006 51.273C41.6458 51.7618 40.5668 51.7758 39.9145 51.3916C38.5267 50.5737 37.9497 47.4163 38.7367 43.1811C38.8302 42.6806 38.9374 42.1829 39.0579 41.6885C40.8602 42.0959 42.8552 42.3889 44.9873 42.5655C46.2048 44.3159 47.4796 45.9248 48.7644 47.3336C48.4914 47.6035 48.2119 47.8665 47.9262 48.1224C46.2189 49.6472 44.5083 50.729 43.0006 51.273V51.273ZM36.6539 39.0205C34.5084 38.2711 32.7365 37.2973 31.5221 36.2347C30.4307 35.2798 29.8798 34.3317 29.8798 33.5625C29.8798 31.9254 32.2683 29.8373 36.2522 28.4181C36.7357 28.246 37.2417 28.0835 37.7668 27.9311C38.3175 29.761 39.0397 31.6744 39.9113 33.6092C39.0284 35.5726 38.2958 37.5165 37.7398 39.3681C37.3751 39.2613 37.013 39.1454 36.6539 39.0205V39.0205ZM38.7814 24.2229C37.9545 19.905 38.5036 16.6478 39.8857 15.8303C41.3576 14.9596 44.6126 16.201 48.0434 19.3137C48.2671 19.5171 48.4872 19.7247 48.7035 19.9363C47.4251 21.3389 46.162 22.9358 44.9553 24.6758C42.8859 24.8718 40.9051 25.1865 39.0839 25.6082C38.9717 25.1492 38.8708 24.6873 38.7814 24.2231V24.2229ZM57.761 29.0117C57.3309 28.2525 56.8847 27.5028 56.423 26.7632C57.8268 26.9447 59.1719 27.1854 60.435 27.4798C60.0559 28.7217 59.5832 30.0201 59.0269 31.3513C58.6202 30.5629 58.1982 29.7828 57.761 29.0117V29.0117ZM50.0211 21.3089C50.8881 22.2686 51.7564 23.3401 52.6104 24.5027C50.8779 24.4191 49.1425 24.4187 47.41 24.5016C48.2649 23.3497 49.1406 22.2797 50.0211 21.3089ZM42.2316 29.0248C41.7999 29.7898 41.3857 30.565 40.9895 31.3497C40.4422 30.0232 39.9738 28.7189 39.5914 27.4594C40.8468 27.1724 42.1855 26.9378 43.5805 26.7597C43.1136 27.5038 42.6638 28.259 42.2316 29.0247V29.0248ZM43.6205 40.5018C42.1793 40.3375 40.8205 40.115 39.5655 39.8357C39.9539 38.5537 40.4326 37.2216 40.9917 35.8668C41.3895 36.652 41.8054 37.4277 42.239 38.193C42.6848 38.9798 43.1465 39.7504 43.6205 40.5018ZM50.073 45.9513C49.182 44.9692 48.2935 43.8827 47.4257 42.7141C48.2682 42.7478 49.127 42.765 50 42.765C50.8968 42.765 51.7834 42.7445 52.656 42.7048C51.7992 43.8944 50.9341 44.9826 50.073 45.9513ZM59.0446 35.7976C59.6327 37.1674 60.1284 38.4924 60.522 39.7525C59.2464 40.05 57.869 40.2895 56.4176 40.4674C56.8827 39.7141 57.333 38.9514 57.7684 38.1798C58.211 37.3955 58.6365 36.6012 59.0446 35.7976V35.7976ZM56.1402 37.2202C55.4737 38.4033 54.7698 39.5638 54.0294 40.7001C52.7237 40.7955 51.3748 40.8446 50 40.8446C48.6307 40.8446 47.2988 40.8011 46.0163 40.7161C45.2566 39.5824 44.5392 38.4198 43.8656 37.2308H43.8658C43.1953 36.048 42.5691 34.8396 41.9884 33.6083C42.5676 32.3767 43.192 31.1677 43.8601 29.9841L43.8599 29.9842C44.5278 28.8003 45.2395 27.6426 45.9934 26.5139C47.3019 26.4127 48.6437 26.36 49.9998 26.36H50C51.3623 26.36 52.7058 26.4132 54.014 26.5151C54.7603 27.6422 55.4674 28.7958 56.134 29.9739C56.8044 31.155 57.437 32.358 58.0309 33.5811C57.4431 34.8167 56.8125 36.0305 56.1402 37.2202V37.2202ZM60.0177 15.7731C61.491 16.6413 62.0641 20.1426 61.1384 24.7341C61.0777 25.0333 61.0118 25.3313 60.9407 25.628C59.115 25.1974 57.1328 24.8773 55.0574 24.6783C53.8485 22.9191 52.5957 21.3198 51.338 19.9352C51.6676 19.6106 52.0051 19.2944 52.35 18.9869C55.5985 16.0985 58.6345 14.958 60.0177 15.7731V15.7731ZM50 29.5478C52.1699 29.5478 53.9291 31.3453 53.9291 33.5625C53.9291 35.7796 52.1699 37.5771 50 37.5771C47.8301 37.5771 46.0709 35.7796 46.0709 33.5625C46.0709 31.3453 47.8301 29.5478 50 29.5478V29.5478Z" fill="#0EA5E9"/>
</g>
<defs>
<clipPath id="clip0">
<rect width="44" height="40" fill="white" transform="translate(28 13.6001)"/>
</clipPath>
</defs>
</svg>
