<svg width="100" height="100" viewBox="0 0 100 100" fill="none" xmlns="http://www.w3.org/2000/svg">
<rect width="100" height="100" rx="10" fill="#1E293B"/>
<path d="M29.7891 79.4187H26.2422V89.2H24.2812V79.4187H20.7656V77.825H29.7891V79.4187ZM34.8438 89.2C34.7604 89.0385 34.6875 88.7755 34.625 88.4109C34.0208 89.0411 33.2812 89.3562 32.4062 89.3562C31.5573 89.3562 30.8646 89.114 30.3281 88.6296C29.7917 88.1453 29.5234 87.5463 29.5234 86.8328C29.5234 85.9317 29.8568 85.2416 30.5234 84.7625C31.1953 84.2781 32.1536 84.0359 33.3984 84.0359H34.5625V83.4812C34.5625 83.0437 34.4401 82.6947 34.1953 82.4343C33.9505 82.1687 33.5781 82.0359 33.0781 82.0359C32.6458 82.0359 32.2917 82.1453 32.0156 82.364C31.7396 82.5776 31.6016 82.851 31.6016 83.1843H29.7031C29.7031 82.7208 29.8568 82.2885 30.1641 81.8875C30.4714 81.4812 30.888 81.1635 31.4141 80.9343C31.9453 80.7052 32.5365 80.5906 33.1875 80.5906C34.1771 80.5906 34.9661 80.8406 35.5547 81.3406C36.1432 81.8354 36.4453 82.5333 36.4609 83.4343V87.2468C36.4609 88.0072 36.5677 88.614 36.7812 89.0671V89.2H34.8438ZM32.7578 87.8328C33.1328 87.8328 33.4844 87.7416 33.8125 87.5593C34.1458 87.377 34.3958 87.1322 34.5625 86.825V85.2312H33.5391C32.8359 85.2312 32.3073 85.3536 31.9531 85.5984C31.599 85.8432 31.4219 86.1895 31.4219 86.6375C31.4219 87.002 31.5417 87.2937 31.7812 87.5125C32.026 87.726 32.3516 87.8328 32.7578 87.8328ZM40.4688 89.2H38.5703V80.7468H40.4688V89.2ZM38.4531 78.5515C38.4531 78.2598 38.5443 78.0177 38.7266 77.825C38.9141 77.6322 39.1797 77.5359 39.5234 77.5359C39.8672 77.5359 40.1328 77.6322 40.3203 77.825C40.5078 78.0177 40.6016 78.2598 40.6016 78.5515C40.6016 78.838 40.5078 79.0776 40.3203 79.2703C40.1328 79.4578 39.8672 79.5515 39.5234 79.5515C39.1797 79.5515 38.9141 79.4578 38.7266 79.2703C38.5443 79.0776 38.4531 78.838 38.4531 78.5515ZM44.5625 89.2H42.6641V77.2H44.5625V89.2ZM54.0625 86.5828L55.4062 80.7468H57.2578L54.9531 89.2H53.3906L51.5781 83.3953L49.7969 89.2H48.2344L45.9219 80.7468H47.7734L49.1406 86.5203L50.875 80.7468H52.3047L54.0625 86.5828ZM60.5469 89.2H58.6484V80.7468H60.5469V89.2ZM58.5312 78.5515C58.5312 78.2598 58.6224 78.0177 58.8047 77.825C58.9922 77.6322 59.2578 77.5359 59.6016 77.5359C59.9453 77.5359 60.2109 77.6322 60.3984 77.825C60.5859 78.0177 60.6797 78.2598 60.6797 78.5515C60.6797 78.838 60.5859 79.0776 60.3984 79.2703C60.2109 79.4578 59.9453 79.5515 59.6016 79.5515C59.2578 79.5515 58.9922 79.4578 58.8047 79.2703C58.6224 79.0776 58.5312 78.838 58.5312 78.5515ZM64.3828 80.7468L64.4375 81.7234C65.0625 80.9682 65.8828 80.5906 66.8984 80.5906C68.6589 80.5906 69.5547 81.5984 69.5859 83.614V89.2H67.6875V83.7234C67.6875 83.1869 67.5703 82.7911 67.3359 82.5359C67.1068 82.2755 66.7292 82.1453 66.2031 82.1453C65.4375 82.1453 64.8672 82.4916 64.4922 83.1843V89.2H62.5938V80.7468H64.3828ZM71.1719 84.9109C71.1719 83.6088 71.474 82.5645 72.0781 81.7781C72.6823 80.9864 73.4922 80.5906 74.5078 80.5906C75.4036 80.5906 76.1276 80.9031 76.6797 81.5281V77.2H78.5781V89.2H76.8594L76.7656 88.325C76.1979 89.0125 75.4401 89.3562 74.4922 89.3562C73.5026 89.3562 72.7005 88.9578 72.0859 88.1609C71.4766 87.364 71.1719 86.2807 71.1719 84.9109ZM73.0703 85.075C73.0703 85.9343 73.2344 86.6062 73.5625 87.0906C73.8958 87.5697 74.3672 87.8093 74.9766 87.8093C75.7526 87.8093 76.3203 87.463 76.6797 86.7703V83.1609C76.3307 82.4838 75.7682 82.1453 74.9922 82.1453C74.3776 82.1453 73.9036 82.3901 73.5703 82.8796C73.237 83.364 73.0703 84.0958 73.0703 85.075Z" fill="#E2E8F0"/>
<g clip-path="url(#clip0)">
<path d="M50.4 16C42.0801 16 36.8799 20.1779 34.8 28.5333C37.92 24.3555 41.5599 22.7888 45.72 23.8333C48.0934 24.4292 49.7899 26.1586 51.6678 28.0726C54.7268 31.191 58.267 34.8 66 34.8C74.3199 34.8 79.5201 30.6221 81.6 22.2667C78.48 26.4445 74.8401 28.0112 70.68 26.9667C68.3066 26.3708 66.6101 24.6414 64.7323 22.7274C61.6732 19.609 58.133 16 50.4 16ZM34.8 34.8C26.4801 34.8 21.2799 38.9779 19.2 47.3333C22.32 43.1555 25.9599 41.5888 30.12 42.6333C32.4934 43.2292 34.1899 44.9586 36.0678 46.8726C39.1268 49.991 42.667 53.6 50.4 53.6C58.7199 53.6 63.9201 49.4221 66 41.0667C62.88 45.2445 59.2401 46.8112 55.08 45.7667C52.7066 45.1708 51.0101 43.4414 49.1323 41.5274C46.0732 38.409 42.533 34.8 34.8 34.8Z" fill="#0EA5E9"/>
</g>
<defs>
<clipPath id="clip0">
<rect width="62.4" height="37.6" fill="white" transform="translate(19.2 16)"/>
</clipPath>
</defs>
</svg>
