<svg width="21" height="20" viewBox="0 0 21 20" fill="none" xmlns="http://www.w3.org/2000/svg">
<g clip-path="url(#clip0)">
<path d="M18.7897 5.92641C18.803 6.10406 18.803 6.28176 18.803 6.45941C18.803 11.8782 14.4843 18.1218 6.59101 18.1218C4.15924 18.1218 1.90024 17.4492 0 16.2818C0.345509 16.3198 0.677683 16.3325 1.03649 16.3325C3.04299 16.3325 4.89009 15.6853 6.3651 14.5813C4.47816 14.5432 2.89684 13.363 2.35201 11.7386C2.6178 11.7766 2.88355 11.802 3.16263 11.802C3.54798 11.802 3.93337 11.7513 4.29213 11.6625C2.32547 11.2817 0.850417 9.63199 0.850417 7.63961V7.58887C1.42179 7.89344 2.08626 8.08379 2.79049 8.10914C1.63441 7.37309 0.877004 6.11676 0.877004 4.69543C0.877004 3.93402 1.08958 3.23606 1.46167 2.62692C3.57453 5.11422 6.75045 6.73856 10.3117 6.91625C10.2453 6.61168 10.2054 6.29445 10.2054 5.97719C10.2054 3.71828 12.1189 1.8782 14.4975 1.8782C15.7333 1.8782 16.8495 2.37313 17.6335 3.17262C18.6036 2.99496 19.5337 2.65231 20.3577 2.18277C20.0387 3.13457 19.361 3.93406 18.4707 4.44164C19.3345 4.35285 20.1716 4.12438 20.9423 3.80715C20.3577 4.6193 19.6268 5.34262 18.7897 5.92641Z" fill="#E4E4E7"/>
</g>
<defs>
<clipPath id="clip0">
<rect width="20.9424" height="20" fill="white"/>
</clipPath>
</defs>
</svg>
