<svg width="100" height="100" viewBox="0 0 100 100" fill="none" xmlns="http://www.w3.org/2000/svg">
<rect width="100" height="100" rx="10" fill="#1E293B"/>
<path d="M20.9453 86.3875L22.6953 77.825H24.6562L22.0312 89.2H20.1406L17.9766 80.8953L15.7656 89.2H13.8672L11.2422 77.825H13.2031L14.9688 86.3718L17.1406 77.825H18.7969L20.9453 86.3875ZM25.3125 84.8953C25.3125 84.0671 25.4766 83.3223 25.8047 82.6609C26.1328 81.9942 26.5938 81.4838 27.1875 81.1296C27.7812 80.7703 28.4635 80.5906 29.2344 80.5906C30.375 80.5906 31.2995 80.9578 32.0078 81.6921C32.7214 82.4265 33.1068 83.4005 33.1641 84.614L33.1719 85.0593C33.1719 85.8927 33.0104 86.6375 32.6875 87.2937C32.3698 87.95 31.9115 88.4578 31.3125 88.8171C30.7188 89.1765 30.0312 89.3562 29.25 89.3562C28.0573 89.3562 27.1016 88.9604 26.3828 88.1687C25.6693 87.3718 25.3125 86.3119 25.3125 84.989V84.8953ZM27.2109 85.0593C27.2109 85.9291 27.3906 86.6114 27.75 87.1062C28.1094 87.5958 28.6094 87.8406 29.25 87.8406C29.8906 87.8406 30.388 87.5906 30.7422 87.0906C31.1016 86.5906 31.2812 85.8588 31.2812 84.8953C31.2812 84.0411 31.0964 83.364 30.7266 82.864C30.362 82.364 29.8646 82.114 29.2344 82.114C28.6146 82.114 28.1224 82.3614 27.7578 82.8562C27.3932 83.3458 27.2109 84.0802 27.2109 85.0593ZM39.2031 82.4812C38.9531 82.4395 38.6953 82.4187 38.4297 82.4187C37.5599 82.4187 36.974 82.752 36.6719 83.4187V89.2H34.7734V80.7468H36.5859L36.6328 81.6921C37.0911 80.9578 37.7266 80.5906 38.5391 80.5906C38.8099 80.5906 39.0339 80.627 39.2109 80.7L39.2031 82.4812ZM39.8906 84.9109C39.8906 83.6088 40.1927 82.5645 40.7969 81.7781C41.401 80.9864 42.2109 80.5906 43.2266 80.5906C44.1224 80.5906 44.8464 80.9031 45.3984 81.5281V77.2H47.2969V89.2H45.5781L45.4844 88.325C44.9167 89.0125 44.1589 89.3562 43.2109 89.3562C42.2214 89.3562 41.4193 88.9578 40.8047 88.1609C40.1953 87.364 39.8906 86.2807 39.8906 84.9109ZM41.7891 85.075C41.7891 85.9343 41.9531 86.6062 42.2812 87.0906C42.6146 87.5697 43.0859 87.8093 43.6953 87.8093C44.4714 87.8093 45.0391 87.463 45.3984 86.7703V83.1609C45.0495 82.4838 44.487 82.1453 43.7109 82.1453C43.0964 82.1453 42.6224 82.3901 42.2891 82.8796C41.9557 83.364 41.7891 84.0958 41.7891 85.075ZM51.4375 84.9734V89.2H49.4609V77.825H53.8125C55.0833 77.825 56.0911 78.1557 56.8359 78.8171C57.5859 79.4786 57.9609 80.3536 57.9609 81.4421C57.9609 82.5567 57.5938 83.4239 56.8594 84.0437C56.1302 84.6635 55.1068 84.9734 53.7891 84.9734H51.4375ZM51.4375 83.3875H53.8125C54.5156 83.3875 55.0521 83.2234 55.4219 82.8953C55.7917 82.5619 55.9766 82.0828 55.9766 81.4578C55.9766 80.8432 55.7891 80.3536 55.4141 79.989C55.0391 79.6192 54.5234 79.4291 53.8672 79.4187H51.4375V83.3875ZM63.9375 82.4812C63.6875 82.4395 63.4297 82.4187 63.1641 82.4187C62.2943 82.4187 61.7083 82.752 61.4062 83.4187V89.2H59.5078V80.7468H61.3203L61.3672 81.6921C61.8255 80.9578 62.4609 80.5906 63.2734 80.5906C63.5443 80.5906 63.7682 80.627 63.9453 80.7L63.9375 82.4812ZM68.7031 89.3562C67.5 89.3562 66.5234 88.9786 65.7734 88.2234C65.0286 87.463 64.6562 86.4526 64.6562 85.1921V84.9578C64.6562 84.114 64.8177 83.3614 65.1406 82.7C65.4688 82.0333 65.9271 81.5151 66.5156 81.1453C67.1042 80.7755 67.7604 80.5906 68.4844 80.5906C69.6354 80.5906 70.5234 80.9578 71.1484 81.6921C71.7786 82.4265 72.0938 83.4656 72.0938 84.8093V85.575H66.5703C66.6276 86.2729 66.8594 86.825 67.2656 87.2312C67.6771 87.6375 68.1927 87.8406 68.8125 87.8406C69.6823 87.8406 70.3906 87.489 70.9375 86.7859L71.9609 87.7625C71.6224 88.2677 71.1693 88.6609 70.6016 88.9421C70.0391 89.2182 69.4062 89.3562 68.7031 89.3562ZM68.4766 82.114C67.9557 82.114 67.5339 82.2963 67.2109 82.6609C66.8932 83.0255 66.6901 83.5333 66.6016 84.1843H70.2188V84.0437C70.1771 83.4083 70.0078 82.9291 69.7109 82.6062C69.4141 82.2781 69.0026 82.114 68.4766 82.114ZM78.3125 86.9031C78.3125 86.5645 78.1719 86.3067 77.8906 86.1296C77.6146 85.9526 77.1536 85.7963 76.5078 85.6609C75.862 85.5255 75.3229 85.3536 74.8906 85.1453C73.9427 84.6869 73.4688 84.0229 73.4688 83.1531C73.4688 82.4239 73.776 81.8145 74.3906 81.325C75.0052 80.8354 75.7865 80.5906 76.7344 80.5906C77.7448 80.5906 78.5599 80.8406 79.1797 81.3406C79.8047 81.8406 80.1172 82.489 80.1172 83.2859H78.2188C78.2188 82.9213 78.0833 82.6192 77.8125 82.3796C77.5417 82.1348 77.1823 82.0125 76.7344 82.0125C76.3177 82.0125 75.9766 82.1088 75.7109 82.3015C75.4505 82.4942 75.3203 82.752 75.3203 83.075C75.3203 83.3666 75.4427 83.5932 75.6875 83.7546C75.9323 83.9161 76.4271 84.0802 77.1719 84.2468C77.9167 84.4083 78.5 84.6036 78.9219 84.8328C79.349 85.0567 79.6641 85.3276 79.8672 85.6453C80.0755 85.963 80.1797 86.3484 80.1797 86.8015C80.1797 87.5619 79.8646 88.1791 79.2344 88.6531C78.6042 89.1218 77.7786 89.3562 76.7578 89.3562C76.0651 89.3562 75.4479 89.2312 74.9062 88.9812C74.3646 88.7312 73.9427 88.3875 73.6406 87.95C73.3385 87.5125 73.1875 87.0411 73.1875 86.5359H75.0312C75.0573 86.9838 75.2266 87.3302 75.5391 87.575C75.8516 87.8145 76.2656 87.9343 76.7812 87.9343C77.2812 87.9343 77.6615 87.8406 77.9219 87.6531C78.1823 87.4604 78.3125 87.2104 78.3125 86.9031ZM86.5781 86.9031C86.5781 86.5645 86.4375 86.3067 86.1562 86.1296C85.8802 85.9526 85.4193 85.7963 84.7734 85.6609C84.1276 85.5255 83.5885 85.3536 83.1562 85.1453C82.2083 84.6869 81.7344 84.0229 81.7344 83.1531C81.7344 82.4239 82.0417 81.8145 82.6562 81.325C83.2708 80.8354 84.0521 80.5906 85 80.5906C86.0104 80.5906 86.8255 80.8406 87.4453 81.3406C88.0703 81.8406 88.3828 82.489 88.3828 83.2859H86.4844C86.4844 82.9213 86.349 82.6192 86.0781 82.3796C85.8073 82.1348 85.4479 82.0125 85 82.0125C84.5833 82.0125 84.2422 82.1088 83.9766 82.3015C83.7161 82.4942 83.5859 82.752 83.5859 83.075C83.5859 83.3666 83.7083 83.5932 83.9531 83.7546C84.1979 83.9161 84.6927 84.0802 85.4375 84.2468C86.1823 84.4083 86.7656 84.6036 87.1875 84.8328C87.6146 85.0567 87.9297 85.3276 88.1328 85.6453C88.3411 85.963 88.4453 86.3484 88.4453 86.8015C88.4453 87.5619 88.1302 88.1791 87.5 88.6531C86.8698 89.1218 86.0443 89.3562 85.0234 89.3562C84.3307 89.3562 83.7135 89.2312 83.1719 88.9812C82.6302 88.7312 82.2083 88.3875 81.9062 87.95C81.6042 87.5125 81.4531 87.0411 81.4531 86.5359H83.2969C83.3229 86.9838 83.4922 87.3302 83.8047 87.575C84.1172 87.8145 84.5312 87.9343 85.0469 87.9343C85.5469 87.9343 85.9271 87.8406 86.1875 87.6531C86.4479 87.4604 86.5781 87.2104 86.5781 86.9031Z" fill="#E2E8F0"/>
<g clip-path="url(#clip0)">
<path d="M27.8702 31.9993C27.8702 39.334 32.1324 45.6723 38.3131 48.6761L29.4745 24.4583C28.4149 26.831 27.8683 29.4007 27.8702 31.9993V31.9993ZM58.9081 31.0642C58.9081 28.7743 58.0855 27.1883 57.3801 25.954C56.4407 24.4277 55.5604 23.1351 55.5604 21.6087C55.5604 19.9053 56.8522 18.3197 58.6719 18.3197C58.7541 18.3197 58.8318 18.3298 58.912 18.3346C55.6154 15.3142 51.2234 13.4702 46.3995 13.4702C39.9262 13.4702 34.2311 16.7916 30.9179 21.8223C31.3526 21.8354 31.7622 21.8444 32.1103 21.8444C34.0483 21.8444 37.0484 21.6094 37.0484 21.6094C38.0473 21.5504 38.1651 23.0175 37.1673 23.1358C37.1673 23.1358 36.1634 23.2538 35.0464 23.3123L41.7943 43.3835L45.8493 31.2217L42.9623 23.3118C41.9646 23.2533 41.0193 23.1353 41.0193 23.1353C40.0209 23.0766 40.1379 21.5499 41.1364 21.6089C41.1364 21.6089 44.1964 21.844 46.017 21.844C47.9549 21.844 50.9552 21.6089 50.9552 21.6089C51.9547 21.5499 52.0722 23.017 51.0741 23.1353C51.0741 23.1353 50.0682 23.2533 48.9532 23.3118L55.6495 43.2308L57.4976 37.0546C58.2986 34.4916 58.9082 32.6508 58.9082 31.0644L58.9081 31.0642ZM46.7246 33.6202L41.1652 49.7754C42.8649 50.276 44.6276 50.5302 46.3995 50.5302C48.5572 50.5302 50.6264 50.1572 52.5526 49.4799C52.5012 49.3989 52.4571 49.3134 52.4207 49.2246L46.7246 33.6202ZM62.6581 23.1093C62.7377 23.6995 62.7829 24.3331 62.7829 25.0147C62.7829 26.8951 62.4318 29.0088 61.374 31.6517L55.7142 48.0164C61.2228 44.8039 64.9279 38.8357 64.9279 31.9998C64.9282 28.7782 64.1053 25.7487 62.6579 23.1093H62.6581ZM46.3995 10.3999C34.4897 10.3999 24.8 20.0893 24.8 31.9993C24.8 43.9108 34.4897 53.5999 46.3995 53.5999C58.3087 53.5999 67.9998 43.9108 67.9998 31.9993C67.9997 20.0893 58.3089 10.3999 46.3997 10.3999H46.3995ZM46.3995 52.6099C35.0361 52.6099 25.7903 43.364 25.7903 31.9993C25.7903 20.6355 35.0356 11.3903 46.3995 11.3903C57.7626 11.3903 67.0075 20.6355 67.0075 31.9993C67.0075 43.364 57.7626 52.6099 46.3995 52.6099V52.6099Z" fill="#0EA5E9"/>
</g>
<defs>
<clipPath id="clip0">
<rect x="24.8" y="10.3999" width="43.2" height="43.2" rx="10" fill="white"/>
</clipPath>
</defs>
</svg>
