<svg width="100" height="100" viewBox="0 0 100 100" fill="none" xmlns="http://www.w3.org/2000/svg">
<rect width="100" height="100" rx="10" fill="#1E293B"/>
<path d="M44.9531 85.4968C44.8385 86.7104 44.3906 87.6583 43.6094 88.3406C42.8281 89.0177 41.7891 89.3562 40.4922 89.3562C39.5859 89.3562 38.7865 89.1427 38.0938 88.7156C37.4062 88.2833 36.875 87.6713 36.5 86.8796C36.125 86.088 35.9297 85.1687 35.9141 84.1218V83.0593C35.9141 81.9864 36.1042 81.0411 36.4844 80.2234C36.8646 79.4057 37.4089 78.7755 38.1172 78.3328C38.8307 77.8901 39.6536 77.6687 40.5859 77.6687C41.8411 77.6687 42.8516 78.0098 43.6172 78.6921C44.3828 79.3744 44.8281 80.338 44.9531 81.5828H42.9844C42.8906 80.7651 42.651 80.1765 42.2656 79.8171C41.8854 79.4526 41.3255 79.2703 40.5859 79.2703C39.7266 79.2703 39.0651 79.5854 38.6016 80.2156C38.1432 80.8406 37.9089 81.7598 37.8984 82.9734V83.9812C37.8984 85.2104 38.1172 86.1479 38.5547 86.7937C38.9974 87.4395 39.6432 87.7625 40.4922 87.7625C41.2682 87.7625 41.8516 87.588 42.2422 87.239C42.6328 86.8901 42.8802 86.3093 42.9844 85.4968H44.9531ZM52.6719 86.2703C52.6719 85.7703 52.4948 85.3848 52.1406 85.114C51.7917 84.8432 51.1589 84.5697 50.2422 84.2937C49.3255 84.0177 48.5964 83.7104 48.0547 83.3718C47.0182 82.7208 46.5 81.8718 46.5 80.825C46.5 79.9083 46.8724 79.1531 47.6172 78.5593C48.3672 77.9656 49.3385 77.6687 50.5312 77.6687C51.3229 77.6687 52.0286 77.8145 52.6484 78.1062C53.2682 78.3979 53.7552 78.8145 54.1094 79.3562C54.4635 79.8927 54.6406 80.489 54.6406 81.1453H52.6719C52.6719 80.5515 52.4844 80.088 52.1094 79.7546C51.7396 79.4161 51.2083 79.2468 50.5156 79.2468C49.8698 79.2468 49.3672 79.3848 49.0078 79.6609C48.6536 79.9369 48.4766 80.3223 48.4766 80.8171C48.4766 81.2338 48.6693 81.5828 49.0547 81.864C49.4401 82.1401 50.0755 82.4109 50.9609 82.6765C51.8464 82.9369 52.5573 83.2364 53.0938 83.575C53.6302 83.9083 54.0234 84.2937 54.2734 84.7312C54.5234 85.1635 54.6484 85.6713 54.6484 86.2546C54.6484 87.2026 54.2839 87.9578 53.5547 88.5203C52.8307 89.0776 51.8464 89.3562 50.6016 89.3562C49.7786 89.3562 49.0208 89.2052 48.3281 88.9031C47.6406 88.5958 47.1042 88.1739 46.7188 87.6375C46.3385 87.101 46.1484 86.476 46.1484 85.7625H48.125C48.125 86.4083 48.3385 86.9083 48.7656 87.2625C49.1927 87.6166 49.8047 87.7937 50.6016 87.7937C51.2891 87.7937 51.8047 87.6557 52.1484 87.3796C52.4974 87.0984 52.6719 86.7286 52.6719 86.2703ZM62.3281 86.2703C62.3281 85.7703 62.151 85.3848 61.7969 85.114C61.4479 84.8432 60.8151 84.5697 59.8984 84.2937C58.9818 84.0177 58.2526 83.7104 57.7109 83.3718C56.6745 82.7208 56.1562 81.8718 56.1562 80.825C56.1562 79.9083 56.5286 79.1531 57.2734 78.5593C58.0234 77.9656 58.9948 77.6687 60.1875 77.6687C60.9792 77.6687 61.6849 77.8145 62.3047 78.1062C62.9245 78.3979 63.4115 78.8145 63.7656 79.3562C64.1198 79.8927 64.2969 80.489 64.2969 81.1453H62.3281C62.3281 80.5515 62.1406 80.088 61.7656 79.7546C61.3958 79.4161 60.8646 79.2468 60.1719 79.2468C59.526 79.2468 59.0234 79.3848 58.6641 79.6609C58.3099 79.9369 58.1328 80.3223 58.1328 80.8171C58.1328 81.2338 58.3255 81.5828 58.7109 81.864C59.0964 82.1401 59.7318 82.4109 60.6172 82.6765C61.5026 82.9369 62.2135 83.2364 62.75 83.575C63.2865 83.9083 63.6797 84.2937 63.9297 84.7312C64.1797 85.1635 64.3047 85.6713 64.3047 86.2546C64.3047 87.2026 63.9401 87.9578 63.2109 88.5203C62.487 89.0776 61.5026 89.3562 60.2578 89.3562C59.4349 89.3562 58.6771 89.2052 57.9844 88.9031C57.2969 88.5958 56.7604 88.1739 56.375 87.6375C55.9948 87.101 55.8047 86.476 55.8047 85.7625H57.7812C57.7812 86.4083 57.9948 86.9083 58.4219 87.2625C58.849 87.6166 59.4609 87.7937 60.2578 87.7937C60.9453 87.7937 61.4609 87.6557 61.8047 87.3796C62.1536 87.0984 62.3281 86.7286 62.3281 86.2703Z" fill="#E2E8F0"/>
<g clip-path="url(#clip0)">
<path d="M49.977 55.9999L34.6219 51.7591L31.2 13.5764H68.8L65.3744 51.7532L49.977 55.9999Z" fill="#0EA5E9"/>
<path d="M39.0444 30.8597L39.4664 35.5427H50V30.8597H39.0444ZM38.1968 21.3813L38.6246 26.0643H50V21.3813H38.1968ZM50 43.0219L49.9794 43.0273L44.7369 41.619L44.4019 37.8842H39.6767L40.3361 45.2372L49.9782 47.9L50 47.8941V43.0219Z" fill="#1E293B"/>
<path d="M60.9254 30.8597L61.7751 21.3813H49.9836V26.0643H56.6165L56.1882 30.8597H49.9836V35.5427H55.7799L55.2336 41.6161L49.9836 43.0258V47.8978L59.6335 45.2372L59.7043 44.4459L60.8104 32.1172L60.9254 30.8597Z" fill="#1E293B"/>
</g>
<defs>
<clipPath id="clip0">
<rect width="37.6" height="52.8" fill="white" transform="translate(31.2 3.19995)"/>
</clipPath>
</defs>
</svg>
