<svg width="100" height="100" viewBox="0 0 100 100" fill="none" xmlns="http://www.w3.org/2000/svg">
<rect width="100" height="100" rx="10" fill="#1E293B"/>
<path d="M35.4375 84.3796H30.8594V89.2H28.8828V77.825H36.1094V79.4187H30.8594V82.8015H35.4375V84.3796ZM39.5156 89.2H37.6172V80.7468H39.5156V89.2ZM37.5 78.5515C37.5 78.2598 37.5911 78.0177 37.7734 77.825C37.9609 77.6322 38.2266 77.5359 38.5703 77.5359C38.9141 77.5359 39.1797 77.6322 39.3672 77.825C39.5547 78.0177 39.6484 78.2598 39.6484 78.5515C39.6484 78.838 39.5547 79.0776 39.3672 79.2703C39.1797 79.4578 38.9141 79.5515 38.5703 79.5515C38.2266 79.5515 37.9609 79.4578 37.7734 79.2703C37.5911 79.0776 37.5 78.838 37.5 78.5515ZM41.2578 84.9109C41.2578 83.5984 41.5651 82.5515 42.1797 81.7703C42.7995 80.9838 43.6198 80.5906 44.6406 80.5906C45.6042 80.5906 46.362 80.9265 46.9141 81.5984L47 80.7468H48.7109V88.9421C48.7109 90.0515 48.3646 90.9265 47.6719 91.5671C46.9844 92.2078 46.0547 92.5281 44.8828 92.5281C44.263 92.5281 43.6562 92.3979 43.0625 92.1375C42.474 91.8822 42.026 91.5463 41.7188 91.1296L42.6172 89.989C43.2005 90.6817 43.9193 91.0281 44.7734 91.0281C45.4036 91.0281 45.901 90.8562 46.2656 90.5125C46.6302 90.1739 46.8125 89.6739 46.8125 89.0125V88.4421C46.2656 89.0515 45.5365 89.3562 44.625 89.3562C43.6354 89.3562 42.8255 88.963 42.1953 88.1765C41.5703 87.3901 41.2578 86.3015 41.2578 84.9109ZM43.1484 85.075C43.1484 85.9239 43.3203 86.5932 43.6641 87.0828C44.013 87.5671 44.4948 87.8093 45.1094 87.8093C45.875 87.8093 46.4427 87.4812 46.8125 86.825V83.1062C46.4531 82.4656 45.8906 82.1453 45.125 82.1453C44.5 82.1453 44.013 82.3927 43.6641 82.8875C43.3203 83.3822 43.1484 84.1114 43.1484 85.075ZM52.4531 80.7468L52.5078 81.6296C53.1016 80.9369 53.9141 80.5906 54.9453 80.5906C56.0755 80.5906 56.849 81.0229 57.2656 81.8875C57.8802 81.0229 58.7448 80.5906 59.8594 80.5906C60.7917 80.5906 61.4844 80.8484 61.9375 81.364C62.3958 81.8796 62.6302 82.6401 62.6406 83.6453V89.2H60.7422V83.7C60.7422 83.1635 60.625 82.7703 60.3906 82.5203C60.1562 82.2703 59.7682 82.1453 59.2266 82.1453C58.7943 82.1453 58.4401 82.2625 58.1641 82.4968C57.8932 82.726 57.7031 83.0281 57.5938 83.4031L57.6016 89.2H55.7031V83.6375C55.6771 82.6427 55.1693 82.1453 54.1797 82.1453C53.4193 82.1453 52.8802 82.4552 52.5625 83.075V89.2H50.6641V80.7468H52.4531ZM69.6406 89.2C69.5573 89.0385 69.4844 88.7755 69.4219 88.4109C68.8177 89.0411 68.0781 89.3562 67.2031 89.3562C66.3542 89.3562 65.6615 89.114 65.125 88.6296C64.5885 88.1453 64.3203 87.5463 64.3203 86.8328C64.3203 85.9317 64.6536 85.2416 65.3203 84.7625C65.9922 84.2781 66.9505 84.0359 68.1953 84.0359H69.3594V83.4812C69.3594 83.0437 69.237 82.6947 68.9922 82.4343C68.7474 82.1687 68.375 82.0359 67.875 82.0359C67.4427 82.0359 67.0885 82.1453 66.8125 82.364C66.5365 82.5776 66.3984 82.851 66.3984 83.1843H64.5C64.5 82.7208 64.6536 82.2885 64.9609 81.8875C65.2682 81.4812 65.6849 81.1635 66.2109 80.9343C66.7422 80.7052 67.3333 80.5906 67.9844 80.5906C68.974 80.5906 69.763 80.8406 70.3516 81.3406C70.9401 81.8354 71.2422 82.5333 71.2578 83.4343V87.2468C71.2578 88.0072 71.3646 88.614 71.5781 89.0671V89.2H69.6406ZM67.5547 87.8328C67.9297 87.8328 68.2812 87.7416 68.6094 87.5593C68.9427 87.377 69.1927 87.1322 69.3594 86.825V85.2312H68.3359C67.6328 85.2312 67.1042 85.3536 66.75 85.5984C66.3958 85.8432 66.2188 86.1895 66.2188 86.6375C66.2188 87.002 66.3385 87.2937 66.5781 87.5125C66.8229 87.726 67.1484 87.8328 67.5547 87.8328Z" fill="#E2E8F0"/>
<g clip-path="url(#clip0)">
<path d="M42.6 54.3998C46.6848 54.3998 50 51.1145 50 47.0665V39.7332H42.6C38.5152 39.7332 35.2 43.0185 35.2 47.0665C35.2 51.1145 38.5152 54.3998 42.6 54.3998Z" fill="#0D74A3"/>
<path d="M35.2 32.4C35.2 28.352 38.5152 25.0667 42.6 25.0667H50V39.7333H42.6C38.5152 39.7333 35.2 36.448 35.2 32.4Z" fill="#0B8AC4"/>
<path d="M35.2 17.7332C35.2 13.6852 38.5152 10.3999 42.6 10.3999H50V25.0666H42.6C38.5152 25.0666 35.2 21.7812 35.2 17.7332Z" fill="#0EA5E9"/>
<path d="M50 10.3999H57.4C61.4848 10.3999 64.8 13.6852 64.8 17.7332C64.8 21.7812 61.4848 25.0666 57.4 25.0666H50V10.3999Z" fill="#04B1FF"/>
<path d="M64.8 32.4C64.8 36.448 61.4848 39.7333 57.4 39.7333C53.3152 39.7333 50 36.448 50 32.4C50 28.352 53.3152 25.0667 57.4 25.0667C61.4848 25.0667 64.8 28.352 64.8 32.4Z" fill="#0EA5E9"/>
</g>
<defs>
<clipPath id="clip0">
<rect x="35.2" y="10.3999" width="29.6" height="44" rx="10" fill="white"/>
</clipPath>
</defs>
</svg>
