<svg width="100" height="100" viewBox="0 0 100 100" fill="none" xmlns="http://www.w3.org/2000/svg">
<rect width="100" height="100" rx="10" fill="#1E293B"/>
<path d="M35.0781 87.7234C34.6667 88.2598 34.0964 88.6661 33.3672 88.9421C32.638 89.2182 31.8099 89.3562 30.8828 89.3562C29.9297 89.3562 29.0859 89.1401 28.3516 88.7078C27.6172 88.2755 27.0495 87.6583 26.6484 86.8562C26.2526 86.0489 26.0469 85.1088 26.0312 84.0359V83.1453C26.0312 81.4265 26.4427 80.0854 27.2656 79.1218C28.0885 78.1531 29.237 77.6687 30.7109 77.6687C31.9766 77.6687 32.9818 77.9812 33.7266 78.6062C34.4714 79.2312 34.9193 80.1322 35.0703 81.3093H33.1328C32.9141 79.9395 32.1198 79.2546 30.75 79.2546C29.8646 79.2546 29.1901 79.575 28.7266 80.2156C28.2682 80.851 28.0312 81.7859 28.0156 83.0203V83.8953C28.0156 85.1244 28.2734 86.0802 28.7891 86.7625C29.3099 87.4395 30.0312 87.7781 30.9531 87.7781C31.9635 87.7781 32.6823 87.5489 33.1094 87.0906V84.864H30.7656V83.364H35.0781V87.7234ZM39.0859 89.2H37.1875V80.7468H39.0859V89.2ZM37.0703 78.5515C37.0703 78.2598 37.1615 78.0177 37.3438 77.825C37.5312 77.6322 37.7969 77.5359 38.1406 77.5359C38.4844 77.5359 38.75 77.6322 38.9375 77.825C39.125 78.0177 39.2188 78.2598 39.2188 78.5515C39.2188 78.838 39.125 79.0776 38.9375 79.2703C38.75 79.4578 38.4844 79.5515 38.1406 79.5515C37.7969 79.5515 37.5312 79.4578 37.3438 79.2703C37.1615 79.0776 37.0703 78.838 37.0703 78.5515ZM43.5391 78.6921V80.7468H45.0312V82.1531H43.5391V86.8718C43.5391 87.1947 43.6016 87.4291 43.7266 87.575C43.8568 87.7156 44.0859 87.7859 44.4141 87.7859C44.6328 87.7859 44.8542 87.7598 45.0781 87.7078V89.1765C44.6458 89.2963 44.2292 89.3562 43.8281 89.3562C42.3698 89.3562 41.6406 88.5515 41.6406 86.9421V82.1531H40.25V80.7468H41.6406V78.6921H43.5391ZM55.7031 89.2H53.7344V84.1453H48.6484V89.2H46.6719V77.825H48.6484V82.5593H53.7344V77.825H55.7031V89.2ZM62.9844 88.3718C62.4271 89.0281 61.6354 89.3562 60.6094 89.3562C59.6927 89.3562 58.9974 89.088 58.5234 88.5515C58.0547 88.0151 57.8203 87.239 57.8203 86.2234V80.7468H59.7188V86.2C59.7188 87.2729 60.1641 87.8093 61.0547 87.8093C61.9766 87.8093 62.599 87.4786 62.9219 86.8171V80.7468H64.8203V89.2H63.0312L62.9844 88.3718ZM74.1719 85.0593C74.1719 86.3718 73.8776 87.4161 73.2891 88.1921C72.7057 88.9682 71.901 89.3562 70.875 89.3562C69.8854 89.3562 69.1146 88.9994 68.5625 88.2859L68.4688 89.2H66.75V77.2H68.6484V81.5593C69.1953 80.9135 69.9323 80.5906 70.8594 80.5906C71.8906 80.5906 72.7005 80.9734 73.2891 81.739C73.8776 82.5046 74.1719 83.575 74.1719 84.95V85.0593ZM72.2734 84.8953C72.2734 83.9786 72.112 83.2911 71.7891 82.8328C71.4661 82.3744 70.9974 82.1453 70.3828 82.1453C69.5599 82.1453 68.9818 82.5046 68.6484 83.2234V86.7078C68.987 87.4421 69.5703 87.8093 70.3984 87.8093C70.9922 87.8093 71.4505 87.588 71.7734 87.1453C72.0964 86.7026 72.263 86.0333 72.2734 85.1375V84.8953Z" fill="#E2E8F0"/>
<g clip-path="url(#clip0)">
<path d="M50.0002 10.3999C37.8514 10.3999 28 20.3152 28 32.5467C28 42.3318 34.3037 50.6335 43.0451 53.5618C44.1446 53.7669 44.5483 53.0814 44.5483 52.4964C44.5483 51.9683 44.5277 50.2238 44.5184 48.3733C38.3979 49.7128 37.1065 45.7602 37.1065 45.7602C36.1056 43.2003 34.6636 42.5195 34.6636 42.5195C32.6676 41.145 34.8142 41.1734 34.8142 41.1734C37.0233 41.3294 38.1865 43.4555 38.1865 43.4555C40.1488 46.8412 43.3333 45.8624 44.5887 45.2965C44.7862 43.8652 45.3563 42.888 45.9855 42.335C41.0989 41.7751 35.9621 39.8761 35.9621 31.3901C35.9621 28.9721 36.8215 26.9964 38.2288 25.4454C38.0004 24.8876 37.2474 22.6352 38.4419 19.5845C38.4419 19.5845 40.2894 18.9893 44.4936 21.8547C46.2485 21.3641 48.1305 21.118 50.0002 21.1095C51.8698 21.118 53.7534 21.3639 55.5115 21.8547C59.7106 18.9895 61.5555 19.5847 61.5555 19.5847C62.753 22.6351 61.9996 24.8878 61.7712 25.4454C63.1818 26.9964 64.0353 28.9721 64.0353 31.3901C64.0353 39.8963 58.8887 41.7693 53.9897 42.3176C54.7788 43.0048 55.482 44.3526 55.482 46.4189C55.482 49.382 55.4565 51.7669 55.4565 52.4964C55.4565 53.0859 55.8525 53.7764 56.9676 53.5587C65.7042 50.6272 72 42.3286 72 32.5469C72 20.3152 62.15 10.3999 50.0002 10.3999ZM36.2399 41.9485C36.1914 42.0586 36.0193 42.0916 35.8628 42.016C35.7031 41.9438 35.6135 41.7938 35.6651 41.6834C35.7125 41.5701 35.8849 41.5385 36.0441 41.6144C36.2039 41.6867 36.295 41.8381 36.2399 41.9485ZM37.322 42.9205C37.2171 43.0185 37.0119 42.973 36.8727 42.8183C36.7288 42.664 36.7019 42.4574 36.8083 42.3581C36.9165 42.2601 37.1154 42.306 37.2596 42.4603C37.4036 42.6165 37.4315 42.8216 37.322 42.9205ZM38.0645 44.1642C37.9296 44.2585 37.7092 44.1701 37.5729 43.9732C37.4382 43.7763 37.4382 43.5401 37.5758 43.4455C37.7125 43.3508 37.9296 43.436 38.0676 43.6315C38.202 43.8317 38.202 44.0678 38.0643 44.1644L38.0645 44.1642ZM39.3199 45.6046C39.1994 45.7385 38.9424 45.7025 38.7544 45.5198C38.5622 45.3413 38.5086 45.088 38.6296 44.9541C38.7516 44.8198 39.01 44.8575 39.1994 45.0388C39.3902 45.2171 39.4486 45.4723 39.3199 45.6046ZM40.9427 46.0908C40.8894 46.2643 40.6419 46.3432 40.3929 46.2695C40.144 46.1936 39.9812 45.9905 40.0314 45.8152C40.0832 45.6404 40.3317 45.5584 40.5826 45.6373C40.8312 45.7128 40.9944 45.9145 40.9427 46.091V46.0908ZM42.7893 46.2972C42.7955 46.4798 42.5843 46.6311 42.3227 46.6346C42.0597 46.6405 41.8468 46.4927 41.8438 46.3128C41.8438 46.1285 42.0504 45.9785 42.3136 45.974C42.5752 45.9688 42.7893 46.1155 42.7893 46.2972V46.2972ZM44.6035 46.2271C44.6347 46.4054 44.4531 46.5884 44.1932 46.6372C43.938 46.6841 43.7015 46.5741 43.669 46.3974C43.6374 46.2147 43.8225 46.0316 44.0774 45.9844C44.3376 45.9389 44.5703 46.046 44.6035 46.2271Z" fill="#0EA5E9"/>
</g>
<defs>
<clipPath id="clip0">
<rect x="28" y="10.3999" width="44" height="43.2" rx="10" fill="white"/>
</clipPath>
</defs>
</svg>
