<svg width="100" height="100" viewBox="0 0 100 100" fill="none" xmlns="http://www.w3.org/2000/svg">
<rect width="100" height="100" rx="10" fill="#1E293B"/>
<path d="M38.4219 89.2H36.4531V84.1453H31.3672V89.2H29.3906V77.825H31.3672V82.5593H36.4531V77.825H38.4219V89.2ZM48.75 79.4187H45.2031V89.2H43.2422V79.4187H39.7266V77.825H48.75V79.4187ZM52.8125 77.825L56.0938 86.5437L59.3672 77.825H61.9219V89.2H59.9531V85.45L60.1484 80.4343L56.7891 89.2H55.375L52.0234 80.4421L52.2188 85.45V89.2H50.25V77.825H52.8125ZM66.2422 87.6218H71.4062V89.2H64.2656V77.825H66.2422V87.6218Z" fill="#E2E8F0"/>
<g clip-path="url(#clip0)">
<path d="M68.8 13.4192L65.4473 51.0176L50.3774 55.1999L35.3491 51.0233L32 13.4192H68.8Z" fill="#0EA5E9"/>
<path d="M43.8827 25.718H50.4V21.106H38.8479L38.9581 22.3433L40.0905 35.0527H50.4V30.4407H44.3038L43.8827 25.718ZM44.921 37.3588H40.2963L40.9417 44.6003L50.3787 47.2228L50.4 47.217V42.4186L50.3798 42.4239L45.2489 41.037L44.921 37.3588V37.3588Z" fill="#1E293B"/>
<path d="M50.384 35.0527H56.057L55.5222 41.0341L50.384 42.4225V47.2206L59.8286 44.6003L59.8978 43.8211L60.9804 31.6792L61.0929 30.4407H50.384V35.0527ZM50.384 25.7067V25.718H61.5121L61.6044 24.6814L61.8143 22.3433L61.9245 21.106H50.384V25.7068V25.7067Z" fill="#1E293B"/>
</g>
<defs>
<clipPath id="clip0">
<rect width="36.8" height="52" fill="white" transform="translate(32 3.19995)"/>
</clipPath>
</defs>
</svg>
