<svg width="21" height="20" viewBox="0 0 21 20" fill="none" xmlns="http://www.w3.org/2000/svg">
<path d="M10.4753 5.50781C7.87387 5.50781 5.77554 7.51172 5.77554 9.99609C5.77554 12.4805 7.87387 14.4844 10.4753 14.4844C13.0767 14.4844 15.1751 12.4805 15.1751 9.99609C15.1751 7.51172 13.0767 5.50781 10.4753 5.50781ZM10.4753 12.9141C8.79419 12.9141 7.41984 11.6055 7.41984 9.99609C7.41984 8.38672 8.7901 7.07812 10.4753 7.07812C12.1605 7.07812 13.5308 8.38672 13.5308 9.99609C13.5308 11.6055 12.1564 12.9141 10.4753 12.9141ZM16.4635 5.32422C16.4635 5.90625 15.9727 6.37109 15.3673 6.37109C14.7579 6.37109 14.2711 5.90234 14.2711 5.32422C14.2711 4.74609 14.762 4.27734 15.3673 4.27734C15.9727 4.27734 16.4635 4.74609 16.4635 5.32422ZM19.5763 6.38672C19.5067 4.98438 19.1713 3.74219 18.0956 2.71875C17.0239 1.69531 15.7232 1.375 14.2548 1.30469C12.7413 1.22266 8.20518 1.22266 6.69177 1.30469C5.22744 1.37109 3.92672 1.69141 2.85096 2.71484C1.77521 3.73828 1.4439 4.98047 1.37027 6.38281C1.28437 7.82812 1.28437 12.1602 1.37027 13.6055C1.4398 15.0078 1.77521 16.25 2.85096 17.2734C3.92672 18.2969 5.22335 18.6172 6.69177 18.6875C8.20518 18.7695 12.7413 18.7695 14.2548 18.6875C15.7232 18.6211 17.0239 18.3008 18.0956 17.2734C19.1672 16.25 19.5026 15.0078 19.5763 13.6055C19.6622 12.1602 19.6622 7.83203 19.5763 6.38672ZM17.6211 15.1562C17.302 15.9219 16.6844 16.5117 15.8786 16.8203C14.672 17.2773 11.8088 17.1719 10.4753 17.1719C9.14187 17.1719 6.27456 17.2734 5.072 16.8203C4.2703 16.5156 3.65266 15.9258 3.32953 15.1562C2.85096 14.0039 2.9614 11.2695 2.9614 9.99609C2.9614 8.72266 2.85505 5.98438 3.32953 4.83594C3.64857 4.07031 4.26621 3.48047 5.072 3.17187C6.27865 2.71484 9.14187 2.82031 10.4753 2.82031C11.8088 2.82031 14.6761 2.71875 15.8786 3.17187C16.6803 3.47656 17.298 4.06641 17.6211 4.83594C18.0997 5.98828 17.9892 8.72266 17.9892 9.99609C17.9892 11.2695 18.0997 14.0078 17.6211 15.1562Z" fill="#E4E4E7"/>
</svg>
