<svg width="100" height="100" viewBox="0 0 100 100" fill="none" xmlns="http://www.w3.org/2000/svg">
<rect width="100" height="100" rx="10" fill="#1E293B"/>
<path d="M28.1328 77.825L31.4141 86.5437L34.6875 77.825H37.2422V89.2H35.2734V85.45L35.4688 80.4343L32.1094 89.2H30.6953L27.3438 80.4421L27.5391 85.45V89.2H25.5703V77.825H28.1328ZM42.3594 86.4812L44.0781 80.7468H46.1016L42.7422 90.4812C42.2266 91.9031 41.3516 92.614 40.1172 92.614C39.8411 92.614 39.5365 92.5671 39.2031 92.4734V91.0046L39.5625 91.0281C40.0417 91.0281 40.401 90.9395 40.6406 90.7625C40.8854 90.5906 41.0781 90.2989 41.2188 89.8875L41.4922 89.1609L38.5234 80.7468H40.5703L42.3594 86.4812ZM53.3281 86.2703C53.3281 85.7703 53.151 85.3848 52.7969 85.114C52.4479 84.8432 51.8151 84.5697 50.8984 84.2937C49.9818 84.0177 49.2526 83.7104 48.7109 83.3718C47.6745 82.7208 47.1562 81.8718 47.1562 80.825C47.1562 79.9083 47.5286 79.1531 48.2734 78.5593C49.0234 77.9656 49.9948 77.6687 51.1875 77.6687C51.9792 77.6687 52.6849 77.8145 53.3047 78.1062C53.9245 78.3979 54.4115 78.8145 54.7656 79.3562C55.1198 79.8927 55.2969 80.489 55.2969 81.1453H53.3281C53.3281 80.5515 53.1406 80.088 52.7656 79.7546C52.3958 79.4161 51.8646 79.2468 51.1719 79.2468C50.526 79.2468 50.0234 79.3848 49.6641 79.6609C49.3099 79.9369 49.1328 80.3223 49.1328 80.8171C49.1328 81.2338 49.3255 81.5828 49.7109 81.864C50.0964 82.1401 50.7318 82.4109 51.6172 82.6765C52.5026 82.9369 53.2135 83.2364 53.75 83.575C54.2865 83.9083 54.6797 84.2937 54.9297 84.7312C55.1797 85.1635 55.3047 85.6713 55.3047 86.2546C55.3047 87.2026 54.9401 87.9578 54.2109 88.5203C53.487 89.0776 52.5026 89.3562 51.2578 89.3562C50.4349 89.3562 49.6771 89.2052 48.9844 88.9031C48.2969 88.5958 47.7604 88.1739 47.375 87.6375C46.9948 87.101 46.8047 86.476 46.8047 85.7625H48.7812C48.7812 86.4083 48.9948 86.9083 49.4219 87.2625C49.849 87.6166 50.4609 87.7937 51.2578 87.7937C51.9453 87.7937 52.4609 87.6557 52.8047 87.3796C53.1536 87.0984 53.3281 86.7286 53.3281 86.2703ZM66.0781 83.8093C66.0781 84.8875 65.9062 85.8223 65.5625 86.614C65.224 87.4005 64.7474 88.0255 64.1328 88.489L66.0859 90.0125L64.8047 91.1687L62.3828 89.2546C62.0651 89.3223 61.724 89.3562 61.3594 89.3562C60.4427 89.3562 59.6224 89.1322 58.8984 88.6843C58.1797 88.2312 57.6224 87.588 57.2266 86.7546C56.8359 85.9213 56.638 84.9604 56.6328 83.8718V83.2312C56.6328 82.1218 56.8281 81.1427 57.2188 80.2937C57.6146 79.4447 58.1693 78.7963 58.8828 78.3484C59.6016 77.8953 60.4219 77.6687 61.3438 77.6687C62.2812 77.6687 63.1068 77.8927 63.8203 78.3406C64.5391 78.7833 65.0938 79.4239 65.4844 80.2625C65.875 81.0958 66.0729 82.0671 66.0781 83.1765V83.8093ZM64.0938 83.2156C64.0938 81.9343 63.8542 80.963 63.375 80.3015C62.8958 79.6401 62.2188 79.3093 61.3438 79.3093C60.4948 79.3093 59.8281 79.6453 59.3438 80.3171C58.8646 80.9838 58.6198 81.9265 58.6094 83.1453V83.8093C58.6094 85.0385 58.849 85.9994 59.3281 86.6921C59.8125 87.3848 60.4896 87.7312 61.3594 87.7312C62.2396 87.7312 62.9141 87.3979 63.3828 86.7312C63.8568 86.0645 64.0938 85.0906 64.0938 83.8093V83.2156ZM70.0625 87.6218H75.2266V89.2H68.0859V77.825H70.0625V87.6218Z" fill="#E2E8F0"/>
<g clip-path="url(#clip0)">
<path d="M68.529 44.6122C66.1348 44.5525 64.2794 44.792 62.7233 45.4504C62.2743 45.6298 61.556 45.6302 61.4962 46.1988C61.7358 46.4383 61.7657 46.8274 61.9752 47.1565C62.3345 47.7551 62.9625 48.5633 63.5314 48.9826C64.1597 49.4614 64.7882 49.9401 65.4465 50.3592C66.6137 51.0777 67.9304 51.4966 69.0675 52.215C69.7263 52.6338 70.3842 53.1729 71.0425 53.6218C71.3719 53.8609 71.5812 54.2504 72.0002 54.3999V54.3103C71.7907 54.0407 71.7309 53.6517 71.5215 53.3524C71.2224 53.053 70.923 52.7836 70.6237 52.4843C69.7559 51.3171 68.6786 50.2994 67.5114 49.4613C66.554 48.8028 64.459 47.9049 64.0699 46.7973L64.01 46.7376C64.6685 46.6777 65.4463 46.4383 66.075 46.2586C67.0926 45.9891 68.0202 46.0491 69.0675 45.7797C69.5462 45.6599 70.0253 45.5103 70.504 45.3606V45.0914C69.9656 44.5525 69.5763 43.8343 69.0077 43.3254C67.4815 42.008 65.8056 40.7212 64.0699 39.6437C63.1421 39.045 61.9451 38.6558 60.9576 38.1471C60.5986 37.9673 59.9999 37.8777 59.7906 37.5784C59.2518 36.92 58.9526 36.052 58.5635 35.2737C57.696 33.6273 56.8577 31.8016 56.1096 30.0657C55.5713 28.8982 55.2419 27.7308 54.5834 26.6535C51.5011 21.565 48.1495 18.4821 43.0023 15.4588C41.8949 14.8303 40.5784 14.5609 39.1717 14.2318C38.4238 14.2017 37.6756 14.142 36.9274 14.1119C36.4487 13.9023 35.9696 13.3338 35.5506 13.0643C33.8452 11.9867 29.446 9.65226 28.1891 12.7352C27.381 14.6807 29.3861 16.5962 30.0743 17.5842C30.5834 18.2725 31.2415 19.0507 31.6007 19.829C31.8102 20.3375 31.8699 20.8767 32.0794 21.4153C32.5582 22.732 33.007 24.199 33.6355 25.4263C33.9649 26.0548 34.3237 26.7132 34.7429 27.2819C34.9821 27.611 35.401 27.7609 35.4911 28.2995C35.0721 28.8982 35.0422 29.7963 34.8026 30.5445C33.7253 33.9268 34.1443 38.1172 35.6705 40.6014C36.1492 41.3495 37.2865 42.9962 38.8127 42.3674C40.1594 41.8288 39.8601 40.1227 40.249 38.6261C40.3389 38.2665 40.2791 38.0274 40.4585 37.7879V37.8479C40.8776 38.6858 41.2965 39.4942 41.6854 40.3322C42.6132 41.7987 44.2292 43.3254 45.5758 44.3432C46.2943 44.8816 46.8628 45.8096 47.7605 46.1389V46.0489H47.7006C47.5209 45.7795 47.2517 45.6599 47.0124 45.4502C46.4737 44.9117 45.8749 44.2532 45.4561 43.6545C44.1994 41.9781 43.0919 40.1225 42.1044 38.2068C41.6257 37.2792 41.2067 36.2614 40.8178 35.3336C40.638 34.974 40.638 34.4355 40.3388 34.2561C39.8898 34.9145 39.2317 35.4832 38.9025 36.2913C38.334 37.5784 38.274 39.1647 38.0645 40.811C37.9449 40.8411 38.0046 40.811 37.9448 40.8709C36.9872 40.6312 36.658 39.6437 36.2987 38.8055C35.401 36.6805 35.2513 33.2682 36.0297 30.8139C36.2392 30.1853 37.1369 28.2099 36.7779 27.6112C36.5983 27.0424 35.9996 26.7132 35.6705 26.2643C35.2814 25.6955 34.8624 24.9774 34.5932 24.3486C33.8749 22.6724 33.5158 20.8166 32.7378 19.1405C32.3787 18.3621 31.7503 17.5542 31.2414 16.8358C30.673 16.0277 30.0445 15.4588 29.5956 14.501C29.4461 14.1719 29.2365 13.6331 29.4757 13.2739C29.5357 13.0344 29.6553 12.9448 29.8949 12.8849C30.2838 12.5554 31.3912 12.9745 31.7801 13.1541C32.8875 13.6028 33.8149 14.0223 34.7429 14.6507C35.1617 14.9501 35.6105 15.5188 36.1492 15.6685H36.7777C37.7354 15.8779 38.8125 15.7284 39.7104 15.9976C41.2967 16.5063 42.7327 17.2547 44.0197 18.063C47.9402 20.5472 51.1719 24.0792 53.3567 28.2995C53.7158 28.9877 53.8651 29.6167 54.1943 30.3348C54.823 31.8016 55.601 33.2982 56.2294 34.7349C56.8577 36.1415 57.4563 37.5784 58.354 38.7458C58.8031 39.3741 60.5985 39.7036 61.4066 40.0329C62.0051 40.3021 62.9328 40.5417 63.4715 40.8709C64.4887 41.4992 65.5063 42.2179 66.4641 42.9061C66.9429 43.2653 68.439 44.0137 68.529 44.6122Z" fill="#0EA5E9"/>
<path d="M38.0042 18.6016C37.4954 18.6016 37.1364 18.6618 36.7773 18.7514V18.8113H36.8372C37.0768 19.2902 37.4954 19.6195 37.7947 20.0384C38.0343 20.5172 38.2436 20.9964 38.4831 21.4753L38.5428 21.4155C38.9621 21.1161 39.1715 20.6371 39.1715 19.9187C38.9917 19.7093 38.9619 19.4998 38.8123 19.2902C38.6327 18.9907 38.2436 18.8412 38.0042 18.6016V18.6016Z" fill="#0EA5E9"/>
</g>
<defs>
<clipPath id="clip0">
<rect x="28" y="11.2" width="44" height="43.2" rx="10" fill="white"/>
</clipPath>
</defs>
</svg>
