<svg width="323" height="249" viewBox="0 0 323 249" fill="none" xmlns="http://www.w3.org/2000/svg">
<path d="M234.837 37.026L32.6057 0.055746C32.194 -0.0232311 31.7706 -0.0182438 31.3608 0.0704059C30.9892 0.151617 30.6403 0.314212 30.3394 0.546438C30.0453 0.775368 29.8086 1.0695 29.6481 1.40554C29.4774 1.76847 29.3906 2.16503 29.3941 2.56592V183.345C29.3904 183.746 29.4769 184.142 29.6474 184.505C29.8076 184.841 30.044 185.136 30.3379 185.365C30.6386 185.597 30.9874 185.76 31.3589 185.842C31.7686 185.931 32.192 185.936 32.6038 185.857L234.837 148.886C235.005 148.852 235.16 148.773 235.287 148.659C235.435 148.527 235.559 148.37 235.653 148.196C235.762 147.997 235.845 147.785 235.899 147.564C235.959 147.325 235.989 147.079 235.99 146.831V39.0871C235.99 38.8394 235.959 38.5926 235.899 38.3522C235.845 38.1318 235.763 37.9193 235.653 37.7204C235.559 37.5461 235.435 37.3894 235.287 37.2574C235.16 37.1428 235.005 37.064 234.837 37.0295L234.837 37.026Z" fill="#E4E4E4"/>
<path d="M237.93 37.026L35.6986 0.055746C35.2869 -0.0232311 34.8635 -0.0182438 34.4538 0.0704059C34.0821 0.151617 33.7332 0.314212 33.4323 0.546438C33.1382 0.775368 32.9015 1.0695 32.7411 1.40554C32.5704 1.76847 32.4836 2.16503 32.4871 2.56592V183.345C32.4833 183.746 32.5698 184.142 32.7403 184.505C32.9005 184.841 33.1369 185.136 33.4308 185.365C33.7315 185.597 34.0803 185.76 34.4518 185.842C34.8615 185.931 35.285 185.936 35.6967 185.857L237.93 148.886C238.097 148.852 238.253 148.773 238.38 148.659C238.528 148.527 238.651 148.37 238.746 148.196C238.855 147.997 238.938 147.785 238.992 147.564C239.052 147.325 239.082 147.079 239.082 146.831V39.0871C239.083 38.8394 239.052 38.5926 238.992 38.3522C238.938 38.1318 238.855 37.9193 238.746 37.7204C238.652 37.5461 238.528 37.3894 238.38 37.2574C238.253 37.1428 238.098 37.064 237.93 37.0295L237.93 37.026Z" fill="white"/>
<path d="M237.93 37.026L35.6986 0.055746C35.2869 -0.0232311 34.8635 -0.0182438 34.4538 0.0704059C34.0821 0.151617 33.7332 0.314212 33.4323 0.546438C33.1382 0.775368 32.9015 1.0695 32.7411 1.40554C32.5704 1.76847 32.4836 2.16503 32.4871 2.56592V183.345C32.4833 183.746 32.5698 184.142 32.7403 184.505C32.9005 184.841 33.1369 185.136 33.4308 185.365C33.7315 185.597 34.0803 185.76 34.4518 185.842C34.8615 185.931 35.285 185.936 35.6967 185.857L237.93 148.886C238.097 148.852 238.253 148.773 238.38 148.659C238.528 148.527 238.651 148.37 238.746 148.196C238.855 147.997 238.938 147.785 238.992 147.564C239.052 147.325 239.082 147.079 239.082 146.831V39.0871C239.083 38.8394 239.052 38.5926 238.992 38.3522C238.938 38.1318 238.855 37.9193 238.746 37.7204C238.652 37.5461 238.528 37.3894 238.38 37.2574C238.253 37.1428 238.098 37.064 237.93 37.0295L237.93 37.026ZM238.699 146.897C238.699 147.062 238.679 147.227 238.639 147.387C238.603 147.534 238.548 147.676 238.475 147.809C238.412 147.925 238.329 148.03 238.23 148.118C238.146 148.194 238.042 148.246 237.931 148.269L35.7006 184.829C35.4262 184.881 35.1441 184.877 34.8713 184.817C34.6241 184.763 34.3921 184.654 34.192 184.499C33.9965 184.346 33.8393 184.15 33.7327 183.927C33.6195 183.685 33.5619 183.422 33.5642 183.155V2.75803C33.5618 2.49156 33.6193 2.22794 33.7323 1.9865C33.8387 1.7625 33.9958 1.56624 34.1912 1.41326C34.3911 1.25821 34.623 1.14937 34.8701 1.09461C35.1429 1.0348 35.425 1.03073 35.6994 1.08265L237.931 37.644C238.042 37.6667 238.146 37.719 238.23 37.7952C238.329 37.8831 238.412 37.9876 238.475 38.1038C238.548 38.2364 238.603 38.3781 238.639 38.5251C238.679 38.6856 238.7 38.8503 238.7 39.0158V146.896L238.699 146.897Z" fill="#CACACA"/>
<path d="M0.000261881 56.4254C-0.00946668 55.1921 0.251969 53.9717 0.766145 52.8501C1.24669 51.814 1.95686 50.9004 2.84303 50.1783C3.73507 49.4563 4.77648 48.9408 5.89226 48.6688C7.0994 48.3782 8.35382 48.3405 9.5763 48.5581C10.8585 48.7808 12.0889 49.2365 13.2062 49.9025C14.3101 50.5578 15.2982 51.3901 16.131 52.366C16.9567 53.3279 17.6165 54.4201 18.0834 55.5979C18.5486 56.7666 18.7902 58.0121 18.7955 59.2696C18.8042 60.4589 18.5615 61.6367 18.0834 62.7261C17.6343 63.7385 16.9678 64.64 16.131 65.367C15.2828 66.0993 14.2846 66.638 13.2062 66.9456C12.0265 67.2779 10.7903 67.3617 9.5763 67.1917C8.28314 67.014 7.03448 66.5974 5.89419 65.9634C4.74854 65.3292 3.71811 64.5069 2.84613 63.5312C1.97045 62.5574 1.26792 61.4415 0.768847 60.2317C0.268428 59.0245 0.00741589 57.7318 0.000261881 56.4254Z" fill="#E4E4E4"/>
<path d="M0.000261881 93.8446C-0.00946668 92.6113 0.251969 91.3909 0.766145 90.2694C1.24669 89.2333 1.95686 88.3197 2.84303 87.5975C3.73507 86.8756 4.77648 86.36 5.89226 86.088C7.0994 85.7975 8.35382 85.7598 9.5763 85.9773C10.8585 86.2001 12.0889 86.6558 13.2062 87.3217C14.3101 87.9771 15.2982 88.8094 16.131 89.7852C16.9567 90.7472 17.6165 91.8394 18.0834 93.0172C18.5486 94.1859 18.7902 95.4313 18.7955 96.6889C18.8042 97.8782 18.5615 99.0559 18.0834 100.145C17.6343 101.158 16.9678 102.059 16.131 102.786C15.2828 103.519 14.2846 104.057 13.2062 104.365C12.0265 104.697 10.7903 104.781 9.5763 104.611C8.28314 104.433 7.03448 104.017 5.89419 103.383C4.74854 102.748 3.71811 101.926 2.84613 100.95C1.97045 99.9767 1.26792 98.8608 0.768847 97.651C0.268428 96.4437 0.00741589 95.1511 0.000261881 93.8446Z" fill="#E4E4E4"/>
<path d="M0.000261881 131.264C-0.00946668 130.031 0.251969 128.81 0.766145 127.689C1.24669 126.653 1.95686 125.739 2.84303 125.017C3.73507 124.295 4.77648 123.779 5.89226 123.507C7.0994 123.217 8.35382 123.179 9.5763 123.397C10.8585 123.619 12.0889 124.075 13.2062 124.741C14.3101 125.396 15.2982 126.229 16.131 127.204C16.9567 128.166 17.6165 129.259 18.0834 130.436C18.5486 131.605 18.7902 132.851 18.7955 134.108C18.8042 135.297 18.5615 136.475 18.0834 137.565C17.6343 138.577 16.9678 139.479 16.131 140.206C15.2828 140.938 14.2846 141.476 13.2062 141.784C12.0265 142.116 10.7903 142.2 9.5763 142.03C8.28314 141.852 7.03448 141.436 5.89419 140.802C4.74854 140.168 3.71811 139.345 2.84613 138.37C1.97045 137.396 1.26792 136.28 0.768847 135.07C0.268428 133.863 0.00741589 132.57 0.000261881 131.264Z" fill="#E4E4E4"/>
<path d="M2.31995 56.4254C2.31022 55.1921 2.57166 53.9717 3.08583 52.8501C3.56638 51.814 4.27654 50.9004 5.16272 50.1783C6.05475 49.4563 7.09617 48.9408 8.21194 48.6688C9.41909 48.3782 10.6735 48.3405 11.896 48.5581C13.1782 48.7808 14.4086 49.2365 15.5259 49.9025C16.6298 50.5578 17.6179 51.3901 18.4506 52.366C19.2764 53.3279 19.9362 54.4201 20.403 55.5979C20.8683 56.7666 21.1099 58.0121 21.1152 59.2696C21.1239 60.4589 20.8812 61.6367 20.403 62.7261C19.954 63.7385 19.2875 64.64 18.4506 65.367C17.6024 66.0993 16.6043 66.638 15.5259 66.9456C14.3461 67.2779 13.11 67.3617 11.896 67.1917C10.6028 67.014 9.35417 66.5974 8.21388 65.9634C7.06823 65.3292 6.0378 64.5069 5.16581 63.5312C4.29014 62.5574 3.58761 61.4415 3.08853 60.2317C2.58811 59.0245 2.3271 57.7318 2.31995 56.4254Z" fill="#0EA5E9"/>
<path d="M2.31995 93.5896C2.31403 92.3381 2.57511 91.0996 3.08584 89.9565C3.57083 88.8796 4.27861 87.9173 5.16272 87.1327C6.04705 86.3487 7.08559 85.7575 8.21195 85.3968C9.40082 85.0192 10.6547 84.8891 11.896 85.0145C13.1638 85.1384 14.3961 85.5039 15.5259 86.0911C16.6261 86.6623 17.6163 87.4234 18.4506 88.339C19.2793 89.2444 19.9403 90.2893 20.403 91.4251C20.8717 92.576 21.1134 93.8063 21.1148 95.0486C21.1201 96.255 20.8778 97.4497 20.4027 98.5591C19.9471 99.6148 19.2792 100.566 18.4403 101.354C17.6013 102.141 16.6093 102.749 15.5255 103.138C14.3634 103.555 13.128 103.729 11.8956 103.652C10.6178 103.573 9.36734 103.248 8.2135 102.695C5.90997 101.59 4.08837 99.6858 3.08893 97.3385C2.58522 96.1524 2.3238 94.8779 2.31995 93.5896Z" fill="#0EA5E9"/>
<path d="M2.31995 130.754C2.31837 129.509 2.56942 128.276 3.05798 127.131C3.54654 125.985 4.26251 124.95 5.16273 124.088C6.26971 123.03 7.61811 122.257 9.09142 121.836C10.5647 121.415 12.1187 121.358 13.6189 121.67C15.1192 121.983 16.5207 122.655 17.7024 123.629C18.884 124.602 19.8103 125.849 20.4011 127.26C20.9819 128.664 21.2091 130.189 21.0629 131.701C20.9167 133.213 20.4016 134.666 19.5625 135.934C18.7234 137.201 17.5859 138.244 16.2494 138.972C14.913 139.699 13.4183 140.089 11.896 140.107C10.0323 140.134 8.20211 139.612 6.63522 138.604C5.06832 137.597 3.83459 136.151 3.08893 134.446C2.58177 133.281 2.32003 132.024 2.31995 130.754Z" fill="#0EA5E9"/>
<path d="M8.1613 56.383L10.9689 56.8135V54.0514C10.9675 53.9319 10.9921 53.8134 11.0408 53.7042C11.0864 53.6033 11.1542 53.5139 11.2391 53.4427C11.3249 53.3713 11.4256 53.3198 11.5337 53.2918C11.6516 53.2618 11.7744 53.2565 11.8944 53.2764C12.0216 53.2969 12.1439 53.3406 12.2552 53.4052C12.3661 53.4695 12.4656 53.5516 12.5497 53.6483C12.6337 53.7441 12.701 53.8532 12.7489 53.9712C12.7966 54.0882 12.8217 54.2132 12.8227 54.3396V57.0978L15.5769 57.5194C15.7021 57.5391 15.8224 57.5819 15.9318 57.6456C16.1513 57.7727 16.3219 57.9693 16.4167 58.2042C16.4634 58.3203 16.4876 58.4443 16.4882 58.5695C16.4891 58.6878 16.4647 58.805 16.4167 58.9132C16.3723 59.0131 16.3062 59.1018 16.2234 59.1732C16.1392 59.2445 16.0403 59.2964 15.9338 59.3252C15.8181 59.356 15.6972 59.3623 15.5789 59.3437L12.8208 58.9321V61.6841C12.8217 61.8037 12.7969 61.9221 12.7481 62.0313C12.7024 62.1327 12.6348 62.2227 12.5501 62.2948C12.4646 62.367 12.3643 62.4196 12.2563 62.4491C12.1389 62.4809 12.0162 62.488 11.896 62.47C11.769 62.4515 11.6465 62.4096 11.5349 62.3465C11.4238 62.2838 11.3241 62.203 11.2399 62.1073C11.1558 62.0124 11.0885 61.9038 11.0408 61.7864C10.9934 61.669 10.969 61.5437 10.9689 61.4172V58.6551L8.1613 58.2346C8.03231 58.2149 7.90807 58.1716 7.79479 58.107C7.68207 58.043 7.58081 57.9607 7.49516 57.8635C7.41003 57.7679 7.34167 57.6586 7.29296 57.5403C7.24442 57.4218 7.21921 57.2952 7.21873 57.1672C7.2178 57.0466 7.24313 56.9272 7.29296 56.8173C7.33971 56.7154 7.40882 56.6252 7.49516 56.5535C7.58248 56.4807 7.68477 56.428 7.79479 56.3992C7.91454 56.3687 8.03931 56.3632 8.1613 56.383Z" fill="white"/>
<path d="M10.1319 96.8011L17.9283 97.3651H17.9569L14.3007 90.7415C14.278 90.6999 14.2455 90.6644 14.206 90.6381C14.1866 90.6252 14.1657 90.6147 14.1438 90.6069C14.1217 90.5989 14.0987 90.5939 14.0753 90.5918C14.0526 90.5898 14.0297 90.5908 14.0073 90.5949C13.9857 90.599 13.9647 90.606 13.945 90.6158C13.9057 90.6352 13.8728 90.6656 13.8503 90.7033L11.3625 94.784L11.2426 94.9803L10.1319 96.8011Z" fill="white"/>
<path d="M5.68233 96.479L12.561 96.9767L11.2426 94.98L11.1475 94.8357L9.41857 92.2167C9.38795 92.1761 9.34975 92.1418 9.30606 92.1157C9.28483 92.103 9.26244 92.0924 9.23918 92.084C9.21513 92.0755 9.19025 92.0694 9.16495 92.0659C9.1405 92.0624 9.11575 92.0615 9.0911 92.0632C9.06715 92.0648 9.04343 92.0689 9.02035 92.0755C8.99764 92.0821 8.97574 92.0912 8.95502 92.1025C8.93419 92.1139 8.91473 92.1276 8.89702 92.1434L8.89122 92.1504L8.88388 92.1573L8.87808 92.1646L8.87228 92.172L5.68233 96.479Z" fill="white"/>
<path d="M10.8842 89.6514C11.0428 89.6651 11.1973 89.7091 11.3393 89.781C11.4785 89.8516 11.604 89.9463 11.71 90.0607C11.8158 90.1744 11.9004 90.3061 11.9598 90.4495C12.0199 90.5946 12.0511 90.75 12.0514 90.907C12.0521 91.0592 12.0209 91.2097 11.9598 91.3491C11.9018 91.481 11.8167 91.5993 11.71 91.6963C11.6028 91.7935 11.4766 91.8675 11.3393 91.9135C11.1928 91.9622 11.038 91.9805 10.8842 91.9671C10.7254 91.9538 10.5707 91.9102 10.4284 91.8387C10.2885 91.7684 10.1623 91.6738 10.0557 91.5594C9.94912 91.4456 9.86387 91.3136 9.80402 91.1697C9.7433 91.024 9.7119 90.8678 9.71162 90.7099C9.71095 90.5572 9.74243 90.4061 9.80402 90.2663C9.8626 90.1342 9.94835 90.0159 10.0557 89.9191C10.1637 89.8224 10.2906 89.7491 10.4284 89.7038C10.5751 89.6554 10.7303 89.6376 10.8842 89.6514Z" fill="white"/>
<path d="M95.0157 116.055L172.215 42.9691L172.546 43.5477L95.4982 116.673L95.0157 116.055Z" fill="#E6E6E6"/>
<path d="M95.0281 33.2185L95.5121 32.6398L172.539 112.426L172.207 112.976L95.0281 33.2185Z" fill="#E6E6E6"/>
<path d="M171.434 41.9021L96.3921 31.6152C96.0451 31.5658 95.6914 31.5959 95.3579 31.7032C95.0404 31.8077 94.7505 31.9822 94.51 32.2139C94.2612 32.4536 94.0657 32.7428 93.9359 33.0626C93.7939 33.4155 93.7221 33.7926 93.7244 34.1729V114.775C93.7233 115.16 93.7951 115.542 93.9359 115.901C94.0669 116.235 94.2617 116.54 94.5096 116.799C94.7487 117.049 95.0375 117.246 95.3575 117.378C95.685 117.512 96.0383 117.571 96.3917 117.551L171.434 113.427C171.687 113.41 171.932 113.331 172.147 113.195C172.374 113.052 172.571 112.866 172.727 112.647C172.899 112.408 173.031 112.143 173.118 111.861C173.213 111.556 173.261 111.238 173.261 110.918V44.5584C173.261 44.2346 173.212 43.9126 173.118 43.6029C173.029 43.3122 172.898 43.0365 172.727 42.7851C172.571 42.5532 172.375 42.3513 172.147 42.1891C171.935 42.0385 171.691 41.9401 171.434 41.9021ZM96.3921 116.721C96.1398 116.735 95.8876 116.692 95.654 116.596C95.4257 116.502 95.2198 116.361 95.0493 116.182C94.8724 115.996 94.7335 115.778 94.6403 115.539C94.54 115.283 94.4888 115.011 94.4895 114.736V34.2728C94.488 34.0018 94.5392 33.7331 94.6403 33.4816C94.7326 33.2528 94.8719 33.046 95.0493 32.8744C95.2209 32.7091 95.4276 32.5845 95.654 32.5098C95.8919 32.4327 96.1443 32.4106 96.3921 32.4454L171.434 42.593C171.618 42.6201 171.792 42.6904 171.944 42.7982C172.107 42.9136 172.247 43.0573 172.359 43.2225C172.481 43.4021 172.575 43.5992 172.639 43.807C172.706 44.0284 172.741 44.2586 172.741 44.4902V110.945C172.742 111.174 172.707 111.401 172.639 111.62C172.576 111.821 172.482 112.011 172.359 112.182C172.248 112.338 172.106 112.471 171.944 112.573C171.79 112.669 171.615 112.725 171.434 112.736L96.3921 116.721Z" fill="#E6E6E6"/>
<path d="M93.9061 126.063C93.7066 126.084 93.5163 126.158 93.3544 126.276C93.1757 126.407 93.0237 126.571 92.9067 126.759C92.7737 126.969 92.6731 127.197 92.6082 127.437C92.5365 127.699 92.5017 127.969 92.505 128.24C92.5066 128.5 92.5457 128.758 92.621 129.007C92.6866 129.225 92.7885 129.431 92.9226 129.616C93.0394 129.779 93.1908 129.914 93.366 130.011C93.5314 130.101 93.719 130.143 93.9073 130.132L225.28 119.278C225.385 119.269 225.483 119.225 225.558 119.151C225.653 119.06 225.731 118.952 225.786 118.832C225.856 118.684 225.908 118.529 225.941 118.369C225.98 118.184 226 117.995 226.001 117.806C226.003 117.619 225.986 117.433 225.95 117.249C225.92 117.093 225.87 116.941 225.801 116.798C225.749 116.684 225.674 116.581 225.579 116.498C225.504 116.43 225.405 116.394 225.303 116.396H225.28L93.9061 126.063Z" fill="#E6E6E6"/>
<path d="M93.9061 138.415C93.7055 138.442 93.5155 138.521 93.3544 138.644C93.1758 138.779 93.024 138.946 92.9067 139.137C92.7739 139.349 92.6734 139.581 92.6082 139.823C92.5364 140.086 92.5016 140.358 92.505 140.631C92.5064 140.89 92.5455 141.147 92.621 141.395C92.6862 141.611 92.7882 141.814 92.9225 141.996C93.0392 142.155 93.1905 142.286 93.3652 142.378C93.5318 142.464 93.7195 142.501 93.9065 142.485L225.28 128.024C225.385 128.012 225.483 127.965 225.558 127.89C225.653 127.796 225.731 127.685 225.786 127.564C225.856 127.414 225.908 127.256 225.941 127.095C225.98 126.909 226 126.72 226.001 126.53C226.003 126.343 225.986 126.157 225.95 125.974C225.92 125.819 225.87 125.669 225.801 125.527C225.749 125.415 225.673 125.315 225.578 125.234C225.502 125.168 225.403 125.135 225.302 125.139H225.279L93.9061 138.415Z" fill="#E6E6E6"/>
<path d="M93.9061 150.567C93.7045 150.601 93.5148 150.685 93.3544 150.811C93.1758 150.951 93.0242 151.122 92.9067 151.316C92.7742 151.532 92.6737 151.766 92.6083 152.011C92.5366 152.275 92.5019 152.548 92.505 152.821C92.5063 153.079 92.5454 153.335 92.621 153.581C92.6859 153.795 92.788 153.996 92.9226 154.175C93.0393 154.331 93.1908 154.457 93.3652 154.545C93.5331 154.627 93.7209 154.659 93.9065 154.637L225.28 136.628C225.386 136.613 225.484 136.563 225.558 136.486C225.653 136.39 225.73 136.278 225.786 136.154C225.856 136.003 225.908 135.844 225.941 135.681C225.979 135.495 226 135.305 226.001 135.115C226.003 134.929 225.986 134.743 225.95 134.56C225.92 134.407 225.87 134.258 225.801 134.117C225.749 134.007 225.673 133.909 225.578 133.83C225.501 133.767 225.402 133.736 225.302 133.743H225.279L93.9061 150.567Z" fill="#E6E6E6"/>
<path d="M15.6438 126.84L8.1443 126.75C8.01924 126.746 7.8944 126.764 7.77546 126.803C7.66049 126.84 7.55286 126.897 7.45728 126.971C7.36203 127.045 7.2804 127.134 7.21604 127.236C7.15008 127.34 7.10358 127.456 7.07878 127.577C7.05405 127.721 7.06158 127.869 7.10082 128.01C7.12042 128.081 7.14764 128.149 7.18202 128.214C7.25209 128.345 7.35011 128.46 7.46927 128.55C7.64795 128.686 7.86557 128.76 8.08978 128.761L10.3453 128.782C10.4516 128.783 10.5555 128.814 10.6441 128.873C10.7327 128.932 10.8022 129.015 10.844 129.113C10.8722 129.178 10.8866 129.249 10.8866 129.321V133.736C10.881 133.98 10.9624 134.217 11.1162 134.407C11.2701 134.597 11.4863 134.726 11.7267 134.773C11.9445 134.81 12.1683 134.774 12.3638 134.671C12.5593 134.569 12.7158 134.405 12.8092 134.205C12.8707 134.074 12.9026 133.93 12.9027 133.785V129.334C12.9028 129.264 12.9165 129.195 12.9432 129.131C12.9699 129.067 13.009 129.009 13.0582 128.96C13.1075 128.911 13.166 128.872 13.2303 128.845C13.2946 128.819 13.3635 128.805 13.4332 128.805L13.4382 128.805L15.5928 128.822C15.8333 128.83 16.0688 128.752 16.2574 128.603C16.4459 128.454 16.5752 128.242 16.6224 128.007C16.646 127.864 16.6385 127.718 16.6004 127.579C16.5623 127.44 16.4944 127.31 16.4015 127.199C16.3086 127.089 16.1928 126.999 16.062 126.937C15.9313 126.875 15.7886 126.842 15.6438 126.84Z" fill="white"/>
<path d="M15.6442 132.788C15.8581 132.788 16.0662 132.856 16.2379 132.983C16.4096 133.111 16.5356 133.29 16.5974 133.494C16.6592 133.698 16.6534 133.917 16.5809 134.118C16.5083 134.318 16.373 134.49 16.1948 134.608C16.0166 134.726 15.805 134.784 15.5915 134.773C15.378 134.761 15.1738 134.682 15.0092 134.545C14.8445 134.409 14.7283 134.224 14.6775 134.016C14.6268 133.809 14.6444 133.591 14.7275 133.394C14.8033 133.214 14.9308 133.061 15.0939 132.953C15.257 132.845 15.4485 132.787 15.6442 132.788Z" fill="white"/>
<path d="M191.417 74.2831C191.382 74.5524 191.327 74.8185 191.25 75.0791L206.883 93.7562L212.722 92.7524L215.392 101.347L205.228 104.126C204.407 104.35 203.536 104.303 202.744 103.991C201.952 103.679 201.283 103.119 200.837 102.396L186.308 78.8104C185.259 78.8133 184.235 78.4978 183.371 77.9057C182.507 77.3136 181.844 76.473 181.47 75.4957C181.097 74.5185 181.03 73.4509 181.279 72.4349C181.528 71.419 182.082 70.5028 182.866 69.8083C183.649 69.1138 184.627 68.6739 185.667 68.5471C186.708 68.4202 187.762 68.6125 188.691 69.0982C189.619 69.584 190.377 70.3403 190.864 71.2665C191.351 72.1926 191.544 73.2448 191.417 74.2831Z" fill="#FFB6B6"/>
<path d="M207.575 92.7149C207.742 92.4449 207.966 92.2141 208.23 92.0381C208.495 91.8621 208.794 91.7452 209.108 91.6953L220.076 89.95C221.628 89.4615 223.31 89.6069 224.755 90.3542C226.199 91.1016 227.288 92.3899 227.781 93.9368C228.275 95.4836 228.134 97.1628 227.389 98.606C226.644 100.049 225.356 101.139 223.807 101.636L213.786 106.497C213.5 106.636 213.187 106.711 212.87 106.719C212.552 106.726 212.236 106.665 211.944 106.539C211.652 106.414 211.39 106.227 211.177 105.992C210.964 105.756 210.804 105.478 210.708 105.175L207.347 94.5397C207.251 94.2371 207.222 93.9174 207.261 93.6025C207.301 93.2875 207.408 92.9848 207.575 92.7149Z" fill="#3F3D56"/>
<path d="M208.187 244.004H203.447L201.192 225.762L208.187 225.762L208.187 244.004Z" fill="#FFB6B6"/>
<path d="M209.395 248.588L194.112 248.588V248.395C194.112 246.821 194.739 245.311 195.855 244.198C196.97 243.085 198.483 242.459 200.061 242.459H200.061L209.396 242.46L209.395 248.588Z" fill="#83829C"/>
<path d="M257.673 244.004H252.933L250.679 225.762L257.674 225.762L257.673 244.004Z" fill="#FFB6B6"/>
<path d="M258.882 248.588L243.599 248.588V248.395C243.599 246.821 244.226 245.311 245.341 244.198C246.457 243.085 247.97 242.459 249.547 242.459H249.548L258.882 242.46L258.882 248.588Z" fill="#83829C"/>
<path d="M210.037 132.885L230.576 126.962C238.058 132.258 243.224 142.871 241.551 156.604C238.855 178.735 254.464 207.19 261.195 236.021L249.555 236.386L224.066 175.52L209.122 237.654L198.724 237.98L205.678 152.429L210.037 132.885Z" fill="#494585"/>
<path d="M219.183 79.065C225.051 79.065 229.808 74.3185 229.808 68.4634C229.808 62.6083 225.051 57.8618 219.183 57.8618C213.315 57.8618 208.558 62.6083 208.558 68.4634C208.558 74.3185 213.315 79.065 219.183 79.065Z" fill="#FFB6B6"/>
<path d="M208.372 115.605C206.024 111.492 204.863 106.496 206.907 102.224C207.422 101.148 208.826 100.132 209.56 99.1915L217.769 86.9784L227.039 85.4905C235.061 92.2037 228.208 115.139 234.78 130.184L207.331 144.843C209.293 137.367 211.941 121.856 208.372 115.605Z" fill="#3F3D56"/>
<path d="M208.491 64.2183C208.491 64.2183 209.21 62.8886 213.517 64.604C215.024 65.2044 215.731 65.0664 215.829 66.3728C216.178 71.2897 217.98 75.9929 221.008 79.8879L221.041 79.9302L223.194 77.9696L225.962 80.1752L237.651 80.4203C237.651 80.4203 239.497 71.353 233.345 61.0603C227.193 50.7677 214.581 56.4041 214.581 56.4041C205.968 56.8943 208.491 64.2183 208.491 64.2183Z" fill="#2F2E41"/>
<path d="M181.366 50.6673L106.324 40.3805C105.977 40.331 105.624 40.3611 105.29 40.4684C104.973 40.5729 104.683 40.7475 104.442 40.9792C104.193 41.2189 103.998 41.508 103.868 41.8279C103.726 42.1808 103.654 42.5579 103.657 42.9381V123.54C103.655 123.925 103.727 124.308 103.868 124.666C103.999 125 104.194 125.305 104.442 125.564C104.681 125.814 104.97 126.011 105.29 126.143C105.617 126.277 105.971 126.336 106.324 126.316L181.366 122.192C181.619 122.176 181.865 122.096 182.079 121.961C182.307 121.817 182.504 121.631 182.659 121.412C182.831 121.173 182.963 120.908 183.05 120.627C183.145 120.321 183.193 120.003 183.193 119.683V53.3237C183.193 52.9999 183.145 52.6778 183.05 52.3681C182.962 52.0775 182.83 51.8017 182.659 51.5503C182.503 51.3185 182.307 51.1166 182.079 50.9543C181.868 50.8037 181.623 50.7054 181.366 50.6673Z" fill="#0EA5E9"/>
<path opacity="0.2" d="M181.366 50.6673L106.324 40.3805C105.977 40.331 105.624 40.3611 105.29 40.4684C104.973 40.5729 104.683 40.7475 104.442 40.9792C104.193 41.2189 103.998 41.508 103.868 41.8279C103.726 42.1808 103.654 42.5579 103.657 42.9381V123.54C103.655 123.925 103.727 124.308 103.868 124.666C103.999 125 104.194 125.305 104.442 125.564C104.681 125.814 104.97 126.011 105.29 126.143C105.617 126.277 105.971 126.336 106.324 126.316L181.366 122.192C181.619 122.176 181.865 122.096 182.079 121.961C182.307 121.817 182.504 121.631 182.659 121.412C182.831 121.173 182.963 120.908 183.05 120.627C183.145 120.321 183.193 120.003 183.193 119.683V53.3237C183.193 52.9999 183.145 52.6778 183.05 52.3681C182.962 52.0775 182.83 51.8017 182.659 51.5503C182.503 51.3185 182.307 51.1166 182.079 50.9543C181.868 50.8037 181.623 50.7054 181.366 50.6673Z" fill="black"/>
<path d="M184.459 50.6673L109.417 40.3805C109.07 40.331 108.717 40.3611 108.383 40.4684C108.065 40.5729 107.776 40.7475 107.535 40.9792C107.286 41.2189 107.091 41.508 106.961 41.8279C106.819 42.1808 106.747 42.5579 106.75 42.9381V123.54C106.748 123.925 106.82 124.308 106.961 124.666C107.092 125 107.287 125.305 107.535 125.564C107.774 125.814 108.063 126.011 108.383 126.143C108.71 126.277 109.063 126.336 109.417 126.316L184.459 122.192C184.712 122.176 184.958 122.096 185.172 121.961C185.4 121.817 185.597 121.631 185.752 121.412C185.924 121.173 186.056 120.908 186.143 120.627C186.238 120.321 186.286 120.003 186.286 119.683V53.3237C186.286 52.9999 186.237 52.6778 186.143 52.3681C186.055 52.0775 185.923 51.8017 185.752 51.5503C185.596 51.3185 185.4 51.1166 185.172 50.9543C184.961 50.8037 184.716 50.7054 184.459 50.6673Z" fill="#0EA5E9"/>
<path d="M184.137 115.106C184.341 115.285 184.531 115.481 184.704 115.69L208.966 113.215L211.399 107.825L220.032 110.427L216.652 120.387C216.379 121.191 215.852 121.886 215.15 122.366C214.448 122.846 213.608 123.086 212.758 123.05L185.037 121.865C184.453 122.733 183.618 123.404 182.642 123.787C181.667 124.17 180.598 124.248 179.577 124.01C178.556 123.772 177.632 123.23 176.928 122.455C176.224 121.68 175.773 120.71 175.634 119.673C175.496 118.636 175.678 117.582 176.155 116.651C176.632 115.719 177.382 114.955 178.305 114.459C179.228 113.963 180.28 113.759 181.322 113.875C182.364 113.991 183.346 114.42 184.137 115.106V115.106Z" fill="#FFB6B6"/>
<path d="M208.488 112.06C208.357 111.771 208.291 111.457 208.293 111.14C208.295 110.822 208.365 110.509 208.499 110.222L213.188 100.175C213.651 98.6188 214.713 97.3088 216.142 96.5325C217.571 95.7563 219.25 95.5773 220.812 96.0346C222.373 96.492 223.688 97.5485 224.47 98.9724C225.252 100.396 225.436 102.071 224.982 103.63L223.411 114.637C223.366 114.952 223.254 115.252 223.082 115.519C222.91 115.786 222.683 116.013 222.415 116.185C222.147 116.356 221.846 116.468 221.531 116.512C221.216 116.557 220.895 116.533 220.591 116.443L209.876 113.27C209.571 113.18 209.289 113.025 209.05 112.816C208.81 112.607 208.619 112.35 208.488 112.06Z" fill="#3F3D56"/>
</svg>
