<svg width="388" height="239" viewBox="0 0 388 239" fill="none" xmlns="http://www.w3.org/2000/svg">
<g clip-path="url(#clip0)">
<path d="M300.201 145.514H191.674C190.807 145.513 189.977 145.169 189.364 144.557C188.751 143.945 188.406 143.116 188.405 142.251V105.71C188.406 104.845 188.751 104.016 189.364 103.404C189.977 102.793 190.807 102.449 191.674 102.448H300.201C301.067 102.449 301.898 102.793 302.511 103.404C303.124 104.016 303.469 104.845 303.47 105.71V142.251C303.469 143.116 303.124 143.945 302.511 144.557C301.898 145.169 301.067 145.513 300.201 145.514Z" fill="#F1F1F1"/>
<path d="M234.169 112.235H205.403V115.498H234.169V112.235Z" fill="#3B82F6"/>
<path d="M272.088 116.151C273.172 116.151 274.05 115.274 274.05 114.193C274.05 113.112 273.172 112.235 272.088 112.235C271.005 112.235 270.127 113.112 270.127 114.193C270.127 115.274 271.005 116.151 272.088 116.151Z" fill="#3B82F6"/>
<path d="M278.626 116.151C279.709 116.151 280.587 115.274 280.587 114.193C280.587 113.112 279.709 112.235 278.626 112.235C277.543 112.235 276.665 113.112 276.665 114.193C276.665 115.274 277.543 116.151 278.626 116.151Z" fill="#3B82F6"/>
<path d="M285.164 116.151C286.247 116.151 287.125 115.274 287.125 114.193C287.125 113.112 286.247 112.235 285.164 112.235C284.081 112.235 283.203 113.112 283.203 114.193C283.203 115.274 284.081 116.151 285.164 116.151Z" fill="#3B82F6"/>
<path d="M300.201 191.842H191.674C190.807 191.841 189.977 191.497 189.364 190.886C188.751 190.274 188.406 189.445 188.405 188.58V152.039C188.406 151.174 188.751 150.345 189.364 149.733C189.977 149.121 190.807 148.777 191.674 148.776H300.201C301.067 148.777 301.898 149.121 302.511 149.733C303.124 150.345 303.469 151.174 303.47 152.039V188.58C303.469 189.445 303.124 190.274 302.511 190.886C301.898 191.497 301.067 191.841 300.201 191.842Z" fill="#F1F1F1"/>
<path d="M234.169 158.564H205.403V161.827H234.169V158.564Z" fill="#3B82F6"/>
<path d="M272.088 162.479C273.172 162.479 274.05 161.603 274.05 160.522C274.05 159.441 273.172 158.564 272.088 158.564C271.005 158.564 270.127 159.441 270.127 160.522C270.127 161.603 271.005 162.479 272.088 162.479Z" fill="#3B82F6"/>
<path d="M278.626 162.479C279.709 162.479 280.587 161.603 280.587 160.522C280.587 159.441 279.709 158.564 278.626 158.564C277.543 158.564 276.665 159.441 276.665 160.522C276.665 161.603 277.543 162.479 278.626 162.479Z" fill="#3B82F6"/>
<path d="M285.164 162.479C286.247 162.479 287.125 161.603 287.125 160.522C287.125 159.441 286.247 158.564 285.164 158.564C284.081 158.564 283.203 159.441 283.203 160.522C283.203 161.603 284.081 162.479 285.164 162.479Z" fill="#3B82F6"/>
<path d="M300.201 238.171H191.674C190.807 238.17 189.977 237.826 189.364 237.214C188.751 236.603 188.406 235.773 188.405 234.908V198.368C188.406 197.503 188.751 196.673 189.364 196.062C189.977 195.45 190.807 195.106 191.674 195.105H300.201C301.067 195.106 301.898 195.45 302.511 196.062C303.124 196.673 303.469 197.503 303.47 198.368V234.908C303.469 235.773 303.124 236.603 302.511 237.214C301.898 237.826 301.067 238.17 300.201 238.171Z" fill="#F1F1F1"/>
<path d="M234.169 204.893H205.403V208.155H234.169V204.893Z" fill="#3B82F6"/>
<path d="M272.088 208.808C273.172 208.808 274.05 207.931 274.05 206.85C274.05 205.769 273.172 204.893 272.088 204.893C271.005 204.893 270.127 205.769 270.127 206.85C270.127 207.931 271.005 208.808 272.088 208.808Z" fill="#3B82F6"/>
<path d="M278.626 208.808C279.709 208.808 280.587 207.931 280.587 206.85C280.587 205.769 279.709 204.893 278.626 204.893C277.543 204.893 276.665 205.769 276.665 206.85C276.665 207.931 277.543 208.808 278.626 208.808Z" fill="#3B82F6"/>
<path d="M285.164 208.808C286.247 208.808 287.125 207.931 287.125 206.85C287.125 205.769 286.247 204.893 285.164 204.893C284.081 204.893 283.203 205.769 283.203 206.85C283.203 207.931 284.081 208.808 285.164 208.808Z" fill="#3B82F6"/>
<path d="M259.287 66.7659L259.167 66.6774L259.164 66.6752C259.01 66.5605 258.834 66.4773 258.647 66.4304C258.46 66.3835 258.265 66.3738 258.075 66.402C257.884 66.4301 257.7 66.4954 257.535 66.5943C257.37 66.6931 257.225 66.8235 257.11 66.978L232.682 99.8046H229.995V99.1744C229.995 99.0189 229.933 98.8698 229.823 98.7599C229.713 98.65 229.563 98.5882 229.407 98.5882H227.804C227.648 98.5882 227.499 98.65 227.389 98.7599C227.278 98.8698 227.217 99.0189 227.217 99.1744V99.8046H226.289V99.1744C226.289 99.0189 226.227 98.8698 226.116 98.7599C226.006 98.65 225.857 98.5882 225.701 98.5882H224.098C223.942 98.5882 223.793 98.65 223.682 98.7599C223.572 98.8698 223.51 99.0189 223.51 99.1744V99.8046H222.585V99.1744C222.585 99.0189 222.523 98.8698 222.413 98.7599C222.303 98.65 222.154 98.5882 221.998 98.5882H220.395C220.239 98.5882 220.089 98.65 219.979 98.7599C219.869 98.8698 219.807 99.0189 219.807 99.1744V99.8046H218.879V99.1744C218.879 99.0189 218.817 98.8698 218.707 98.7599C218.597 98.65 218.448 98.5882 218.292 98.5882H216.688C216.533 98.5882 216.383 98.65 216.273 98.7599C216.163 98.8698 216.101 99.0189 216.101 99.1744V99.8046H215.176V99.1744C215.176 99.0189 215.114 98.8698 215.004 98.7599C214.894 98.65 214.744 98.5882 214.589 98.5882H212.985C212.908 98.5882 212.832 98.6034 212.76 98.6328C212.689 98.6623 212.624 98.7054 212.57 98.7599C212.515 98.8143 212.472 98.8789 212.443 98.9501C212.413 99.0212 212.398 99.0974 212.398 99.1744V99.8046H211.47V99.1744C211.47 99.0189 211.408 98.8698 211.298 98.7599C211.188 98.65 211.038 98.5882 210.882 98.5882H209.279C209.123 98.5882 208.974 98.65 208.864 98.7599C208.754 98.8698 208.692 99.0189 208.692 99.1744V99.8046H207.764V99.1744C207.764 99.0189 207.702 98.8698 207.592 98.7599C207.481 98.65 207.332 98.5882 207.176 98.5882H205.573C205.417 98.5882 205.268 98.65 205.157 98.7599C205.047 98.8698 204.985 99.0189 204.985 99.1744V99.8046H204.06V99.1744C204.06 99.0189 203.999 98.8698 203.888 98.7599C203.778 98.65 203.629 98.5882 203.473 98.5882H201.87C201.714 98.5882 201.564 98.65 201.454 98.7599C201.344 98.8698 201.282 99.0189 201.282 99.1744V99.8046H200.354V99.1744C200.354 99.0189 200.292 98.8698 200.182 98.7599C200.072 98.65 199.923 98.5882 199.767 98.5882H198.163C198.008 98.5882 197.858 98.65 197.748 98.7599C197.638 98.8698 197.576 99.0189 197.576 99.1744V99.8046H196.651V99.1744C196.651 99.0189 196.589 98.8698 196.479 98.7599C196.369 98.65 196.219 98.5882 196.064 98.5882H194.46C194.304 98.5882 194.155 98.65 194.045 98.7599C193.935 98.8698 193.873 99.0189 193.873 99.1744V99.8046H192.71C192.517 99.8046 192.326 99.8425 192.148 99.9161C191.97 99.9898 191.808 100.098 191.672 100.234C191.535 100.37 191.427 100.531 191.353 100.709C191.28 100.887 191.242 101.078 191.242 101.27V102.668C191.242 102.861 191.28 103.051 191.353 103.229C191.427 103.407 191.535 103.568 191.672 103.705C191.808 103.841 191.97 103.949 192.148 104.022C192.326 104.096 192.517 104.134 192.71 104.134H232.438C232.942 104.134 233.429 103.961 233.82 103.644C234.21 103.327 234.479 102.885 234.581 102.393L234.596 102.405L259.589 68.8191L259.591 68.8162C259.823 68.5042 259.921 68.1128 259.864 67.7283C259.808 67.3438 259.6 66.9976 259.287 66.7659Z" fill="#3F3D56"/>
<path d="M104.905 225.723L109.84 228.244L121.929 210.446L114.646 206.725L104.905 225.723Z" fill="#FFB7B7"/>
<path d="M104.471 223.472L114.189 228.436L114.19 228.436C115.832 229.275 117.074 230.731 117.641 232.484C118.208 234.236 118.054 236.142 117.213 237.781L117.11 237.982L101.199 229.855L104.471 223.472Z" fill="#2F2E41"/>
<path d="M161.899 232.619H167.443L170.08 211.278H161.899L161.899 232.619Z" fill="#FFB7B7"/>
<path d="M160.486 230.812L171.403 230.812H171.403C173.248 230.812 175.018 231.544 176.322 232.846C177.627 234.148 178.36 235.914 178.36 237.756V237.981L160.486 237.982L160.486 230.812Z" fill="#2F2E41"/>
<path d="M135.97 58.5479C135.97 58.5479 132.257 55.7094 132.257 62.6429L131.671 85.5555L138.216 107.2L142.026 100.18L140.463 84.9705L135.97 58.5479Z" fill="#2F2E41"/>
<path d="M175.679 121.218C175.679 121.218 179.983 142.141 174.531 159.312L171.518 225.332L160.469 224.473L156.595 175.495L152.864 151.149L145.116 173.346L119.575 220.32L107.809 211.154C107.809 211.154 120.848 175.646 130.48 168.191L135.311 113.274L175.679 121.218Z" fill="#494585"/>
<path d="M173.636 24.0314C176.973 17.9382 174.73 10.2986 168.625 6.96781C162.52 3.63701 154.866 5.87634 151.528 11.9695C148.191 18.0626 150.435 25.7022 156.54 29.033C162.645 32.3638 170.299 30.1245 173.636 24.0314Z" fill="#FFB7B7"/>
<path d="M161.691 20.6673C163.201 20.8634 164.34 19.3213 164.868 17.8957C165.397 16.4702 165.799 14.8106 167.112 14.0405C168.906 12.9885 171.201 14.2538 173.253 13.9067C175.569 13.5147 177.075 11.0644 177.193 8.72225C177.311 6.38014 176.377 4.12751 175.461 1.9681L175.141 4.65176C175.184 3.7422 174.992 2.8369 174.584 2.02245C174.176 1.20801 173.566 0.511651 172.811 0L173.224 3.93785C173.136 3.39456 172.941 2.87392 172.652 2.4058C172.362 1.93768 171.982 1.5313 171.534 1.20998C171.087 0.888654 170.58 0.658719 170.043 0.533367C169.506 0.408016 168.95 0.389716 168.406 0.479517L168.471 2.82583C165.795 2.50829 163.096 2.1903 160.413 2.43222C157.729 2.67414 155.027 3.52156 152.993 5.28547C149.951 7.92401 148.84 12.2687 149.213 16.2741C149.586 20.2796 151.242 24.0424 152.969 27.6774C153.403 28.5919 154.004 29.624 155.011 29.7405C155.917 29.8451 156.745 29.09 157.026 28.225C157.243 27.3376 157.235 26.4101 157.002 25.5267C156.747 24.1766 156.426 22.7966 156.666 21.4437C156.905 20.0909 157.88 18.754 159.246 18.5882C160.613 18.4224 162.011 19.9812 161.354 21.1885L161.691 20.6673Z" fill="#2F2E41"/>
<path d="M176.458 126.813L134.407 124.105L137.572 111.018L176.006 119.593L176.458 126.813Z" fill="#CBCBCB"/>
<path d="M150.525 35.148L153.163 31.4932C153.163 31.4932 156.111 32.4931 164.006 36.4155L164.564 39.8398L178.269 123.971L153.358 122.898L146.574 122.754L144.354 117.787L141.617 122.649L134.993 122.508L128.252 118.608L134.895 98.328L137.044 79.803L133.723 62.3505C133.723 62.3505 129.543 46.3242 145.641 37.683L150.525 35.148Z" fill="#575A89"/>
<path d="M206.672 98.8355C206.062 98.9902 205.425 99.0095 204.807 98.8921C204.188 98.7747 203.603 98.5234 203.093 98.1559C202.582 97.7885 202.159 97.3137 201.852 96.7652C201.545 96.2167 201.363 95.6077 201.317 94.9811L186.538 91.0302L192.484 85.7615L205.606 90.3211C206.666 90.3146 207.691 90.6964 208.488 91.394C209.284 92.0916 209.797 93.0565 209.928 94.1061C210.059 95.1556 209.8 96.2167 209.2 97.0884C208.6 97.96 207.7 98.5817 206.672 98.8355V98.8355Z" fill="#FFB7B7"/>
<path d="M200.052 96.605C199.742 96.7739 199.399 96.8757 199.046 96.9036C198.693 96.9315 198.338 96.885 198.005 96.7672L173.693 87.5576C167.762 85.4592 162.796 81.2819 159.72 75.8029L149.582 57.7521C148.87 56.9589 148.321 56.0335 147.968 55.0286C147.615 54.0237 147.464 52.9592 147.523 51.896C147.583 50.8328 147.852 49.7917 148.315 48.8324C148.778 47.873 149.426 47.0142 150.222 46.3051C151.018 45.596 151.946 45.0505 152.954 44.6999C153.961 44.3492 155.028 44.2003 156.093 44.2616C157.158 44.3229 158.201 44.5933 159.161 45.0572C160.122 45.5211 160.981 46.1695 161.69 46.9652L179.238 74.725L201.322 87.6476C201.755 87.931 202.09 88.3403 202.282 88.8201C202.475 89.2998 202.515 89.8269 202.397 90.3301L201.299 94.9748C201.181 95.4728 200.913 95.9232 200.532 96.2658C200.386 96.3974 200.225 96.5112 200.052 96.605Z" fill="#575A89"/>
</g>
<defs>
<clipPath id="clip0">
<rect width="388" height="239" fill="white"/>
</clipPath>
</defs>
</svg>
