<svg id="Layer_1" data-name="Layer 1" xmlns="http://www.w3.org/2000/svg" viewBox="0 0 101.72 107.61"><defs><style>.cls-1{fill:#85ca98;}</style></defs><rect class="cls-1" y="0.29" width="11" height="106.75" rx="4"/><rect class="cls-1" x="20.82" y="101.95" width="11" height="19.48" rx="4" transform="translate(121.43 75.79) rotate(90)"/><rect class="cls-1" x="107.29" y="9.58" width="11" height="106.75" rx="4" transform="translate(209.01 116.32) rotate(180)"/><rect class="cls-1" x="103.05" y="101.66" width="11" height="19.48" rx="4" transform="translate(203.38 -6.73) rotate(90)"/><path class="cls-1" d="M94.14,71.13V55.53A5.19,5.19,0,0,0,89,50.34H75.32a5.19,5.19,0,0,0-5.18,5.19V76.78h11.8a.49.49,0,0,1,.73.42v9.59a.5.5,0,0,1-1,0v-9H70.14V93.51a5.18,5.18,0,0,0,5.18,5.18H89a5.18,5.18,0,0,0,5.19-5.18V72.13h-12a.45.45,0,0,1-.38-.2.45.45,0,0,1-.19-.38V62.18a.5.5,0,0,1,1,0v8.95Z" transform="translate(-16.58 -9.58)"/><path class="cls-1" d="M60.25,50H46.61a5.18,5.18,0,0,0-5.18,5.18v38a5.18,5.18,0,0,0,5.18,5.19H60.25a5.18,5.18,0,0,0,5.18-5.19v-38A5.18,5.18,0,0,0,60.25,50ZM53.9,86a.5.5,0,0,1-1,0V62.55a.5.5,0,0,1,1,0Z" transform="translate(-16.58 -9.58)"/><rect class="cls-1" x="24.85" y="18.81" width="11" height="31.9" rx="5.18"/><rect class="cls-1" x="20.82" y="5.63" width="11" height="19.48" rx="4" transform="translate(25.11 -20.53) rotate(90)"/><rect class="cls-1" x="103.05" y="5.34" width="11" height="19.48" rx="4" transform="translate(107.05 -103.05) rotate(90)"/></svg>